<svg width="118" height="114" viewBox="0 0 218 214" fill="none" xmlns="http://www.w3.org/2000/svg">
<g id="star2">
<g id="g738">
<path id="path740" fill-rule="evenodd" clip-rule="evenodd" d="M37.1815 35.0715C121.698 79.8648 96.5482 79.8648 181.067 35.0715C136.475 119.206 136.922 95.3741 181.067 178.957C96.4135 133.933 121.616 133.695 37.1815 178.957C81.9749 94.4381 81.9749 119.589 37.1815 35.0715Z" fill="#F7DE72"/>
</g>
<g id="g742">
<path id="path744" fill-rule="evenodd" clip-rule="evenodd" d="M75.5664 73.4535C75.7117 73.7335 75.8544 74.0162 75.9997 74.2909C81.3011 84.5615 86.1064 95.2242 86.1064 107.014C86.1064 118.804 81.3011 129.463 75.9997 139.732C75.9131 139.898 75.8277 140.059 75.7464 140.223C75.9211 140.132 76.0904 140.044 76.2637 139.954C86.5264 134.61 97.1904 129.77 108.997 129.772C120.817 129.775 131.5 134.636 141.778 139.978C142.108 140.151 142.436 140.32 142.766 140.492C142.693 140.347 142.616 140.204 142.542 140.059C137.268 129.77 132.517 119.106 132.461 107.323C132.409 95.4749 137.108 84.7375 142.37 74.3735C142.542 74.0295 142.718 73.6895 142.893 73.3442C142.545 73.5282 142.193 73.7095 141.846 73.8895C131.573 79.1882 120.913 83.9962 109.124 83.9935C97.3344 83.9935 86.6744 79.1882 76.4051 73.8895C76.1224 73.7442 75.8464 73.6015 75.5664 73.4535Z" fill="#FCEFA4"/>
</g>
<g id="g746">
<path id="path748" fill-rule="evenodd" clip-rule="evenodd" d="M109.124 38.9619C109.233 29.4752 116.672 21.5832 126.545 19.8006C116.672 18.0219 109.233 10.1259 109.124 0.640584C109.018 10.1259 101.574 18.0219 91.7036 19.8006C101.574 21.5832 109.018 29.4752 109.124 38.9619Z" fill="#F7DE72"/>
</g>
<g id="g750">
<path id="path752" fill-rule="evenodd" clip-rule="evenodd" d="M175.261 107.014C185.696 106.895 194.378 98.7127 196.337 87.8514C198.293 98.7127 206.977 106.895 217.412 107.014C206.977 107.131 198.293 115.315 196.337 126.173C194.378 115.315 185.696 107.131 175.261 107.014Z" fill="#F7DE72"/>
</g>
<g id="g754">
<path id="path756" fill-rule="evenodd" clip-rule="evenodd" d="M42.9862 107.014C32.5529 107.131 23.8689 115.315 21.9089 126.173C19.9556 115.315 11.2702 107.131 0.836914 107.014C11.2702 106.895 19.9556 98.7127 21.9089 87.8514C23.8689 98.7127 32.5529 106.895 42.9862 107.014Z" fill="#F7DE72"/>
</g>
<g id="g758">
<path id="path760" fill-rule="evenodd" clip-rule="evenodd" d="M109.124 175.066C109.018 184.552 101.574 192.444 91.7036 194.224C101.574 196.006 109.018 203.899 109.124 213.387C109.233 203.899 116.672 196.006 126.545 194.224C116.672 192.444 109.233 184.552 109.124 175.066Z" fill="#F7DE72"/>
</g>
<g id="g762">
<path id="path764" fill-rule="evenodd" clip-rule="evenodd" d="M136.834 50.2777C136.896 44.675 141.292 40.0124 147.121 38.9617C141.292 37.9097 136.896 33.2497 136.834 27.643C136.77 33.2497 132.377 37.9097 126.545 38.9617C132.377 40.0124 136.77 44.675 136.834 50.2777Z" fill="#F7DE72"/>
</g>
<g id="g766">
<path id="path768" fill-rule="evenodd" clip-rule="evenodd" d="M181.066 148.807C181.13 143.202 185.525 138.542 191.356 137.492C185.525 136.439 181.13 131.775 181.066 126.172C181.001 131.775 176.608 136.439 170.776 137.492C176.608 138.542 181.001 143.202 181.066 148.807Z" fill="#F7DE72"/>
</g>
<g id="g770">
<path id="path772" fill-rule="evenodd" clip-rule="evenodd" d="M81.4134 186.382C81.4774 180.778 85.8707 176.118 91.7027 175.066C85.8707 174.015 81.4774 169.353 81.4134 163.75C81.3507 169.353 76.9547 174.015 71.1254 175.066C76.9547 176.118 81.3507 180.778 81.4134 186.382Z" fill="#F7DE72"/>
</g>
<g id="g774">
<path id="path776" fill-rule="evenodd" clip-rule="evenodd" d="M37.1815 87.8513C37.2455 82.2487 41.6389 77.5887 47.4709 76.5353C41.6389 75.486 37.2455 70.8233 37.1815 65.2207C37.1202 70.8233 32.7242 75.486 26.8922 76.5353C32.7242 77.5887 37.1202 82.2487 37.1815 87.8513Z" fill="#F7DE72"/>
</g>
</g>
</svg>
