<svg width="99" height="130" viewBox="0 0 199 230" fill="none" xmlns="http://www.w3.org/2000/svg">
<g id="star1">
<g id="g602">
<path id="path604" fill-rule="evenodd" clip-rule="evenodd" d="M99.8599 0.730828C122.333 98.1762 103.208 87.1322 198.833 57.8722C125.681 126.057 125.681 103.973 198.833 172.155C103.208 142.897 122.333 131.851 99.8599 229.296C77.3893 131.851 96.5146 142.897 0.890625 172.155C74.0426 103.969 74.0426 126.055 0.890625 57.8722C96.5146 87.1322 77.3893 98.1762 99.8599 0.730828Z" fill="#F7DE72"/>
</g>
<g id="g606">
<path id="path608" fill-rule="evenodd" clip-rule="evenodd" d="M99.8599 64.7354C97.2546 74.1167 93.2693 83.542 84.5866 88.5554C75.9026 93.5687 65.7479 92.306 56.3173 89.874C63.1413 96.822 69.3093 104.986 69.3093 115.014C69.3093 125.039 63.1413 133.205 56.3199 140.153C65.7479 137.718 75.9026 136.458 84.5866 141.473C93.2693 146.486 97.2546 155.907 99.8599 165.291C102.469 155.907 106.455 146.486 115.137 141.473C123.82 136.458 133.977 137.718 143.404 140.153C136.583 133.205 130.412 125.039 130.412 115.014C130.412 104.986 136.583 96.822 143.404 89.874C133.977 92.306 123.82 93.5687 115.137 88.5554C106.455 83.542 102.469 74.1167 99.8599 64.7354Z" fill="#FCEFA4"/>
</g>
<g id="g610">
<path id="path612" fill-rule="evenodd" clip-rule="evenodd" d="M134.835 37.6097C138.465 49.4377 136.167 47.139 147.995 50.7724C136.22 54.3884 138.44 52.251 134.835 63.9324C131.209 52.0697 133.537 54.355 121.671 50.7724C133.501 47.139 131.201 49.4404 134.835 37.6097Z" fill="#F7DE72"/>
</g>
<g id="g614">
<path id="path616" fill-rule="evenodd" clip-rule="evenodd" d="M172.983 100.018C176.616 111.847 174.316 109.545 186.143 113.178C174.368 116.794 176.592 114.657 172.983 126.339C169.356 114.481 171.686 116.762 159.822 113.178C171.65 109.545 169.348 111.847 172.983 100.018Z" fill="#F7DE72"/>
</g>
<g id="g618">
<path id="path620" fill-rule="evenodd" clip-rule="evenodd" d="M138.012 164.259C141.645 176.088 139.345 173.788 151.173 177.419C139.397 181.038 141.618 178.898 138.012 190.583C134.386 178.722 136.71 181.004 124.852 177.419C136.677 173.788 134.378 176.088 138.012 164.259Z" fill="#F7DE72"/>
</g>
<g id="g622">
<path id="path624" fill-rule="evenodd" clip-rule="evenodd" d="M64.89 166.095C68.5233 177.923 66.222 175.622 78.0526 179.255C66.278 182.871 68.498 180.734 64.89 192.418C61.2646 180.558 63.5926 182.839 51.7286 179.255C63.5566 175.622 61.2566 177.923 64.89 166.095Z" fill="#F7DE72"/>
</g>
<g id="g626">
<path id="path628" fill-rule="evenodd" clip-rule="evenodd" d="M26.7409 103.688C30.3742 115.514 28.0742 113.216 39.9022 116.85C28.1262 120.464 30.3476 118.326 26.7409 130.011C23.1156 118.147 25.4409 120.432 13.5782 116.85C25.4049 113.216 23.1076 115.514 26.7409 103.688Z" fill="#F7DE72"/>
</g>
</g>
</svg>
