<svg width="119" height="99" viewBox="0 0 219 199" fill="none" xmlns="http://www.w3.org/2000/svg">
<g id="star3">
<g id="g562">
<path id="path564" fill-rule="evenodd" clip-rule="evenodd" d="M0.544922 99.0141C41.3809 98.5501 90.2769 80.8421 47.6303 37.2221C87.2009 75.9101 101.861 41.9528 109.424 0.0220888C116.589 39.7688 126.73 69.8274 165.605 42.8328C135.696 85.8981 180.284 98.5848 218.302 99.0141C177.465 99.4754 128.572 117.185 171.216 160.807C131.642 122.118 116.986 156.074 109.424 198.006C102.254 158.255 92.1156 128.199 53.2423 155.194C83.1489 112.129 38.5649 99.4448 0.544922 99.0141Z" fill="#F7DE72"/>
</g>
<g id="g566">
<path id="path568" fill-rule="evenodd" clip-rule="evenodd" d="M58.3796 98.8214C64.3596 102.671 69.3836 107.613 72.6862 113.941C75.6622 119.637 76.7756 125.52 76.5596 131.364C81.9742 131.037 87.4436 131.908 92.7809 134.496C100.101 138.044 105.542 144.233 109.685 151.652C114.597 142.88 121.16 135.685 130.08 132.297C133.804 130.887 137.514 130.259 141.169 130.264C141.197 126.212 141.962 122.101 143.65 117.991C146.93 110.012 152.964 103.877 160.465 99.2068C154.484 95.3561 149.464 90.4148 146.158 84.0854C143.185 78.3908 142.068 72.5081 142.285 66.6614C136.868 66.9908 131.405 66.1188 126.066 63.5308C118.745 59.9828 113.302 53.7948 109.161 46.3761C104.246 55.1481 97.6862 62.3428 88.7676 65.7281C85.0422 67.1414 81.3329 67.7681 77.6796 67.7641C77.6462 71.8161 76.8849 75.9254 75.1969 80.0348C71.9169 88.0161 65.8849 94.1494 58.3796 98.8214Z" fill="#FCEFA4"/>
</g>
<g id="g570">
<path id="path572" fill-rule="evenodd" clip-rule="evenodd" d="M136.744 15.4469C139.863 25.6029 137.888 23.6255 148.043 26.7469C137.935 29.8522 139.841 28.0162 136.744 38.0469C133.632 27.8629 135.631 29.8215 125.444 26.7469C135.599 23.6255 133.624 25.6029 136.744 15.4469Z" fill="#F7DE72"/>
</g>
<g id="g574">
<path id="path576" fill-rule="evenodd" clip-rule="evenodd" d="M187.727 72.5173C177.572 75.6399 179.546 73.6626 176.428 83.8173C173.323 73.7093 175.158 75.6159 165.131 72.5173C175.311 69.4066 173.354 71.4053 176.428 61.2199C179.546 71.3733 177.572 69.3986 187.727 72.5173Z" fill="#F7DE72"/>
</g>
<g id="g578">
<path id="path580" fill-rule="evenodd" clip-rule="evenodd" d="M82.8014 15.4469C79.684 25.6029 81.6587 23.6255 71.5027 26.7469C81.6134 29.8522 79.708 28.0162 82.8014 38.0469C85.916 27.8629 83.9187 29.8215 94.1027 26.7469C83.9467 23.6255 85.9214 25.6029 82.8014 15.4469Z" fill="#F7DE72"/>
</g>
<g id="g582">
<path id="path584" fill-rule="evenodd" clip-rule="evenodd" d="M31.8222 72.5173C41.9729 75.6399 39.9995 73.6626 43.1195 83.8173C46.2249 73.7093 44.3875 75.6159 54.4169 72.5173C44.2342 69.4066 46.1955 71.4053 43.1195 61.2199C39.9995 71.3733 41.9729 69.3986 31.8222 72.5173Z" fill="#F7DE72"/>
</g>
<g id="g586">
<path id="path588" fill-rule="evenodd" clip-rule="evenodd" d="M136.741 182.507C139.86 172.352 137.885 174.33 148.039 171.207C137.933 168.102 139.839 169.939 136.741 159.911C133.629 170.095 135.628 168.134 125.444 171.207C135.597 174.33 133.621 172.352 136.741 182.507Z" fill="#F7DE72"/>
</g>
<g id="g590">
<path id="path592" fill-rule="evenodd" clip-rule="evenodd" d="M187.727 125.437C177.572 122.315 179.546 124.293 176.428 114.137C173.323 124.245 175.158 122.342 165.131 125.437C175.311 128.547 173.354 126.55 176.428 136.737C179.546 126.581 177.572 128.555 187.727 125.437Z" fill="#F7DE72"/>
</g>
<g id="g594">
<path id="path596" fill-rule="evenodd" clip-rule="evenodd" d="M82.8039 182.507C79.6866 172.352 81.6613 174.33 71.5066 171.207C81.6159 168.102 79.7106 169.939 82.8039 159.911C85.9186 170.095 83.9213 168.134 94.1053 171.207C83.9479 174.33 85.9239 172.352 82.8039 182.507Z" fill="#F7DE72"/>
</g>
<g id="g598">
<path id="path600" fill-rule="evenodd" clip-rule="evenodd" d="M31.8222 125.437C41.9729 122.315 39.9995 124.293 43.1195 114.137C46.2249 124.245 44.3875 122.342 54.4169 125.437C44.2342 128.547 46.1955 126.55 43.1195 136.737C39.9995 126.581 41.9729 128.555 31.8222 125.437Z" fill="#F7DE72"/>
</g>
<g id="g558">
<path id="path560" fill-rule="evenodd" clip-rule="evenodd" d="M108.693 191.621C108.3 156.797 93.1946 115.097 55.996 151.464C88.9893 117.718 60.032 105.214 24.2693 98.7662C58.1666 92.6555 83.804 84.0049 60.7773 50.8542C97.5066 76.3595 108.325 38.3342 108.693 5.91019C109.085 40.7355 124.189 82.4395 161.393 46.0675C128.396 79.8155 157.356 92.3169 193.116 98.7662C159.22 104.878 133.583 113.529 156.608 146.68C119.877 121.177 109.059 159.2 108.693 191.621Z" fill="#F7DE72"/>
</g>
</g>
</svg>
