<svg width="100" height="96" viewBox="0 0 200 196" fill="none" xmlns="http://www.w3.org/2000/svg">
<g id="star6">
<g id="g722">
<path id="path724" fill-rule="evenodd" clip-rule="evenodd" d="M94.0833 0.665702C116.722 70.7924 104.277 71.439 153.529 18.8044C116.938 80.6484 114.242 68.7737 187.635 68.6324C129.378 110.79 124.231 99.611 187.614 129.3C117.513 113.614 128.93 108.355 151.901 178.61C93.2713 135.838 101.726 126.315 93.0593 195.86C86.5206 126.539 94.3953 136.202 36.266 178.61C59.51 107.531 71.49 112.842 0.539307 126.499C63.2393 99.387 57.458 109.826 0.539307 68.6324C76.0206 68.779 73.4273 81.4217 37.9086 17.079C83.9793 69.347 72.2286 68.363 94.0833 0.665702Z" fill="#F7DE72"/>
</g>
<g id="g726">
<path id="path728" fill-rule="evenodd" clip-rule="evenodd" d="M94.0573 48.768C91.188 57.0706 86.9813 65.4506 77.6253 67.5586C76.8693 67.7253 76.1307 67.8466 75.4013 67.916C75.0053 69.9053 74.2507 71.8733 73.068 73.7906C67.3987 82.9493 56.328 83.6906 46.568 83.62C53.4893 88.8426 60.0493 95.4066 59.2373 104.764C59.1747 105.529 59.0653 106.264 58.912 106.973C60.7187 107.991 62.396 109.347 63.8827 111.129C70.7347 119.317 68.044 129.964 64.9507 139.169C72.3467 133.825 81.0627 128.935 90.208 132.771C91.5027 133.308 92.6587 133.96 93.7 134.7C94.88 133.825 96.2187 133.072 97.7213 132.464C107.027 128.725 115.847 133.793 123.317 139.219C120.344 130.2 117.973 119.885 124.807 112.004C126 110.625 127.312 109.512 128.705 108.629C128.429 107.588 128.24 106.488 128.156 105.332C127.435 95.6173 134.521 88.8813 141.737 83.524C132.443 83.4786 122.295 82.3666 117.085 73.5973C116.369 72.3906 115.82 71.1706 115.429 69.9426C114.031 69.9493 112.585 69.7893 111.096 69.4306C101.145 67.0333 96.972 57.6386 94.0573 48.768Z" fill="#FCEFA4"/>
</g>
<g id="g730">
<path id="path732" fill-rule="evenodd" clip-rule="evenodd" d="M15.1172 144.837C15.1998 152.393 21.1305 158.688 28.9918 160.106C21.1305 161.52 15.1998 167.814 15.1172 175.369C15.0292 167.814 9.10116 161.52 1.2345 160.106C9.10116 158.688 15.0292 152.393 15.1172 144.837Z" fill="#F7DE72"/>
</g>
<g id="g734">
<path id="path736" fill-rule="evenodd" clip-rule="evenodd" d="M190.492 91.9347C190.544 96.6067 194.211 100.493 199.075 101.369C194.211 102.251 190.544 106.137 190.492 110.809C190.44 106.137 186.771 102.251 181.909 101.369C186.771 100.493 190.44 96.6067 190.492 91.9347Z" fill="#F7DE72"/>
</g>
</g>
</svg>
