<svg width="108" height="104" viewBox="0 0 208 204" fill="none" xmlns="http://www.w3.org/2000/svg">
<g id="star4">
<g id="g630">
<path id="path632" fill-rule="evenodd" clip-rule="evenodd" d="M104.239 0.311578C108.346 88.0556 100.323 79.9009 155.931 12.4836C125.346 94.3516 114.274 91.4756 192.318 51.1609C118.379 98.5916 121.434 87.5676 207.618 102.014C121.434 116.46 118.379 105.436 192.318 152.868C114.274 112.553 125.346 109.681 155.931 191.545C141.867 174.494 127.802 157.44 113.737 140.386C109.231 134.924 107.398 136.22 107.069 143.289L104.239 203.716C103.295 183.512 102.347 163.304 101.403 143.096C101.203 138.925 100.434 133.484 95.3394 139.661L52.5475 191.545C83.1301 109.681 94.2061 112.553 16.1621 152.868C90.1008 105.438 87.0448 116.46 0.862122 102.014C87.0448 87.5676 90.1008 98.5916 16.1621 51.1609C94.2061 91.4756 83.1341 94.3516 52.5475 12.4836C108.157 79.9009 100.133 88.0556 104.239 0.311578Z" fill="#F7DE72"/>
</g>
<g id="g634">
<path id="path636" fill-rule="evenodd" clip-rule="evenodd" d="M104.24 73.7953C103.406 74.286 102.488 74.698 101.48 75.0153C95.7849 76.814 90.6742 74.5073 86.2329 70.8273C87.1995 76.5086 86.6449 82.094 82.2355 86.1247C81.4582 86.8393 80.6449 87.4287 79.8009 87.906C79.8075 88.8807 79.7035 89.8767 79.4795 90.9047C78.1889 96.734 73.6342 100.006 68.2262 102.014C73.6342 104.021 78.1889 107.294 79.4755 113.125C79.7035 114.151 79.8075 115.151 79.8009 116.122C80.6449 116.599 81.4582 117.187 82.2355 117.903C86.6955 121.986 87.2115 127.65 86.1995 133.403L86.8289 132.642C91.0715 127.494 97.2035 123.917 103.99 126.866C104.117 126.926 104.245 126.981 104.368 127.041C104.722 126.889 105.092 126.743 105.478 126.617C112.374 124.298 118.1 128.335 122.252 133.366C122.258 133.379 122.268 133.391 122.281 133.403C121.268 127.65 121.785 121.986 126.244 117.903C127.022 117.187 127.834 116.599 128.678 116.122C128.669 115.151 128.776 114.151 129 113.125C130.29 107.294 134.846 104.021 140.249 102.014C134.846 100.006 130.29 96.734 129 90.9047C128.776 89.8767 128.673 88.8807 128.678 87.906C127.834 87.4287 127.022 86.8393 126.244 86.1247C121.834 82.094 121.281 76.5086 122.248 70.8273C117.805 74.502 112.692 76.814 107 75.0153C105.992 74.698 105.074 74.286 104.24 73.7953Z" fill="#FCEFA4"/>
</g>
<g id="g638">
<path id="path640" fill-rule="evenodd" clip-rule="evenodd" d="M47.2512 44.098C47.2992 48.278 50.5738 51.7473 54.9232 52.538C50.5738 53.3207 47.2992 56.7953 47.2512 60.974C47.2058 56.7953 43.9285 53.3207 39.5792 52.538C43.9285 51.7473 47.2058 48.278 47.2512 44.098Z" fill="#F7DE72"/>
</g>
<g id="g642">
<path id="path644" fill-rule="evenodd" clip-rule="evenodd" d="M33.2447 73.6853C33.2967 77.8626 36.5741 81.3386 40.9194 82.1226C36.5741 82.9053 33.2967 86.3813 33.2447 90.5613C33.1994 86.3813 29.9221 82.9053 25.5781 82.1226C29.9221 81.3386 33.1994 77.8626 33.2447 73.6853Z" fill="#F7DE72"/>
</g>
<g id="g646">
<path id="path648" fill-rule="evenodd" clip-rule="evenodd" d="M39.9477 117.045C39.981 120.139 42.409 122.718 45.6304 123.298C42.409 123.878 39.981 126.457 39.9477 129.55C39.909 126.457 37.4837 123.878 34.261 123.298C37.4837 122.718 39.909 120.139 39.9477 117.045Z" fill="#F7DE72"/>
</g>
<g id="g650">
<path id="path652" fill-rule="evenodd" clip-rule="evenodd" d="M48.5898 147.252C48.6391 151.434 51.9138 154.907 56.2618 155.692C51.9138 156.474 48.6391 159.951 48.5898 164.13C48.5418 159.951 45.2658 156.474 40.9191 155.692C45.2658 154.907 48.5418 151.434 48.5898 147.252Z" fill="#F7DE72"/>
</g>
<g id="g654">
<path id="path656" fill-rule="evenodd" clip-rule="evenodd" d="M89.2226 170.327C89.268 174.506 92.5453 177.982 96.8933 178.766C92.5453 179.548 89.268 183.024 89.2226 187.206C89.172 183.024 85.8986 179.548 81.5493 178.766C85.8986 177.982 89.172 174.506 89.2226 170.327Z" fill="#F7DE72"/>
</g>
<g id="g658">
<path id="path660" fill-rule="evenodd" clip-rule="evenodd" d="M120.849 166.314C120.882 169.41 123.31 171.988 126.533 172.568C123.31 173.147 120.882 175.727 120.849 178.82C120.81 175.727 118.385 173.147 115.164 172.568C118.385 171.988 120.81 169.41 120.849 166.314Z" fill="#F7DE72"/>
</g>
<g id="g662">
<path id="path664" fill-rule="evenodd" clip-rule="evenodd" d="M160.75 147.252C160.797 151.434 164.073 154.907 168.422 155.692C164.073 156.474 160.797 159.951 160.75 164.13C160.698 159.951 157.426 156.474 153.077 155.692C157.426 154.907 160.698 151.434 160.75 147.252Z" fill="#F7DE72"/>
</g>
<g id="g666">
<path id="path668" fill-rule="evenodd" clip-rule="evenodd" d="M170.966 114.859C171.013 119.038 174.289 122.514 178.638 123.298C174.289 124.082 171.013 127.556 170.966 131.736C170.919 127.556 167.642 124.082 163.294 123.298C167.642 122.514 170.919 119.038 170.966 114.859Z" fill="#F7DE72"/>
</g>
<g id="g670">
<path id="path672" fill-rule="evenodd" clip-rule="evenodd" d="M173.155 77.4313C173.187 80.4167 175.53 82.9033 178.638 83.4607C175.53 84.0193 173.187 86.506 173.155 89.49C173.122 86.506 170.78 84.0193 167.678 83.4607C170.78 82.9033 173.122 80.4167 173.155 77.4313Z" fill="#F7DE72"/>
</g>
<g id="g674">
<path id="path676" fill-rule="evenodd" clip-rule="evenodd" d="M160.75 44.3096C160.797 48.4896 164.073 51.9642 168.422 52.7496C164.073 53.5322 160.797 57.0082 160.75 61.1869C160.698 57.0082 157.426 53.5322 153.077 52.7496C157.426 51.9642 160.698 48.4896 160.75 44.3096Z" fill="#F7DE72"/>
</g>
<g id="g678">
<path id="path680" fill-rule="evenodd" clip-rule="evenodd" d="M120.849 20.9639C120.897 25.1439 124.174 28.6185 128.521 29.4025C124.174 30.1865 120.897 33.6625 120.849 37.8412C120.802 33.6625 117.525 30.1865 113.177 29.4025C117.525 28.6185 120.802 25.1439 120.849 20.9639Z" fill="#F7DE72"/>
</g>
<g id="g682">
<path id="path684" fill-rule="evenodd" clip-rule="evenodd" d="M89.2225 31.3631C89.2559 34.5684 91.7705 37.2404 95.1119 37.8404C91.7705 38.4418 89.2559 41.1098 89.2225 44.3191C89.1839 41.1098 86.6692 38.4418 83.3279 37.8404C86.6692 37.2404 89.1839 34.5684 89.2225 31.3631Z" fill="#F7DE72"/>
</g>
<g id="g686">
<path id="path688" fill-rule="evenodd" clip-rule="evenodd" d="M75.6563 8.45798C75.7083 12.6367 78.9856 16.1127 83.3283 16.8967C78.9856 17.682 75.7083 21.158 75.6563 25.334C75.6109 21.158 72.3336 17.682 67.9883 16.8967C72.3336 16.1127 75.6109 12.6367 75.6563 8.45798Z" fill="#F7DE72"/>
</g>
<g id="g690">
<path id="path692" fill-rule="evenodd" clip-rule="evenodd" d="M136.194 178.816C136.239 182.995 139.518 186.472 143.866 187.256C139.518 188.042 136.239 191.518 136.194 195.694C136.146 191.518 132.87 188.042 128.521 187.256C132.87 186.472 136.146 182.995 136.194 178.816Z" fill="#F7DE72"/>
</g>
<g id="g694">
<path id="path696" fill-rule="evenodd" clip-rule="evenodd" d="M17.9061 108.607C17.9527 112.784 21.2314 116.26 25.5781 117.044C21.2314 117.831 17.9527 121.303 17.9061 125.482C17.8567 121.303 14.5821 117.831 10.2341 117.044C14.5821 116.26 17.8567 112.784 17.9061 108.607Z" fill="#F7DE72"/>
</g>
<g id="g698">
<path id="path700" fill-rule="evenodd" clip-rule="evenodd" d="M191.129 59.4632C191.174 63.6406 194.452 67.1166 198.801 67.9006C194.452 68.6846 191.174 72.1606 191.129 76.3406C191.081 72.1606 187.805 68.6846 183.456 67.9006C187.805 67.1166 191.081 63.6406 191.129 59.4632Z" fill="#F7DE72"/>
</g>
</g>
</svg>
