<svg width="144" height="136" viewBox="0 0 244 236" fill="none" xmlns="http://www.w3.org/2000/svg">
<g id="star5">
<g id="g778">
<path id="path780" fill-rule="evenodd" clip-rule="evenodd" d="M126.215 15.4568C128.78 33.4168 131.343 51.3688 133.909 69.3275C138.633 58.2621 143.36 47.2061 148.087 36.1408C138.275 117.583 188.616 44.3075 243.884 0.091465C199.665 55.3661 126.398 105.706 207.84 95.8941C196.778 100.615 185.717 105.343 174.652 110.067C192.608 112.638 210.564 115.199 228.52 117.762C210.564 120.326 192.608 122.894 174.652 125.463C185.717 130.186 196.778 134.91 207.84 139.638C126.398 129.825 199.665 180.166 243.884 235.439C188.616 191.217 138.275 117.947 148.087 199.39C143.36 188.327 138.633 177.267 133.909 166.205C131.343 184.155 128.78 202.117 126.215 220.074C123.647 202.117 121.084 184.155 118.52 166.205C113.795 177.267 109.068 188.327 104.343 199.39C114.156 117.947 63.8135 191.217 8.54016 235.439C52.7588 180.166 126.027 129.825 44.5882 139.638C55.6495 134.91 66.7122 130.186 77.7775 125.463C59.8215 122.894 41.8655 120.326 23.9095 117.762C41.8655 115.199 59.8215 112.638 77.7775 110.067C66.7122 105.343 55.6495 100.615 44.5882 95.8941C126.029 105.706 52.7588 55.3661 8.54016 0.091465C63.8135 44.3075 114.152 117.583 104.343 36.1408C109.068 47.2061 113.795 58.2621 118.52 69.3275C121.084 51.3688 123.647 33.4168 126.215 15.4568Z" fill="#F7DE72"/>
</g>
<g id="g782">
<path id="path784" fill-rule="evenodd" clip-rule="evenodd" d="M16.0091 149.741C20.3704 163.938 17.6077 161.177 31.8091 165.541C17.6704 169.878 20.3371 167.314 16.0091 181.338C11.6544 167.097 14.4517 169.839 0.205078 165.541C14.4077 161.177 11.6477 163.938 16.0091 149.741Z" fill="#F7DE72"/>
</g>
<g id="g786">
<path id="path788" fill-rule="evenodd" clip-rule="evenodd" d="M170.21 21.9484C173.676 33.2351 171.48 31.0404 182.766 34.5084C171.534 37.9524 173.65 35.9151 170.21 47.0564C166.751 35.7431 168.971 37.9231 157.655 34.5084C168.936 31.0404 166.743 33.2351 170.21 21.9484Z" fill="#F7DE72"/>
</g>
<g id="g790">
<path id="path792" fill-rule="evenodd" clip-rule="evenodd" d="M35.7981 62.1722C39.2674 73.4589 37.0714 71.2642 48.3554 74.7322C37.1221 78.1829 39.2394 76.1415 35.7981 87.2855C32.3421 75.9735 34.5607 78.1522 23.2434 74.7322C34.5287 71.2642 32.3354 73.4589 35.7981 62.1722Z" fill="#F7DE72"/>
</g>
<g id="g794">
<path id="path796" fill-rule="evenodd" clip-rule="evenodd" d="M215.531 140.432C218.996 151.707 216.803 149.516 228.084 152.979C216.851 156.435 218.972 154.395 215.531 165.54C212.071 154.22 214.292 156.4 202.978 152.979C214.26 149.516 212.064 151.707 215.531 140.432Z" fill="#F7DE72"/>
</g>
<g id="g798">
<path id="path800" fill-rule="evenodd" clip-rule="evenodd" d="M154.927 133.709C154.379 131.725 154.314 129.601 154.959 127.337C156.444 122.12 160.987 119.383 166.131 117.763C160.987 116.149 156.444 113.407 154.959 108.193C154.314 105.928 154.379 103.805 154.927 101.82C152.322 101.497 149.87 100.473 147.786 98.3468C143.843 94.3295 143.856 88.7761 145.147 83.3268C141.358 86.6281 136.971 88.8388 132.01 87.5708C129.53 86.9388 127.623 85.6668 126.131 83.9988C124.663 85.6068 122.788 86.8348 120.371 87.4415C115.454 88.6948 111.1 86.5415 107.34 83.2921C108.655 88.7761 108.702 94.3815 104.724 98.4268C102.619 100.571 100.131 101.597 97.4978 101.907C98.0245 103.868 98.0805 105.964 97.4445 108.193C95.9645 113.407 91.4311 116.149 86.2925 117.763C91.4311 119.383 95.9645 122.12 97.4445 127.337C98.0805 129.567 98.0245 131.664 97.4978 133.624C100.131 133.933 102.619 134.959 104.724 137.099C108.702 141.145 108.655 146.753 107.34 152.241C111.1 148.989 115.454 146.829 120.371 148.083C122.788 148.703 124.663 149.927 126.131 151.535C127.623 149.864 129.53 148.584 132.01 147.953C136.971 146.693 141.358 148.897 145.147 152.197C143.856 146.748 143.843 141.201 147.786 137.181C149.87 135.056 152.322 134.035 154.927 133.709Z" fill="#FCEFA4"/>
</g>
</g>
</svg>
