<svg width="72" height="99" viewBox="0 0 290 395" fill="none" xmlns="http://www.w3.org/2000/svg">
<path opacity="0.857" d="M140.704 394.039C218.187 394.039 280.999 384.069 280.999 371.77C280.999 359.471 218.187 349.501 140.704 349.501C63.2213 349.501 0.409241 359.471 0.409241 371.77C0.409241 384.069 63.2213 394.039 140.704 394.039Z" fill="url(#paint0_radial_2_561)"/>
<path d="M126.906 345.597C101.135 357.311 95.9812 356.843 98.324 368.088C100.667 379.333 109.101 383.082 116.598 382.613C124.095 382.145 116.598 384.488 131.123 386.362C145.648 388.236 143.305 392.922 150.334 384.488C157.362 376.054 155.488 373.711 163.922 373.242C172.356 372.774 170.482 375.585 179.384 373.711C188.287 371.837 187.818 376.054 189.224 370.431C190.63 364.808 194.378 361.997 185.476 358.717C176.573 355.437 172.825 357.78 163.453 354.5C154.082 351.22 150.802 350.751 126.906 345.597Z" fill="#217B21"/>
<path d="M123.157 351.689C107.705 352.014 110.228 364.061 116.598 370.431C118.279 372.112 122.376 372.851 125.032 374.179C131.984 377.655 153.135 371.378 157.362 367.151C157.909 366.604 160.095 367.698 160.642 367.151C164.93 362.862 184.538 372.778 184.538 364.808C184.538 364.441 184.772 362.699 184.538 362.465C183.306 361.233 180.154 360.892 178.447 359.185C177.405 358.143 174.299 356.42 172.825 355.437C169.885 353.477 164.535 352.193 160.642 351.22C148.838 348.269 134.026 356.036 123.157 351.689Z" fill="#144A14"/>
<path d="M111.444 23.2298C111.279 24.2435 107.656 21.9029 107.227 22.7613C106.075 25.0652 107.117 28.0246 105.352 29.7896C104.387 30.7547 102.428 29.4397 100.667 28.8525C98.5406 28.1438 98.3315 30.2582 98.324 30.2582C97.6108 30.2582 91.5546 24.2717 87.0786 26.5097C83.8983 28.0999 91.6069 41.3479 89.4214 42.4407C86.1061 44.0983 76.6004 41.2049 74.4275 43.3778C74.3806 43.4247 74.8839 45.7328 75.3647 45.252C75.6528 44.9639 73.8463 45.2344 73.4904 46.6577C73.3366 47.273 72.8199 52.6156 72.5533 52.7489C71.7036 53.1738 69.742 53.2304 69.742 52.2804C69.742 51.6665 78.8668 54.4009 75.3647 57.9031C72.8731 60.3946 69.7246 56.9747 66.9306 58.3716C65.4402 59.1168 61.2231 59.4785 60.3708 61.183C59.9939 61.9368 58.4966 63.8196 58.4966 64.4629C58.4966 65.304 61.6805 65.4 60.8394 65.4C57.8482 65.4 49.5899 68.684 47.2512 71.0227C44.4955 73.7784 49.6273 77.1473 50.5311 78.051C51.5889 79.1088 49.0125 79.6995 49.594 80.8624C49.9634 81.6012 53.1121 83.4355 52.8739 83.6737C51.6392 84.9085 48.7577 85.2467 47.2512 85.548C44.6602 86.0662 41.6919 87.9119 38.8172 86.9536C35.1762 85.74 30.4108 77.0587 27.5718 82.7366C24.9812 87.9178 29.2023 92.5574 31.3203 96.7933C31.797 97.7469 28.5046 97.0298 28.0404 97.2619C27.5197 97.5222 28.3449 101.701 28.5089 101.947C30.1466 104.404 33.3387 103.029 34.6002 104.29C35.2168 104.907 29.446 108.859 29.446 108.976C29.446 113.792 34.3346 114.864 28.9775 120.221C28.2241 120.975 28.6827 122.009 27.5718 122.564C25.8125 123.444 21.1664 121.787 20.0749 123.97C19.8773 124.365 21.4538 124.907 21.012 124.907C15.4037 124.907 29.1614 131.561 26.6347 132.404C18.1917 135.218 15.7847 139.037 10.2352 144.586C9.63516 145.186 14.5907 147.259 14.4522 147.398C10.4508 151.399 8.56932 153.906 11.1723 159.111C14.8158 166.398 17.7675 167.329 24.7605 170.825C25.4234 171.157 27.0493 170.771 27.5718 171.294C28.3805 172.103 28.9293 174.298 28.5089 175.98C28.267 176.947 17.1098 182.301 14.4522 186.288C11.9955 189.973 21.4406 193.396 20.5434 195.19C15.0405 206.196 20.8536 202.384 19.1378 209.247C18.6468 211.211 17.3665 212.241 15.8579 212.996C15.1056 213.372 13.1389 211.306 13.5151 212.058C16.4721 217.972 11.3272 218.456 11.6408 220.024C12.3294 223.467 14.793 223.858 15.8579 227.052C16.9232 230.248 17.5743 234.234 19.1378 237.361C20.6701 240.425 23.5931 237.48 25.229 238.298C26.9523 239.159 28.4485 240.376 29.9146 241.109C32.4881 242.396 28.1697 247.798 29.446 249.074C32.0206 251.649 35.9458 253.67 37.8801 256.571C38.154 256.982 38.8425 257.977 38.3486 257.977C37.4024 257.977 40.6566 255.334 41.16 255.166C43.4592 254.399 45.9218 256.61 47.7198 257.508C52.6824 259.99 54.8987 266.617 59.9023 268.285C63.0349 269.33 68.3784 265.816 69.2734 263.131C69.7501 261.701 67.6683 261.322 68.3363 260.32C69.1381 259.117 72.5521 258.445 73.959 258.914C76.2862 259.69 84.7797 270.628 85.2044 270.628C85.6983 270.628 84.7358 269.716 84.7358 269.222C84.7358 269.211 90.5877 271.329 91.2956 271.565C94.3665 272.589 92.6376 267.88 94.107 266.411C94.8292 265.689 97.5817 266.216 98.324 265.474C98.8737 264.924 98.069 262.918 98.7925 262.194C100.003 260.983 103.696 266.629 103.947 266.88C104.434 267.367 106.617 266.575 107.227 266.88C108.845 267.689 108.889 271.112 110.975 272.502C113.322 274.067 118.58 268.982 121.752 271.097C126.019 273.941 128.747 279.029 132.06 282.342C133.734 284.016 140.991 277.877 142.368 277.188C144.277 276.233 145.711 279.593 146.585 280.468C147.789 281.672 150.88 279.024 151.74 278.594C151.744 278.591 160.117 281.349 160.642 281.873C162.007 283.238 162.765 286.118 163.922 288.433C164.478 289.546 167.072 290.048 167.202 290.308C169.128 294.159 172.009 297.041 175.167 295.462C177.077 294.507 178.015 285.297 177.51 283.279C177.447 283.028 176.379 281.131 176.573 280.936C177.251 280.258 179.333 280.051 180.322 279.062C180.568 278.815 180.79 280.349 180.79 279.999C180.79 279.375 180.348 278.567 180.79 278.125C180.959 277.956 188.672 282.342 186.413 282.342C185.701 282.342 188.926 277.017 189.224 276.719C190.259 275.684 193.187 278.955 194.847 278.125C197.001 277.048 194.461 271.992 196.252 271.097C202.652 267.897 206.647 269.605 212.652 263.6C212.978 263.274 219.607 266.627 220.617 266.88C224.894 267.949 232.395 266.39 236.548 265.005C239.421 264.048 234.374 256.403 235.611 255.166C238.048 252.729 238.162 252.354 242.64 252.354C244.045 252.354 246.857 253.76 246.857 252.354C246.857 252.257 244.848 249.074 244.982 249.074C246.402 249.074 248.14 250.052 249.668 249.543C251.142 249.052 250.294 247.512 251.074 246.732C251.812 245.993 254.351 247.388 255.291 247.2C259.131 246.432 268.185 244.145 270.753 241.578C271.848 240.483 266.371 235.472 266.068 235.018C262.659 229.905 257.323 223.925 260.445 217.681C261.028 216.515 259.233 214.482 259.508 213.933C260.363 212.222 263.539 211.868 264.662 210.184C266.43 207.532 264.89 207.384 266.068 205.03C266.219 204.727 269.943 205.03 270.285 205.03C272.129 205.03 271.846 203.051 272.159 203.156C272.376 203.228 275.084 205.158 275.439 204.093C275.886 202.751 273.556 199.876 274.97 199.876C275.29 199.876 277.369 201.694 277.781 201.282C280.255 198.808 288.591 187.032 289.027 184.414C289.682 180.483 273.37 169.98 268.879 168.483C267.112 167.894 263.792 167.613 262.319 166.14C262.113 165.934 261.624 160.743 261.851 160.517C262.456 159.912 267.277 159.398 268.41 158.643C275.761 153.743 274.502 149.623 274.502 142.712C274.502 141.4 275.124 138.334 274.502 137.089C272.32 132.727 268.276 131.333 264.662 127.718C263.48 126.536 265.216 121.329 264.193 119.284C262.706 116.31 257.953 116.324 256.228 114.599C255.79 114.161 255.921 111.966 255.759 111.319C255.536 110.425 253.134 105.979 253.416 105.696C256.112 103 258.419 94.2238 255.759 90.2335C252.352 85.1227 243.293 85.7327 242.64 85.0794C241.914 84.3536 244.131 70.2569 242.64 67.2742C234.724 51.4439 234.819 60.3906 229.52 55.0917C227.304 52.8755 230.257 47.2158 225.772 45.7206C222.329 44.573 218.457 46.866 215.463 48.0634C215.168 48.1816 213.896 49.7762 213.589 49.469C210.476 46.3558 207.736 44.7835 203.281 44.7835C202.266 44.7835 205.155 39.2979 205.155 34.4752C205.155 28.8972 199.828 19.5222 194.847 16.2015C193.13 15.0567 179.452 10.9798 178.916 11.5159C177.482 12.9499 176.344 17.996 174.699 18.5443C173.863 18.8229 171.298 17.7279 170.95 18.0757C170.328 18.6983 170.805 20.9596 170.013 21.3556C168.83 21.9473 166.166 19.1113 164.859 20.4185C163.224 22.0537 159.742 23.3141 156.425 22.7613C143.642 20.6308 154.605 13.8856 148.928 11.0473C148.749 10.9578 142.594 10.9842 141.431 12.9216C141.032 13.5874 139.116 19.4814 139.088 19.4814C138.427 19.4814 135.388 18.4314 133.934 19.0128C133.006 19.3842 133.06 21.3556 132.06 21.3556C126.209 21.3556 126.415 11.0473 122.689 11.0473C122.543 11.0473 113.336 15.6771 112.849 17.1386C112.155 19.2208 112.356 20.9496 111.444 23.2298Z" fill="#195B19"/>
<path d="M60.3708 170.357C43.9536 169.979 57.8517 182.892 56.6223 185.351C56.1799 186.235 53.984 184.832 53.3424 186.756C52.6959 188.696 51.4714 190.961 50.9997 192.848C50.8083 193.613 51.5657 196.499 50.9997 197.065C48.8274 199.237 44.7879 199.18 43.0342 202.687C42.3181 204.119 47.2251 205.551 46.7826 206.436C45.5772 208.847 42.3589 210.074 41.6285 212.996C39.8752 220.009 45.0141 220.13 47.2512 222.367C48.8022 223.918 46.9048 232.573 47.7198 235.018C49.1568 239.329 52.0254 243.101 54.7481 246.732C60.3852 254.248 59.9902 246.175 60.3708 245.795C61.0873 245.078 63.6892 245.737 64.5878 244.389C66.0972 242.125 62.7203 235.48 64.5878 233.612C66.23 231.97 68.3516 237.844 68.8048 238.298C70.1141 239.607 76.2344 238.699 77.7074 240.172C78.9876 241.452 80.4877 245.628 82.393 246.263C84.8211 247.072 83.2006 242.774 83.7987 241.578C84.5852 240.005 87.5198 241.164 89.8899 236.423C91.0621 234.079 86.278 231.133 88.9528 228.458C91.164 226.247 100.324 232.279 105.352 228.927C107.077 227.777 106.42 226.453 107.695 225.178C108.585 224.288 111.772 223.28 112.381 222.367C113.357 220.902 114.002 218.403 115.192 217.213C115.504 216.9 116.754 217.525 117.066 217.213C119.108 215.17 115.633 207.4 117.066 205.967C118.095 204.939 123.068 206.22 124.095 206.904C129.185 210.298 123.983 222.746 125.032 227.989C125.7 231.332 128.354 228.032 130.186 229.864C131.102 230.78 132.407 232.675 134.403 232.675C135.656 232.675 136.309 228.862 136.746 227.989C136.943 227.594 137.288 228.729 137.683 228.927C139.125 229.647 140.461 230.55 141.9 231.269C142.298 231.468 141.953 227.226 142.837 227.521C147.342 229.023 150.581 233.118 153.145 227.989C153.682 226.915 153.663 225.128 154.551 224.241C154.675 224.117 155.764 224.241 155.956 224.241C162.291 224.241 155.17 233.924 163.922 235.018C166.028 235.281 168.526 235.201 170.482 234.549C171.363 234.256 171.438 235.936 171.887 235.486C172.252 235.121 173.272 227.052 174.23 227.052C177.239 227.052 179.781 231.666 181.259 233.144C182.425 234.31 191.524 232.931 192.973 232.206C194.02 231.683 194.24 230.002 194.847 229.395C195.865 228.377 197.643 230.569 199.064 230.332C201.645 229.902 204.195 228.665 206.561 227.989C206.978 227.87 210.356 228.411 210.778 227.989C213.537 225.23 209.444 216.672 211.715 214.401C213.765 212.351 215.901 208.932 216.4 206.436C216.751 204.68 215.03 197.03 215.932 196.127C217.366 194.694 218.69 192.06 218.275 189.568C217.573 185.359 213.686 183.154 211.715 180.197C209.683 177.149 210.822 171.594 208.435 168.014C203.011 159.878 190.728 157.239 181.727 154.426C168.786 150.382 127.351 147.142 111.444 150.677C103.048 152.543 94.5482 156.776 86.1415 159.111C75.7407 162.001 64.1366 160.978 54.2796 165.203C48.223 167.798 58.2924 178.322 52.4053 178.322C52.3307 178.322 55.7635 176.37 58.9651 173.168C59.5276 172.606 63.6507 167.76 63.6507 168.483C63.6507 168.538 62.3139 168.414 62.245 168.483C62.1346 168.593 62.245 168.795 62.245 168.951C61.6203 169.42 60.9955 169.888 60.3708 170.357Z" fill="#144A14"/>
<path d="M117.142 362.364C118.446 352.465 124.967 354.444 123.989 334.316C123.011 314.187 121.055 310.887 122.359 297.358C123.663 283.828 123.337 277.559 122.685 268.979C122.033 260.4 125.294 252.15 111.925 247.86C98.5562 243.57 93.6652 245.22 85.8396 236.641C78.014 228.061 75.4055 224.761 74.7534 221.132C74.1012 217.502 70.1884 205.623 70.1884 205.623L73.123 204.633C73.123 204.633 77.688 216.182 80.9486 223.442C84.2093 230.701 84.2093 231.691 88.7742 234.331C93.3391 236.971 95.6216 237.631 96.2737 235.651C96.9258 233.671 101.165 231.361 97.578 221.462C93.9912 211.562 91.3827 210.902 90.4045 207.932C89.4263 204.963 88.4481 203.643 90.4045 199.683C92.3609 195.723 95.6216 197.703 95.6216 197.703C95.6216 197.703 92.687 195.063 93.6652 201.003C94.6434 206.942 97.2519 211.562 98.8822 214.862C100.513 218.162 101.817 219.152 102.143 224.102C102.469 229.051 99.5344 227.071 102.469 232.351C105.404 237.631 107.034 238.951 108.664 239.941C110.295 240.931 113.881 241.591 116.164 242.581C118.446 243.57 121.707 244.23 121.707 244.23C121.707 244.23 123.337 236.971 125.946 230.041C128.554 223.112 129.858 217.832 128.88 211.232C127.902 204.633 127.576 207.932 125.946 201.333C124.315 194.733 123.663 194.403 123.989 192.423C124.315 190.443 124.641 174.934 124.641 174.934L129.858 173.614C129.858 173.614 129.532 181.534 132.141 188.463C134.749 195.393 136.38 199.023 137.684 204.303C138.988 209.582 139.966 214.862 139.314 218.162C138.662 221.462 144.857 211.562 151.379 211.232C157.9 210.902 163.443 210.902 164.747 210.242C166.052 209.582 161.813 208.592 161.161 203.973C160.509 199.353 160.509 195.723 161.487 193.413C162.465 191.103 165.074 188.463 165.726 187.144C166.378 185.824 168.008 186.154 168.008 186.154C168.008 186.154 165.074 189.123 165.074 192.753C165.074 196.383 165.4 203.643 165.4 203.643C165.4 203.643 166.052 205.293 166.704 206.612C167.356 207.932 168.008 207.932 168.008 207.932C168.008 207.932 167.03 209.252 170.617 206.282C174.203 203.313 176.812 201.333 178.442 200.673C180.073 200.013 176.16 200.343 180.725 199.683C185.29 199.023 185.942 197.703 186.268 199.023C186.594 200.343 195.398 198.693 186.594 201.993C177.79 205.293 175.508 205.623 172.899 208.262C170.291 210.902 169.312 211.892 164.747 214.532C160.183 217.172 156.27 218.492 153.009 219.482C149.748 220.472 147.466 222.452 146.488 224.102C145.51 225.751 143.227 230.701 143.227 230.701C143.227 230.701 142.249 243.241 144.857 247.53C147.466 251.82 147.792 255.12 156.922 254.13C166.052 253.14 179.746 254.46 185.29 249.51C190.833 244.56 193.441 243.57 196.376 238.291C199.31 233.011 199.963 234.661 204.201 226.081C208.44 217.502 208.766 215.852 208.766 215.852L211.701 216.512C211.701 216.512 211.701 216.182 209.418 225.421C207.136 234.661 208.766 233.341 204.201 238.951C199.636 244.56 196.702 245.55 198.332 247.2C199.963 248.85 198.006 250.17 201.919 250.5C205.832 250.83 206.158 251.49 210.397 247.86C214.636 244.23 215.288 246.54 216.918 240.271C218.548 234.001 215.94 233.671 220.179 229.381C224.417 225.091 225.396 229.381 226.374 222.452C227.352 215.522 224.091 205.953 224.091 205.953C224.091 205.953 227.352 202.653 228.004 204.303C228.656 205.953 231.591 213.542 231.591 216.842C231.591 220.142 232.895 224.761 229.635 228.061C226.374 231.361 225.396 231.031 223.765 234.331C222.135 237.631 222.461 239.611 221.157 242.251C219.853 244.89 221.157 245.55 217.57 248.52C213.983 251.49 207.788 255.78 205.18 256.11C202.571 256.44 204.854 256.44 198.332 257.1C191.811 257.76 187.246 260.4 185.29 261.72C183.333 263.039 180.073 261.06 171.595 265.019C163.117 268.979 159.204 266.999 156.27 273.599C153.335 280.199 153.661 280.199 154.639 287.788C155.618 295.378 153.987 299.007 154.313 304.617C154.639 310.227 153.335 305.277 156.27 317.157C159.204 329.036 158.878 330.356 159.204 335.306C159.53 340.255 156.922 339.595 161.161 343.885C165.4 348.175 166.378 349.165 170.617 352.465C174.856 355.764 176.486 354.774 178.116 359.724C179.746 364.674 189.855 367.974 176.486 364.344C163.117 360.714 168.008 355.434 156.27 361.704C144.531 367.974 148.77 368.964 142.575 368.304C136.38 367.644 125.62 377.873 117.142 362.364Z" fill="#A05A2C"/>
<path opacity="0.273" d="M129.612 173.677L128.459 173.968C128.55 177.208 128.953 189.025 130.093 193.299C131.418 198.269 135.062 204.564 135.725 207.214C136.388 209.865 136.719 218.811 136.719 218.811C136.719 218.811 140.695 220.136 141.358 218.148C141.456 217.851 141.723 217.298 142.082 216.597C140.152 218.421 139.017 219.666 139.314 218.162C139.967 214.862 138.988 209.582 137.684 204.303C136.38 199.023 134.749 195.393 132.141 188.464C129.701 181.983 129.827 174.722 129.854 173.797L129.612 173.677ZM71.8513 205.061L70.1886 205.622C70.1886 205.622 74.1014 217.502 74.7535 221.132C75.4056 224.762 78.0141 228.061 85.8396 236.641C93.6652 245.221 98.5563 243.571 111.925 247.86C117.666 249.702 120.339 252.275 121.573 255.29C121.551 254.962 121.52 254.619 121.478 254.262C120.816 248.63 120.484 246.973 113.527 243.991C106.569 241.009 104.912 239.684 99.9426 239.021C94.9728 238.359 94.9728 240.015 90.3343 237.365C85.6958 234.714 79.4006 230.738 77.4127 223.449C75.4248 216.16 74.7621 208.54 72.7742 206.22C72.471 205.867 72.1605 205.472 71.8513 205.061ZM158.917 215.166C156.267 215.166 153.616 216.16 149.309 217.154C145.002 218.148 145.334 219.805 142.02 224.443C138.707 229.082 138.707 234.383 136.719 239.021C134.731 243.66 137.713 247.636 142.351 253.268C145.512 257.105 148.057 255.407 150.72 253.934C147.383 253.019 146.672 250.514 144.858 247.53C142.249 243.241 143.227 230.701 143.227 230.701C143.227 230.701 145.51 225.751 146.488 224.101C147.466 222.452 149.748 220.472 153.009 219.482C155.754 218.648 158.964 217.578 162.634 215.685C161.427 215.293 160.077 215.166 158.917 215.166ZM210.935 251.943C210.935 251.943 206.628 253.599 202.652 253.268C198.676 252.937 197.351 253.931 192.712 254.924C188.074 255.918 187.411 256.581 173.496 259.894C159.58 263.208 158.918 259.894 150.635 262.214C142.352 264.533 144.008 272.485 140.032 283.749C136.056 295.014 139.701 291.37 145.665 312.574C151.628 333.779 146.99 324.833 146.99 339.411C146.99 353.989 148.647 351.007 145.333 360.616C144.043 364.359 142.957 366.684 142.147 368.277C142.292 368.281 142.435 368.289 142.575 368.304C148.77 368.964 144.531 367.974 156.27 361.704C168.008 355.435 163.117 360.714 176.486 364.344C189.855 367.974 179.747 364.674 178.116 359.724C176.486 354.775 174.856 355.764 170.617 352.465C166.378 349.165 165.4 348.175 161.161 343.885C156.922 339.595 159.53 340.255 159.204 335.306C158.878 330.356 159.204 329.036 156.27 317.156C153.335 305.277 154.639 310.227 154.313 304.617C153.987 299.007 155.618 295.378 154.64 287.788C153.661 280.199 153.335 280.199 156.27 273.599C159.204 266.999 163.117 268.979 171.595 265.019C180.073 261.06 183.333 263.04 185.29 261.72C187.246 260.4 191.811 257.76 198.332 257.1C204.854 256.44 202.571 256.44 205.18 256.11C206.603 255.93 209.093 254.569 211.645 252.889L210.935 251.943Z" fill="black"/>
<path d="M22.4177 222.367C19.7815 227.973 31.3203 228.808 31.3203 230.332C31.3203 235.859 35.0699 240.641 39.7543 243.452C41.2517 244.35 46.1861 245.795 44.4399 245.795C44.4069 245.795 44.0494 239.781 45.377 241.109C48.8305 244.562 52.2215 246.447 56.6224 242.046C59.6748 238.994 50.5311 233.438 50.5311 231.738C50.5311 230.348 58.0374 230.763 59.4337 225.178C59.7009 224.109 60.5321 221.914 60.3708 221.43C59.8844 219.97 56.9584 217.213 58.4966 217.213C62.3266 217.213 62.8162 222.733 68.8049 216.744C70.0197 215.529 67.0868 211.59 68.8049 211.59C70.0928 211.59 69.166 214.186 69.742 215.338C71.6856 219.226 79.2895 220.639 83.3301 218.618C84.8514 217.858 75.4987 204.863 78.6446 206.436C79.9447 207.086 79.3091 208.174 80.5188 208.779C83.3673 210.203 85.8099 201.887 88.0157 204.093C91.3276 207.405 92.0312 207.841 98.324 207.841C101.407 207.841 99.612 206.202 100.667 204.093C101.155 203.117 104.192 203.602 104.884 202.219C106.053 199.879 101.433 194.893 105.352 190.973C106.605 189.721 109.723 193.163 110.975 191.91C112.916 189.969 107.898 187.491 109.101 186.288C110.257 185.132 116.174 190.549 116.598 190.973C118.235 192.611 123.626 188.07 123.626 186.288C123.626 185.034 133.474 182.999 134.871 181.602C137.722 178.752 133.181 166.072 131.123 163.328C127.864 158.983 122.721 160.517 118.472 160.517C117.514 160.517 121.723 155.305 119.878 151.615C118.194 148.247 113.62 146.294 110.975 143.649C109.551 142.225 108.889 138.752 107.227 137.089C102.57 132.433 91.8234 143.532 87.0786 140.369C82.3416 137.211 84.4436 122.599 67.8678 119.284C66.3893 118.988 63.1042 117.956 61.7765 119.284C60.8869 120.174 59.8197 125.587 59.4337 125.844C58.2331 126.644 54.5071 126.55 52.8739 127.25C51.2902 127.928 49.7785 129.969 48.6569 130.529C43.7697 132.973 35.8934 125.994 30.3832 133.341C28.0826 136.408 30.5912 139.745 29.9146 141.775C29.571 142.806 25.492 143.912 26.1661 144.586C26.9277 145.348 30.6212 150.67 29.9146 152.083C28.9845 153.943 19.8673 156.093 20.0749 156.3C20.8287 157.054 23.4271 156.841 24.2919 157.706C24.7587 158.173 24.8793 160.577 25.6976 160.986C26.9816 161.628 34.4568 165.815 31.3203 168.951C30.9104 169.361 26.9788 166.857 26.6347 167.545C25.943 168.929 26.2233 169.363 25.229 170.357C21.8452 173.741 28.2946 176.742 28.5089 177.385C29.4809 180.301 29.9146 182.369 29.9146 185.819C29.9146 186.946 32.9151 188.631 31.7888 188.631C30.3498 188.631 22.8418 185.686 23.3548 187.225C23.9577 189.034 27.9828 190.562 26.6347 191.91C26.5367 192.008 12.9385 188.955 11.6409 192.848C10.0155 197.724 13.1802 196.897 16.3264 198.47C17.0408 198.827 20.0137 202.158 20.5435 202.687C22.3064 204.45 14.7053 206.22 15.3893 206.904C16.7686 208.284 19.797 208.032 21.012 209.247C22.0887 210.324 19.7562 210.971 19.6063 211.121C19.3414 211.386 19.9423 214.758 19.6063 214.87C18.2422 215.325 16.5989 215.671 15.3893 216.275C13.3869 217.277 16.5979 226.247 22.4177 222.367Z" fill="#268C26"/>
<path d="M150.802 155.363C148.941 156.801 147.539 158.141 146.585 160.049C145.666 161.888 149.569 166.189 150.334 168.483C150.904 170.192 149.375 170.89 148.928 172.231C148.32 174.055 149.396 176.453 148.928 178.322C147.612 183.588 143.542 192.458 150.334 194.722C160.601 198.144 156.087 193.719 157.831 192.848C160.06 191.733 162.072 195.413 164.391 194.253C165.372 193.763 165.713 190.697 167.202 191.442C168.233 191.957 175.918 199.593 176.573 198.939C177.068 198.444 177.606 195.467 177.979 194.722C178.922 192.835 189.122 200.447 186.413 203.156C186.07 203.499 184.625 203.538 184.07 204.093C183.838 204.325 184.07 206.107 184.07 206.436C184.07 207.823 184.04 210.154 185.007 211.121C186.423 212.537 199.799 216.879 202.812 214.87C209.458 210.439 201.49 198.855 201.875 198.47C202.591 197.754 204.389 199.15 205.155 198.002C208.527 192.943 205.616 189.337 210.778 186.756C211.894 186.198 221.051 192.991 231.863 184.882C233.58 183.594 233.269 180.632 233.269 179.259C233.269 176.277 237.332 173.644 236.08 169.888C235.009 166.676 230.926 166.537 230.926 162.391C230.926 161.775 232.612 161.267 232.8 160.986C233.435 160.033 232.504 156.596 233.269 155.832C235.315 153.785 236.54 149.749 238.891 147.398C239.382 146.907 240.878 146.816 241.234 146.46C246.227 141.468 217.377 138.456 221.555 134.278C222.3 133.533 222.215 131.743 222.96 130.998C224.57 129.388 226.023 131.073 227.177 128.187C228.026 126.064 225.548 122.319 227.177 120.69C228.948 118.919 231.634 117.627 232.8 114.13C233.678 111.496 231.863 107.243 231.863 104.759C231.863 103.015 243.754 111.432 244.514 109.913C246.148 106.645 240.761 90.9295 238.423 87.4222C237.334 85.7886 234.792 86.0196 234.206 83.6737C233.434 80.5872 231.85 78.4798 230.926 75.7083C230.082 73.178 231.769 69.8044 230.926 67.2742C230.267 65.2983 226.24 62.5882 224.834 60.7144C223.816 59.3571 223.287 57.2222 222.492 56.0288C220.867 53.5911 213.983 53.4892 211.715 54.6232C210.086 55.4377 208.317 58.7225 207.029 57.4345C205.403 55.8082 202.759 55.2458 201.407 53.2175C195.125 43.7948 207.939 39.7065 195.315 32.1324C192.176 30.2488 189.888 25.7941 186.413 24.6355C181.601 23.0317 172.52 28.524 170.482 32.601C169.104 35.3573 171.977 40.5665 171.419 40.5665C168.167 40.5665 155.068 38.6597 152.208 40.5665C142.67 46.9249 150.485 50.7795 147.054 56.4974C146.86 56.8207 145.692 59.7481 145.648 59.7773C143.473 61.2272 141.356 64.266 139.088 65.4C133.956 67.9661 129.771 60.0319 127.375 69.617C126.965 71.2566 126.552 74.0623 127.375 75.7083C127.9 76.7595 130.616 76.569 131.123 77.5825C131.733 78.8018 132.117 82.5309 133.466 83.2052C135.17 84.0571 139.148 85.1977 140.026 86.9536C140.561 88.0251 136.428 90.8532 137.683 92.1078C138.724 93.1486 142.519 92.2586 143.305 93.0449C143.998 93.7374 145.059 95.7356 146.117 96.7933C147.263 97.9399 155.248 103.898 156.425 104.29C159.835 105.427 161.114 108.979 161.111 108.976C158.503 106.368 136.923 103.644 134.403 106.164C133.312 107.255 131.641 110.232 131.123 111.787C130.382 114.011 129.804 123.206 130.186 123.97C130.959 125.515 132.633 126.052 133.466 127.718C134.883 130.553 130.655 133.575 129.249 135.684C128.54 136.746 137.914 149.972 139.088 151.146C139.753 151.81 143.187 154.954 144.243 154.426C145.878 153.608 148.104 151.259 149.397 152.552C151.845 155 151.207 158.707 151.271 158.643C152.151 157.762 151.678 156.677 150.802 155.363Z" fill="#2DA82D"/>
<path d="M188.756 220.961C190.314 224.504 192.859 232.384 195.315 233.612C197.442 234.675 201.793 232.308 203.749 233.612C205.096 234.51 205.916 235.896 207.498 236.423C209.719 237.164 213.146 234.879 214.058 235.486C214.767 235.959 217.862 237.801 218.743 237.361C220.795 236.335 223.996 229.95 225.303 227.989C225.658 227.457 230.243 233.478 230.457 234.549C231.342 238.972 236.074 243.64 241.703 242.515C245.996 241.656 247.789 235.506 248.731 231.738C249.187 229.913 247.319 226.115 249.199 226.115C249.98 226.115 250.053 227.437 250.605 227.989C251.717 229.101 253.48 229.661 254.822 230.332C256.563 231.203 259.875 228.91 261.382 228.458C263.265 227.893 267.359 227.635 268.879 226.115C272.645 222.349 275.505 211.659 276.376 206.436C276.943 203.031 270.556 198.273 267.942 195.659C266.377 194.094 269.97 190.813 268.879 188.631C266.735 184.344 260.097 188.283 258.571 186.756C257.683 185.868 257.384 182.759 256.228 181.602C255.104 180.479 261.981 164.995 259.976 160.986C258.927 158.887 257.495 158.105 255.759 157.237C254.992 156.853 257.165 152.468 257.165 152.083C257.165 149.229 254.334 148.275 253.885 146.929C253.159 144.75 254.779 141.944 253.416 139.901C251.545 137.093 249.316 137.675 247.325 135.684C239.902 128.26 226.499 124.543 216.4 129.592C215.276 130.154 210.585 125.472 207.966 126.781C205.292 128.118 208.855 136.645 207.029 137.558C202.067 140.039 197.442 142.676 194.847 147.866C194.156 149.248 194.651 151.909 193.91 153.02C192.602 154.981 190.277 155.599 189.224 157.706C188.407 159.339 189.808 162.046 189.224 163.797C188.366 166.371 186.424 168.418 185.944 171.294C185.366 174.761 189.817 178.074 188.756 180.197C186.716 184.276 177.956 184.458 176.104 188.162C174.84 190.691 180.661 194.463 181.727 196.596C187.305 207.751 174.286 216.138 188.756 220.961Z" fill="#268C26"/>
<path d="M46.3141 74.7711C41.8648 73.4511 37.7768 74.9223 36.9429 79.9253C36.6096 81.9253 37.7578 84.4275 38.8172 86.0165C39.3719 86.8486 41.3986 87.6522 40.6914 88.3593C39.6862 89.3645 35.5195 87.9085 34.6002 88.8279C30.0528 93.3752 44.9997 115.193 50.9997 113.193C53.6193 112.32 55.9214 108.972 57.0909 106.633C57.1201 106.575 56.8133 101.947 57.0909 101.947C57.2527 101.947 57.5525 103.822 58.4966 103.822C59.4034 103.822 56.4069 98.9562 62.7136 101.479C63.1726 101.663 65.7204 101.674 65.9935 101.947C71.4301 107.384 75.1242 114.478 83.7987 118.816C85.1652 119.499 85.7046 121.95 87.5471 122.564C92.0559 124.067 98.4443 113.956 99.7296 114.599C104.547 117.007 103.755 126.092 111.444 128.655C113.774 129.432 119.298 128.711 121.283 127.718C131.086 122.817 118.317 116.469 120.815 108.976C120.94 108.601 120.55 107.366 120.815 107.102C121.169 106.747 123.126 106.498 123.626 106.164C124.475 105.599 127.198 102.885 127.843 102.885C129.067 102.885 134.542 104.099 134.403 103.822C134.301 103.618 132.408 102.476 133.466 101.947C137.61 99.8756 143.765 100.551 147.522 96.7933C148.977 95.3385 146.24 91.3936 146.585 90.7021C148.963 85.9474 147.468 81.439 147.522 81.3309C148.32 79.7362 149.406 77.0669 149.865 74.7711C150.172 73.2396 145.657 71.7212 147.054 71.0227C148.873 70.1132 150.641 70.2066 152.677 68.6799C154.653 67.1978 157.787 58.7744 155.957 56.0289C153.907 52.9546 150.168 49.4635 147.054 47.5948C145.719 46.7938 139.598 45.3334 139.088 44.3149C137.321 40.7806 146.771 41.6938 149.397 37.7551C150.419 36.221 150.443 37.6458 151.271 36.818C152.363 35.7263 150.897 32.0378 151.271 31.6639C152.272 30.6631 153.815 28.0505 153.145 26.0412C152.544 24.2369 151.145 24.51 150.334 23.6984C149.685 23.05 150.642 19.9374 150.334 19.0128C149.866 17.608 147.293 17.3781 146.585 16.67C146.066 16.1507 146.98 13.9825 146.585 13.3901C144.546 10.3316 140.463 5.6873 137.683 4.01899C133.826 1.70507 122.58 -2.32214 119.409 4.01899C119.324 4.1898 119.057 7.24063 118.94 7.29888C118.23 7.65411 116.981 7.55574 116.598 8.70456C116.182 9.95162 117.305 12.3295 116.598 13.3901C115.794 14.5958 114.454 15.8024 113.786 17.1386C113.672 17.3671 113.87 20.4185 113.786 20.4185C112.361 20.4185 108.654 18.9691 107.695 20.8871C106.249 23.7787 108.68 33.7484 105.352 35.4123C102.561 36.8082 93.3895 35.9003 92.7013 36.818C91.695 38.1596 90.1495 43.916 88.9528 44.3149C81.3454 46.8507 74.4165 37.9949 69.2734 40.5665C67.591 41.4077 67.5351 46.6577 67.3992 46.6577C65.0109 46.6577 60.8048 45.0351 58.4966 46.1891C56.4563 47.2093 59.2188 51.3046 58.9651 51.8118C57.2048 55.3325 57.8006 62.816 55.2167 65.4C55.0085 65.6082 52.5169 65.4 52.4053 65.4C45.5543 65.4 45.2803 67.0808 47.7198 71.9598C48.2368 72.9939 46.3141 75.5611 46.3141 77.1139" fill="#39D139"/>
<path d="M38.3486 118.816C35.5664 118.744 26.8664 116.478 25.229 119.753C24.0507 122.109 28.6517 125.233 28.5089 125.375C27.2905 126.594 26.3987 125.615 25.6976 127.718C25.6072 127.989 25.9553 130.401 25.6976 130.529C21.323 132.717 10.3957 126.152 4.14393 132.404C2.74092 133.807 9.71476 135.424 10.7037 140.369C11.5286 144.493 12.4655 147.754 14.9207 150.209C16.5041 151.792 11.2224 161.086 12.578 163.797C13.4368 165.515 18.0221 163.942 19.6063 164.734C21.053 165.457 22.179 166.997 23.8233 167.545C24.2958 167.703 27.7749 166.038 28.5089 165.671C33.4605 163.195 24.223 151.146 26.1661 151.146C27.264 151.146 33.7912 157.449 35.5373 153.957C36.6986 151.635 36.9429 152.825 36.9429 149.272C36.9429 148.647 36.3182 147.398 36.9429 147.398C38.292 147.398 40.5151 148.54 42.0971 148.803C43.8581 149.097 44.778 147.91 46.3141 147.398C49.6944 146.271 52.1367 150.388 55.2167 148.335C55.7979 147.947 56.7035 147.979 57.0909 147.398C58.4326 145.385 54.2667 144.371 55.6852 142.243C56.2889 141.338 58.827 134.14 60.8394 136.152C63.2241 138.537 62.741 142.271 64.5878 144.118C66.757 146.287 69.307 148.368 71.1476 150.209C73.6622 152.723 67.9391 158.317 69.2734 160.986C70.2074 162.854 74.1596 161.722 75.3647 160.517C80.2583 155.623 74.1504 143.372 70.6791 139.901C69.749 138.97 72.0847 135.115 72.0847 133.809C72.0847 131.271 71.6488 130.562 70.2105 129.124C70.1445 129.058 69.2987 115.536 61.7765 115.536C53.8357 115.536 57.2426 119.443 54.7481 120.69C53.8487 121.139 51.8996 120.39 50.9997 120.69C49.5387 121.177 47.2159 125.375 45.8455 125.375C42.0987 125.375 41.2637 120.273 38.3486 118.816Z" fill="#39D139"/>
<path d="M144.243 19.9499C135.775 22.9902 144.038 26.5692 145.648 29.7896C145.91 30.3123 143.305 30.5282 143.305 32.6009C143.305 35.0904 144.689 39.3569 142.837 40.0979C142.152 40.3718 131.582 44.3055 132.997 45.7205C135.916 48.6392 139.986 47.985 141.9 51.8118C142.393 52.7984 136.753 54.6378 138.151 57.4345C139.664 60.4596 146.014 58.474 147.522 56.9659C147.877 56.611 147.252 55.0294 147.522 54.6231C150.797 49.7119 152.677 51.9111 152.677 57.4345C152.677 59.2073 152.332 61.4318 153.145 63.0572C153.397 63.5609 154.48 64.0646 154.082 64.4628C153.64 64.9046 152.801 64.2653 152.208 64.4628C151.013 64.8612 150.961 66.9605 150.334 67.2742C146.792 69.0453 143.257 71.815 144.711 76.1768C145.328 78.026 145.368 80.5353 147.054 81.7995C154.794 87.6044 159.692 68.6672 162.516 71.4912C164.749 73.7237 161.716 91.4732 162.048 91.6392C165.685 93.4576 166.742 89.2873 168.608 87.4222C169.551 86.4786 172.356 90.1623 172.356 88.8278C172.356 76.8836 173.499 81.1249 178.916 75.7082C180.44 74.1838 180.467 72.5091 182.664 71.9598C184.97 71.3833 185.325 76.0266 185.944 76.6453C188.624 79.3256 200.01 79.9348 202.812 82.7366C203.167 83.0915 202.344 84.6716 202.344 85.0794C202.344 85.7041 202.968 86.9536 202.344 86.9536C200.671 86.9536 205.447 80.5092 203.749 77.1139C202.048 73.7103 194.912 64.2612 191.567 62.5886C186.281 59.9456 183.721 66.7783 179.384 63.5257C177.054 61.7783 174.306 59.8151 171.419 58.3716C170.794 58.0592 169.232 58.0592 169.545 57.4345C170.6 55.3232 178.195 55.6443 179.853 55.0917C181.862 54.4221 180.977 50.7813 182.664 49.9376C183.548 49.4958 186.463 50.8747 185.476 50.8747C185.028 50.8747 187.65 49.0367 187.818 48.5319C188.793 45.6075 186.068 45.5724 189.224 44.7834C190.18 44.5443 185.368 40.2785 185.007 40.0979C182.407 38.7976 180.488 40.7329 177.979 38.2236C173.911 34.156 168.274 26.8115 162.985 24.1669C157.623 21.4859 146.209 25.8482 144.243 19.9499Z" fill="#39D139"/>
<path d="M192.504 130.998C180.159 122.428 184.933 144.315 186.413 145.055C188.698 146.197 192.393 143.374 194.378 142.712C197.265 141.75 196.657 144.65 199.064 142.243C200.306 141.002 204.686 137.991 204.686 138.495C204.686 143.364 200.137 150.813 203.749 154.426C205.664 156.34 207.029 160.253 207.029 159.58C207.029 157.241 211.029 156.409 213.12 155.363C214.442 154.702 210.651 147.511 214.526 148.803C216.354 149.413 217.494 150.014 219.68 149.74C220.861 149.593 221.771 148.335 222.96 148.335C223.472 148.335 218.487 155.531 220.149 160.517C220.668 162.075 227.312 163.495 228.583 162.86C230.26 162.021 230.354 155.546 232.8 156.769C236.22 158.479 238.005 174.523 246.388 166.14C247.773 164.755 247.144 164.181 248.262 162.391C255.61 150.634 249.535 152.174 244.982 144.586C242.62 140.65 234.863 139.432 236.548 139.432C240.492 139.432 258.538 124.896 248.731 121.627C247.82 121.323 246.308 122.055 245.451 121.627C243.156 120.479 242.09 117.956 239.36 117.41C236.57 116.852 234.134 119.681 232.331 117.878C230.114 115.662 227.563 111.065 224.366 108.507C223.391 107.727 216.435 105.661 215.463 106.633C212.333 109.764 218.177 116.277 219.212 118.347C220.411 120.745 217.233 121.263 216.4 122.095C215.502 122.994 215.617 126.473 214.995 127.718C213.98 129.748 206.577 129.754 204.686 129.124C199.499 127.395 204.331 126.651 204.218 126.312C204.061 125.841 202.152 121.957 202.812 121.627C205.047 120.51 206.267 118.405 201.875 116.941C201.317 116.755 186.742 122.286 188.287 125.375C189.376 127.554 191.732 127.909 192.504 130.998Z" fill="#39D139"/>
<path d="M56.1538 157.706C54.2937 160.649 53.6093 167.409 54.7481 170.825C55.389 172.748 58.1872 173.336 58.4966 174.574C59.7009 179.391 60.8724 182.572 64.5878 186.288C66.7951 188.495 69.6892 191.181 73.0218 192.848C77.8333 195.253 74.3921 184.811 76.3017 188.631C77.2087 190.445 79.0792 192.839 80.9873 193.316C90.2366 195.629 86.9057 182.366 90.3585 185.819C91.8383 187.299 91.7675 190.515 92.7012 193.316C93.3437 195.243 97.0218 195.398 97.8554 197.065C99.6103 200.574 102.186 208.48 103.947 211.121C104.946 212.62 107.179 213.417 108.164 214.401C109.596 215.833 114.387 211.519 113.786 209.716C113.221 208.019 111.444 205.742 111.444 204.093C111.444 203.208 113.517 199.619 113.786 198.002C113.965 196.931 112.465 193.701 113.318 192.848C114.978 191.188 115.146 194.438 116.129 190.505C116.549 188.825 115.127 184.708 116.598 184.414C117.527 184.228 122.593 182.912 123.157 183.476C123.816 184.135 123.521 185.714 124.563 186.756C125.053 187.246 127.192 187.042 127.843 187.694C128.976 188.827 129.434 190.597 131.123 191.442C133.55 192.655 137.851 192.335 140.026 193.785C143.781 196.288 141.111 198.196 147.054 198.939C148.822 199.16 151.306 200.489 153.145 199.876C155.176 199.199 146.689 193.655 148.928 185.819C151.869 175.525 152.823 180.987 154.551 179.259C155.269 178.541 157.208 174.574 158.299 174.574C158.613 174.574 160.069 175.616 160.642 175.042C160.707 174.977 159.705 160.922 159.705 159.58C159.705 158.724 163.427 154.752 163.922 153.02C164.46 151.137 163.538 147.696 164.391 145.992C165.289 144.195 173.473 143.217 175.636 141.775C177.588 140.473 176.919 137.681 177.979 136.621C178.211 136.388 177.979 134.607 177.979 134.278C177.979 127.325 168.603 126.312 163.922 126.312C163.297 126.312 163.643 124.997 163.922 124.438C165.536 121.21 176.173 119.89 173.293 114.13C172.894 113.332 170.745 112.519 170.013 111.787C167.401 109.175 165.608 105.976 163.453 103.822C160.406 100.774 148.443 96.3248 145.18 96.3248C143.24 96.3248 137.455 91.1707 132.997 91.1707C129.915 91.1707 126.631 90.9314 124.095 93.0449C123.665 93.403 120.983 96.9618 120.815 96.7934C113.272 89.2511 105.838 93.7565 104.415 93.0449C98.2411 89.9579 92.7297 84.7488 85.2043 83.6738C81.2973 83.1156 79.807 84.3084 75.3646 83.6738C71.7383 83.1557 67.6516 82.6284 64.1193 84.1423C60.2002 85.8219 62.9069 91.3083 61.3079 92.1078C58.2312 93.6462 54.5945 93.2753 51.9368 97.2619C50.8811 98.8455 51.7736 103.462 50.5311 104.29C46.9895 106.651 42.8139 108.259 39.7543 111.319C38.2275 112.845 44.4948 120.745 45.377 121.627C50.0862 126.336 45.3952 129.665 46.7826 135.215C48.1177 140.555 52.5955 143.092 54.7481 147.398C57.0399 151.981 53.3711 153.996 56.1538 157.706Z" fill="#39D139"/>
<defs>
<radialGradient id="paint0_radial_2_561" cx="0" cy="0" r="1" gradientUnits="userSpaceOnUse" gradientTransform="translate(140.704 371.77) scale(140.295 22.269)">
<stop/>
<stop offset="1" stop-opacity="0"/>
</radialGradient>
</defs>
</svg>
