<svg width="73" height="103" viewBox="0 0 292 411" fill="none" xmlns="http://www.w3.org/2000/svg">
<path d="M156.72 410.892C215.589 410.892 263.313 404.809 263.313 397.305C263.313 389.801 215.589 383.718 156.72 383.718C97.8499 383.718 50.1266 389.801 50.1266 397.305C50.1266 404.809 97.8499 410.892 156.72 410.892Z" fill="url(#paint0_radial_2_610)"/>
<path d="M137.391 387.545C135.095 387.545 126.675 387.162 122.464 389.841C118.254 392.521 114.81 396.731 118.637 397.113C122.464 397.496 122.082 395.582 127.823 398.262C133.564 400.941 133.947 402.472 138.157 400.941C142.367 399.41 140.836 396.731 145.812 399.793C150.787 402.855 153.466 399.793 160.356 401.706C167.245 403.62 169.159 405.151 175.282 404.386C181.406 403.62 181.406 400.558 185.999 398.644C190.592 396.731 194.419 396.731 189.444 393.286C184.468 389.841 182.937 387.545 176.431 386.779C169.924 386.014 161.887 385.249 159.207 385.249C156.528 385.249 146.577 385.631 146.577 385.631L137.391 387.545Z" fill="#2B9B2B"/>
<path d="M19.8661 101.491C19.8661 101.491 -26.6837 157.783 23.1137 180.517C72.911 203.251 74.5349 210.287 74.5349 210.287C74.5349 210.287 76.7 239.516 94.0208 236.81C111.342 234.103 111.342 238.975 124.332 235.186C137.323 231.397 136.24 214.076 139.488 213.535C142.736 212.993 147.607 212.452 150.313 205.957C153.02 199.462 152.479 176.187 169.799 179.434C187.12 182.682 204.441 177.811 214.725 172.398C225.01 166.985 236.376 164.82 243.954 158.866C251.532 152.912 254.78 145.875 246.661 129.096C238.541 112.316 238.541 110.692 238.541 110.692C238.541 110.692 279.678 94.4541 258.027 71.7205C236.376 48.987 235.835 45.1981 212.56 34.9138C189.285 24.6296 181.166 18.1343 181.166 18.1343C181.166 18.1343 137.323 -20.8376 117.296 15.9692C116.213 19.2168 77.2413 -0.269088 63.1681 17.593C49.0949 35.4551 62.0856 49.5283 57.2141 51.6934C52.3426 53.8585 -5.57391 43.5742 19.8661 101.491Z" fill="#278B27"/>
<path d="M252.907 66.2851C258.128 107.009 217.973 98.7845 217.973 98.7845C217.973 98.7845 228.798 118.27 218.514 125.307C208.23 132.344 218.514 100.949 188.203 125.848C157.891 150.747 169.258 124.224 161.139 127.472C153.02 130.72 143.277 124.224 126.497 130.72C109.718 137.215 103.764 110.692 104.846 135.591C105.929 160.49 82.1128 149.123 82.1128 149.123C82.1128 149.123 76.1588 155.077 63.7094 161.031C51.2601 166.985 50.7187 151.829 49.0949 151.288C31.1351 169.248 11.1931 159.163 0.186401 150.778C0.915749 162.18 6.91822 173.123 23.1137 180.517C72.911 203.251 74.5349 210.287 74.5349 210.287C74.5349 210.287 76.7001 239.516 94.0209 236.81C111.342 234.103 111.342 238.975 124.332 235.186C137.323 231.397 136.24 214.076 139.488 213.535C142.736 212.994 147.607 212.452 150.313 205.957C153.02 199.462 152.479 176.187 169.799 179.434C187.12 182.682 204.441 177.811 214.725 172.398C225.01 166.985 236.376 164.82 243.954 158.866C251.532 152.912 254.78 145.875 246.661 129.096C238.541 112.316 238.541 110.692 238.541 110.692C238.541 110.692 279.678 94.4542 258.027 71.7206C256.171 69.7717 254.48 67.9716 252.907 66.2851Z" fill="#207420"/>
<path d="M136.782 387.826C136.782 387.826 143.277 380.789 145.983 368.881C148.69 356.973 147.607 352.101 148.148 340.735C148.69 329.368 148.69 324.496 147.066 316.377C145.442 308.258 147.607 310.423 142.194 303.387C136.782 296.35 123.25 288.231 114.589 281.735C105.929 275.24 115.131 286.607 102.14 270.91C89.1493 255.213 63.1681 242.222 63.1681 242.222L66.4157 237.892C66.4157 237.892 78.3238 244.929 82.654 247.094C86.9842 249.259 85.3604 247.094 83.1953 242.222C81.0302 237.351 77.2413 233.021 73.4523 228.149C69.6634 223.278 69.1221 224.36 68.0396 218.948C66.957 213.535 66.4157 212.994 66.4157 212.994L70.2047 211.911C70.2047 211.911 72.3698 220.03 76.7 225.984C81.0302 231.938 84.2778 237.892 85.9017 240.599C87.5255 243.305 88.6081 245.47 91.3144 249.259C94.0208 253.048 96.7272 260.626 104.846 266.58C112.965 272.534 107.553 267.121 122.167 278.488C136.782 289.855 134.616 292.561 140.029 293.102C145.442 293.644 150.313 299.598 150.855 269.827C151.396 240.057 153.02 236.268 149.772 226.525C146.525 216.782 147.066 210.287 134.616 201.085C122.167 191.884 115.672 189.719 112.965 182.682C110.259 175.645 103.222 165.361 101.599 160.49C99.9748 155.618 93.4795 141.545 93.4795 141.545L96.7272 138.297C96.7272 138.297 101.057 149.123 108.635 161.572C116.213 174.022 115.131 177.811 121.626 182.682C128.121 187.554 132.993 191.884 136.782 194.049C140.571 196.214 148.69 203.792 151.937 203.792C155.185 203.792 156.268 196.214 162.222 184.847C168.176 173.48 168.717 174.022 172.506 164.279C176.295 154.536 177.377 149.664 176.295 144.251C175.212 138.839 173.588 117.188 173.588 117.188L178.46 116.646C178.46 116.646 187.12 147.499 184.955 153.994C182.79 160.49 171.965 183.223 169.258 188.636C166.552 194.049 164.928 197.838 164.387 201.085C163.845 204.333 159.515 195.131 158.974 215.159C158.433 235.186 161.139 247.635 161.139 249.8C161.139 251.965 161.68 263.873 162.222 270.369C162.763 276.864 161.68 288.231 161.68 288.231C161.68 288.231 164.387 288.231 173.047 282.277C181.707 276.323 186.579 269.827 197.946 262.25C209.313 254.672 212.019 251.965 214.725 244.929C217.432 237.892 220.138 232.479 220.679 228.691C221.221 224.902 219.055 221.113 223.386 215.7C227.716 210.287 234.211 210.287 234.211 210.287C234.211 210.287 229.881 215.159 228.257 220.03C226.633 224.902 224.468 229.773 224.468 231.938C224.468 234.103 225.551 236.268 221.762 243.305C217.973 250.342 216.89 254.13 211.478 260.084C206.065 266.038 203.9 267.662 199.028 272.534C194.157 277.405 181.707 286.066 181.707 286.066L180.625 287.148C180.625 287.148 191.992 286.066 200.652 285.524C209.313 284.983 212.56 283.901 219.597 280.653C226.633 277.405 230.422 273.075 236.918 266.58C243.413 260.084 244.495 254.672 245.037 248.176C245.578 241.681 243.954 235.186 246.119 231.938C248.284 228.691 250.449 224.902 250.449 224.902C250.449 224.902 256.945 224.36 254.78 227.608C252.615 230.856 249.908 237.892 249.908 242.222C249.908 246.553 248.826 253.048 247.202 256.296C245.578 259.543 243.413 266.58 237.459 273.616C231.505 280.653 230.422 282.818 222.844 286.066C215.267 289.313 214.725 291.478 207.689 291.478C200.652 291.478 194.698 290.937 187.662 292.561C180.625 294.185 179.542 295.267 179.542 295.267L169.799 302.304L165.469 310.964C165.469 310.964 160.598 336.404 162.222 349.936C163.845 363.468 168.176 373.211 168.717 378.083C169.258 382.954 175.212 388.908 173.588 394.321C171.965 399.734 172.506 399.734 161.68 396.486C150.855 393.238 158.433 392.156 148.148 393.78C137.864 395.403 137.323 395.403 137.323 395.403C137.323 395.403 138.405 393.238 130.286 393.78C122.167 394.321 134.075 389.449 136.782 387.826Z" fill="#A05A2C"/>
<path opacity="0.558" d="M178.73 127.743C176.295 127.743 178.46 128.825 179.542 140.733C180.625 152.641 181.166 148.041 179.542 153.183C177.918 158.325 178.189 159.949 174.942 169.421C171.694 178.893 163.845 189.989 161.139 196.214C158.433 202.439 154.644 209.205 153.561 217.053C152.479 224.902 155.456 228.691 155.997 233.021C156.538 237.351 156.538 240.599 157.891 250.883C159.245 261.167 157.891 270.91 157.35 275.511C156.809 280.112 155.185 287.419 156.268 293.102C157.294 298.491 159.051 291.232 161.767 287.234C162.008 284.416 162.671 275.76 162.222 270.369C161.68 263.873 161.139 251.965 161.139 249.8C161.139 247.635 158.433 235.186 158.974 215.159C159.515 195.131 163.845 204.333 164.387 201.086C164.928 197.838 166.552 194.049 169.258 188.636C171.965 183.223 182.79 160.49 184.955 153.994C186.259 150.084 183.638 137.348 181.346 127.828C180.351 127.766 179.42 127.743 178.73 127.743ZM96.4565 141.274L93.5758 141.755C94.086 142.863 100.044 155.826 101.599 160.49C103.223 165.361 110.259 175.645 112.966 182.682C115.672 189.719 122.167 191.884 134.616 201.086C142.996 207.279 145.489 212.247 147.214 217.804C147.606 215.255 147.609 212.349 146.525 209.746C143.818 203.251 144.63 207.04 140.029 202.98C135.428 198.92 133.534 198.379 126.768 193.508C120.002 188.636 121.355 188.907 115.942 182.141C110.53 175.375 111.612 174.022 107.553 167.526C103.493 161.031 96.4565 141.274 96.4565 141.274ZM249.877 243.561C248.785 244.323 247.695 245.247 246.661 246.282C243.413 249.53 246.661 249.259 246.661 252.236C246.661 254.353 247.892 253.323 248.311 253.33C249.17 250.377 249.741 246.624 249.877 243.561ZM77.7825 245.741L73.8029 248.199C82.4923 253.47 94.5377 261.724 102.14 270.91C115.131 286.607 105.929 275.24 114.589 281.736C122.37 287.571 134.083 294.718 140.307 301.212C139.431 298.866 137.895 297.845 135.699 294.185C133.263 290.125 133.805 292.832 130.557 289.855C127.309 286.878 127.58 287.96 122.979 284.983C118.378 282.006 117.837 281.194 113.777 277.947C109.718 274.699 107.282 273.346 104.576 270.91C101.869 268.474 94.5621 261.167 91.5851 257.107C88.6081 253.048 79.4064 247.365 77.7825 245.741ZM247.384 255.91C246.317 257.667 244.669 259.725 242.872 262.52C240.436 266.309 240.436 265.768 238 269.827C235.564 273.887 236.376 272.805 232.587 277.947C228.798 283.089 225.28 282.277 218.514 284.983C211.748 287.69 212.019 287.148 203.9 288.772C195.781 290.396 198.216 289.043 191.45 290.125C184.684 291.208 177.377 292.02 174.671 292.561C171.965 293.102 168.987 294.455 164.387 300.139C159.786 305.822 158.162 313.13 155.185 323.955C152.208 334.781 155.456 336.675 157.35 352.101C159.245 367.528 160.056 367.257 159.786 378.624C159.556 388.273 157.182 391.681 156.469 394.478C157.443 395.008 158.995 395.68 161.68 396.486C172.506 399.734 171.965 399.734 173.588 394.321C175.212 388.908 169.258 382.954 168.717 378.083C168.176 373.211 163.845 363.468 162.222 349.936C160.598 336.404 165.469 310.965 165.469 310.965L169.799 302.304L179.542 295.267C179.542 295.267 180.625 294.185 187.661 292.561C194.698 290.937 200.652 291.479 207.689 291.479C214.725 291.479 215.267 289.313 222.845 286.066C230.422 282.818 231.505 280.653 237.459 273.616C243.413 266.58 245.578 259.543 247.202 256.296C247.264 256.172 247.324 256.042 247.384 255.91Z" fill="black"/>
<path d="M46.3886 179.435C46.3886 179.435 36.1043 168.068 29.609 180.517C23.1137 192.966 2.54522 203.792 18.2422 222.737C19.3248 224.902 -0.16115 244.929 17.7009 257.378C35.563 269.828 42.5996 277.405 55.5902 269.828C68.5809 262.25 56.6728 261.167 75.0762 255.754C93.4795 250.342 111.342 240.599 102.681 227.067C94.0208 213.535 116.754 208.663 97.2685 192.966C77.7825 177.269 69.6634 184.847 66.957 179.976C64.2507 175.104 55.049 170.774 46.3886 179.435Z" fill="#37C537"/>
<path d="M57.1101 174.475C53.7921 174.439 50.0422 175.781 46.3886 179.435C46.3886 179.435 36.1044 168.068 29.609 180.517C23.1137 192.966 2.54526 203.792 18.2423 222.737C19.2308 224.714 3.06756 241.586 13.8563 253.981C15.0261 246.305 18.9396 231.255 31.7512 229.236C30.8093 229.045 10.0165 192.929 53.4251 189.178C57.214 190.26 64.2507 176.728 73.4524 186.471C79.5972 192.977 88.6346 192.482 95.092 191.275C77.1737 177.833 69.5602 184.662 66.957 179.976C65.3924 177.16 61.6569 174.524 57.1101 174.475ZM31.7512 229.236C31.7607 229.239 31.7688 229.236 31.7742 229.232C31.7665 229.232 31.7589 229.235 31.7512 229.236Z" fill="#3FE43F"/>
<path d="M104.898 233.137C103.237 234.189 101.419 235.404 99.4336 236.81C86.4429 246.011 81.5715 229.232 71.2873 242.764C61.003 256.296 49.6362 236.268 49.6362 236.268L46.9299 250.883C45.016 261.218 32.5517 262.348 24.6466 262.316C37.6496 271.65 44.4333 276.336 55.5902 269.828C68.5808 262.25 56.6728 261.167 75.0762 255.754C90.6006 251.188 105.74 243.541 104.898 233.137Z" fill="#2B9B2B"/>
<path d="M197.746 191.395C197.746 191.395 176.734 189.527 173.466 202.601C170.198 215.674 164.128 215.674 166.462 228.281C168.797 240.888 180.003 236.686 181.87 241.355C183.738 246.024 184.672 261.432 202.882 256.296C221.091 251.16 215.955 262.833 230.43 261.432C244.904 260.031 243.97 248.359 251.908 246.491C259.845 244.623 256.577 262.366 269.651 246.491C282.724 230.616 278.055 218.943 283.191 216.141C288.327 213.34 295.331 215.208 289.261 205.402C283.191 195.597 291.129 183.457 271.518 178.321C251.908 173.185 249.106 157.777 239.301 157.777C229.496 157.777 225.761 158.711 225.761 161.045C225.761 163.38 189.808 151.24 197.746 191.395Z" fill="#36C136"/>
<path d="M239.301 157.777C229.496 157.777 225.761 158.711 225.761 161.045C225.761 163.38 189.808 151.24 197.746 191.395C197.746 191.395 176.734 189.527 173.466 202.601C170.198 215.675 164.128 215.674 166.462 228.281C167.738 235.171 171.663 237.038 175.266 238.079L175.212 237.892C175.212 237.892 172.506 214.076 186.579 214.617L200.652 215.159C200.652 215.159 189.285 212.452 198.487 203.792C207.689 195.131 204.441 169.15 220.138 173.48L235.835 177.811C235.835 177.811 238 166.985 249.367 175.104C260.734 183.223 260.192 184.847 268.853 179.434C269.578 178.981 270.245 178.553 270.868 178.145C251.845 172.842 248.997 157.777 239.301 157.777Z" fill="#3FE43F"/>
<path d="M289.522 205.831C287.368 210.197 285.352 213.516 283.478 215.991C288.505 213.444 295.018 214.978 289.522 205.831ZM265.605 214.076C265.605 214.076 264.523 229.232 258.027 233.562C251.532 237.892 249.908 222.195 235.835 233.021C221.762 243.846 209.854 216.783 209.854 216.783L208.23 230.314C206.606 243.846 183.873 240.599 183.873 240.599C183.873 240.599 182.866 241.97 182.322 242.711C184.008 248.422 186.168 261.011 202.882 256.296C221.091 251.16 215.955 262.833 230.43 261.432C244.904 260.032 243.97 248.359 251.908 246.491C259.845 244.623 256.577 262.366 269.651 246.491C280.161 233.728 279.205 223.683 281.094 218.779C270.943 229.086 265.605 214.076 265.605 214.076Z" fill="#2B9B2B"/>
<path d="M142.73 7.19024C133.652 7.20137 124.793 11.2161 118.378 23.0057C117.296 26.2533 78.3238 6.76764 64.2507 24.6297C50.1775 42.4918 63.1681 56.5648 58.2966 58.7299C53.4251 60.895 -4.49133 50.6108 20.9486 108.527C20.9486 108.527 18.2913 111.744 14.9272 116.942C16.0336 117.69 17.1409 118.322 18.2422 118.812C32.8566 125.307 3.08647 162.114 48.5536 138.298H51.2601C51.2601 138.298 67.4983 162.655 83.1953 135.591C85.3604 134.509 79.9477 145.875 85.3604 147.499C90.7732 149.123 94.0207 159.407 99.4335 148.582C104.846 137.756 105.929 133.967 105.929 133.967C105.929 133.967 107.011 155.077 125.415 146.958C143.818 138.839 143.818 123.142 143.818 123.142L156.177 120.176C156.609 120.921 158.384 122.641 163.304 126.389C174.671 135.05 184.955 141.004 190.909 128.555C196.863 116.105 178.46 101.491 178.46 101.491C178.46 101.491 194.698 102.573 200.111 103.656C205.524 104.738 206.606 114.481 212.019 100.408C217.432 86.3351 201.735 77.6747 219.055 75.5096C236.376 73.3445 239.624 73.3445 241.248 67.3904C241.736 65.5998 241.929 63.122 241.918 60.4172C234.139 52.4697 228.555 48.5396 213.643 41.9503C190.368 31.6661 182.249 25.1708 182.249 25.1708C182.249 25.1708 161.994 7.16686 142.73 7.19024Z" fill="#31AF31"/>
<path d="M141.648 0.153679C132.569 0.164812 123.711 4.17947 117.296 15.9691C116.213 19.2168 77.2413 -0.268986 63.1681 17.5931C49.095 35.4552 62.0856 49.5281 57.2141 51.6933C52.3426 53.8584 -5.57385 43.5742 19.8661 101.491C19.8661 101.491 19.547 101.881 19.0238 102.556L20.4072 102.573C20.4072 102.573 14.9946 82.5461 34.4805 74.9682C53.9664 67.3904 36.6456 58.1887 72.9111 57.6473C87.5256 57.1061 56.6727 19.2169 96.1858 23.0058C135.699 26.7948 137.864 6.76749 147.607 10.5564C157.35 14.3453 160.057 25.1709 181.166 22.4645C183.156 22.2093 184.958 21.9688 186.59 21.7421C182.773 19.4176 181.166 18.1343 181.166 18.1343C181.166 18.1343 160.912 0.130234 141.648 0.153679Z" fill="#3FE43F"/>
<defs>
<radialGradient id="paint0_radial_2_610" cx="0" cy="0" r="1" gradientUnits="userSpaceOnUse" gradientTransform="translate(156.72 397.305) scale(106.593 13.5872)">
<stop/>
<stop offset="1" stop-opacity="0"/>
</radialGradient>
</defs>
</svg>
