<svg width="79" height="98" viewBox="0 0 316 392" fill="none" xmlns="http://www.w3.org/2000/svg">
<path opacity="0.513" d="M36.7747 348.539C33.7468 348.542 30.2408 348.258 27.6524 349.552C21.7659 352.496 34.7276 361.213 17.0098 364.756C15.2027 365.118 -1.17348 368.872 0.79233 370.838C9.33657 379.382 20.6705 377.933 33.734 377.933C34.7007 377.933 35.9333 376.752 37.2815 377.426C47.8208 382.696 48.7007 391.296 63.6348 387.562C65.8575 387.006 65.0195 390.164 67.1824 389.082C71.4288 386.959 87.1206 380.862 92.0153 382.494C97.1175 384.195 101.047 386.653 106.712 388.069C110.432 388.999 116.971 386.863 120.396 388.576C122.106 389.431 126.286 390.271 129.011 389.589C133.899 388.367 135.632 385.123 141.174 384.014C148.595 382.53 153.077 387.432 157.392 389.589C163.045 392.416 170.463 385.334 175.13 383.001C175.945 382.593 213.055 383.818 213.646 384.014C219.897 386.098 224.383 389.106 230.37 390.603C235.978 392.005 246.525 390.728 249.122 385.535C251.291 381.196 248.51 381.586 253.176 376.919C253.881 376.215 252.78 373.767 253.683 372.865C254.949 371.599 274.616 375.322 278.516 373.372C281.611 371.824 285.047 370.106 287.638 368.811C287.79 368.734 288.145 367.142 288.145 366.783C288.145 360.589 282.837 362.996 279.022 359.182C277.269 357.428 272.584 355.903 269.9 354.114C266.422 351.795 264.018 346.983 260.271 344.484C250.027 337.655 229.902 322.196 218.714 319.145C186.235 310.287 150.449 309.94 117.355 314.077C105.063 315.613 74.3129 315.562 65.1552 324.72C55.5038 334.371 51.1809 348.539 36.7747 348.539Z" fill="black"/>
<path d="M30.6932 339.417C29.2448 344.242 32.3635 342.607 34.7475 344.991C38.0204 348.264 31.3624 353.951 30.1863 355.127C29.6179 355.696 36.1107 360.038 36.2679 360.195C41.2936 365.221 45.8817 372.343 50.4581 376.919C57.0453 383.506 68.671 367.449 77.3182 370.331C80.2821 371.319 89.6656 370.008 91.5085 371.851C93.2569 373.6 95.2617 377.326 98.6036 378.44C102.774 379.83 108.136 378.07 112.287 379.453C115.237 380.436 121.184 384.381 124.957 382.494C127.386 381.28 128.068 378.369 129.518 376.919C129.815 376.623 129.258 373.879 130.025 373.879C139.683 373.879 148.224 379.607 156.885 382.494C162.989 384.529 165.879 377.555 169.048 374.385C173.033 370.401 186.239 378.622 191.347 376.919C194.897 375.736 196.889 372.876 199.962 371.851C203.343 370.725 209.173 375.95 211.112 376.919C215.949 379.338 222.686 375.372 227.329 376.919C229.627 377.685 234.64 380.83 237.465 378.947C241.057 376.552 243.289 374.137 245.574 371.851C247.302 370.123 244.071 362.467 246.588 361.209C248.803 360.101 257.704 362.696 259.257 364.249C259.693 364.685 262.703 364.249 263.312 364.249C276.554 364.249 276.39 361.511 286.117 356.648C288.018 355.697 292.285 358.589 293.719 357.154C300.356 350.518 272.271 350.681 271.927 350.566C267.408 349.06 263.604 347.871 259.764 344.991C243.153 332.533 224.169 324.773 205.03 317.118C194.601 312.946 184.169 314.17 173.102 313.063C168.386 312.592 163.363 311.135 158.912 310.022C146.132 306.827 112.081 314.903 96.5764 317.118C90.2302 318.024 83.7125 317.043 77.3182 317.624C63.2162 318.906 42.1097 325.466 33.7339 333.842C32.5857 334.99 32.1007 337.54 30.6932 339.417Z" fill="#124012"/>
<path d="M144.867 2.99159C143.282 0.115851 138.683 -1.01023 136.864 2.62783C134.427 7.50242 144.149 36.6652 141.619 39.1953C140.809 40.0055 139.842 43.1142 139.073 44.6517C138.23 46.3376 134.335 46.1252 133.616 47.5617C132.577 49.6406 138.441 51.3334 137.254 51.9268C136.739 52.1845 135.955 52.4987 135.435 53.0181C134.255 54.1983 134.637 55.7815 132.889 56.6557C129.928 58.1361 112.852 63.2332 112.518 63.5671C109.756 66.3291 129.596 68.6219 129.979 69.3872C130.837 71.1038 125.496 72.9018 124.522 73.3885C120.778 75.2609 125.146 75.7785 124.159 77.7536C123.263 79.5442 118.775 82.0457 117.247 83.5737C116.964 83.8566 115.262 83.9647 114.701 84.3013C107.849 88.4127 101.217 88.9453 93.603 90.8489C92.6145 91.096 88.0262 90.9694 87.4192 91.5764C86.0593 92.9363 89.5877 97.9352 90.693 98.4878C93.5643 99.9235 98.9909 97.5557 101.606 97.0328C102.161 96.9218 116.796 99.0393 117.247 99.9428C117.387 100.223 116.633 101.309 116.52 101.762C115.808 104.608 113.247 105.398 111.791 106.854C111.17 107.476 111.87 109.1 111.427 109.764C107.283 115.98 96.3519 119.717 89.6017 121.405C87.3729 121.962 76.6648 123.335 77.5977 126.133C78.0058 127.358 78.2459 128.094 79.4165 128.68C81.1335 129.538 85.6478 126.908 87.0554 128.316C92.0658 133.326 103.696 127.542 110.336 130.862C113.642 132.515 110.11 137.912 112.155 139.956C112.872 140.674 115.667 141.65 115.792 141.775C117.202 143.184 117.543 145.561 119.43 146.504C121.08 147.329 117.123 151.604 116.884 152.324C116.439 153.658 117.584 153.361 117.975 154.143C120.026 158.246 116.922 164.252 115.429 167.238C114.19 169.715 85.7545 183.32 81.9628 181.425C79.764 180.325 70.8478 176.952 68.5038 178.515C64.6115 181.109 62.0117 182.497 57.591 183.971C55.7283 184.592 42.6621 190.853 44.132 193.792C45.2701 196.069 48.6082 195.722 50.3159 197.43C56.9943 204.108 69.5501 202.737 78.689 201.431C81.9146 200.97 86.0416 199.21 88.8742 197.794C89.2287 197.616 90.5362 198.521 91.0568 198.521C99.0166 198.521 94.7488 209.27 93.603 212.708C93.1866 213.957 97.3844 218.796 93.9668 221.074C90.6938 223.256 88.0515 227.282 83.7816 228.349C82.1163 228.766 80.0363 228.499 78.3252 228.713C70.0423 229.748 61.9819 236.326 56.4997 241.808C56.3141 241.994 56.2187 243.743 56.136 243.991C55.9735 244.478 55.0447 245.686 55.0447 246.173C55.0447 247.117 68.0873 250.069 68.5038 250.902C69.2217 252.338 66.7538 254.038 66.3212 254.904C65.3535 256.839 66.8686 258.403 65.5937 259.996C63.7587 262.29 62.4706 264.002 60.1373 265.816C55.9424 269.079 51.0981 271.329 46.3145 273.455C43.7043 274.615 36.8651 273.083 35.038 274.91C31.764 278.184 25.7418 278.858 21.2152 280.367C20.4653 280.617 13.154 282.491 14.3038 283.641C15.7638 285.101 16.0957 281.229 16.1226 281.094C15.2356 283.907 14.2074 284.243 12.9582 285.492C12.4784 285.972 13.8117 286.773 13.987 287.035C17.6035 292.46 30.4482 291.15 31.9921 292.694C34.048 294.75 27.4208 301.322 26.8478 302.468C26.5353 303.093 30.3505 305.873 30.9633 307.098C34.5492 314.27 11.9552 328.408 9.35714 332.305C8.73245 333.242 3.76609 339.575 4.72726 340.536C4.96043 340.77 7.50996 340.975 7.81385 341.051C9.36654 341.439 27.28 344.734 27.3622 344.652C28.3966 343.617 28.117 342.988 29.9344 342.08C31.0057 341.544 37.1908 336.99 38.1653 337.964C43.8502 343.649 31.7424 352.119 35.5932 355.969C37.5494 357.925 42.8602 357.288 45.3673 358.541C47.0785 359.397 47.5142 365.318 48.9683 366.772C49.8171 367.621 51.369 366.772 52.5694 366.772C54.9349 366.772 58.2576 367.272 60.2858 366.258C63.1189 364.841 76.1092 350.435 79.8342 346.71C86.4589 340.085 86.1326 361.239 86.5218 361.628C88.2303 363.336 91.2795 363.385 93.7239 364.2C98.1749 365.684 99 372.69 102.469 375.003C105.217 376.835 122.89 375.16 124.075 373.974C124.591 373.459 123.731 371.576 124.075 370.888C125.033 368.972 126.418 367.231 127.162 365.743C127.182 365.704 134.934 370.644 135.907 370.888C142.284 372.482 149.085 375.676 154.941 378.604C157.151 379.709 156.904 375.098 158.028 373.974C160.289 371.713 165.412 370.506 168.316 369.344C175.243 366.574 181.4 374.176 190.437 371.917C196.605 370.375 196.901 366.81 203.298 365.743C215.317 363.74 211.797 387.536 240.337 370.888C240.987 370.509 245.232 367.817 244.452 366.258C243.748 364.85 237.325 362.328 235.707 361.114C232.73 358.881 220.188 345.51 218.731 342.594C216.746 338.625 232.101 338.455 233.135 343.623C234.822 352.061 253.722 358.8 261.428 360.085C263.997 360.513 266.502 359.251 268.63 358.541C275.55 356.235 293.486 358.541 301.04 358.541C302.36 358.541 314.088 360.411 314.929 359.57C316.546 357.954 309.725 353.511 309.271 353.397C298.519 350.709 290.664 347.224 278.919 347.224C271.488 347.224 277.822 341.429 276.347 338.479C274.863 335.511 272.377 337.595 270.688 335.906C269.952 335.171 271.594 329.157 270.688 328.704C267.353 327.037 262.909 328.046 259.371 327.161C256.412 326.421 255.36 323.973 253.198 322.531C247.562 318.774 246.041 317.477 242.909 311.214C240.918 307.233 269.017 315.457 270.174 314.3C273.374 311.101 267.127 302.488 265.029 301.44C262.781 300.315 257.864 302.229 255.255 300.925C251.927 299.261 249.753 294.976 245.995 293.723C238.374 291.183 209.009 286.362 213.072 274.175C216.834 262.889 241.223 273.427 249.082 272.117C254.109 271.279 258.938 267.724 264.001 266.458C264.464 266.342 266.241 266.79 266.573 266.458C269.417 263.614 261.12 252.637 259.371 252.054C256.56 251.117 250.364 255.271 248.568 256.17C246.749 257.079 242.512 256.17 240.337 256.17C234.973 256.17 229.665 256.684 224.389 256.684C222.325 256.684 216.756 254.71 218.216 256.17C218.653 256.607 219.207 256.922 219.76 257.198C220.957 257.797 217.744 255.43 216.673 254.626C214.293 252.841 210.332 250.174 208.957 247.424C208.236 245.983 206.849 244.288 205.355 242.794C203.89 241.329 205.012 235.206 200.726 231.991C199.695 231.219 197.141 230.465 196.096 229.419C195.895 229.219 196.096 227.675 196.096 227.361C196.096 222.547 201.37 222.025 205.87 224.275C208.05 225.365 218.988 231.348 221.817 229.934C231.107 225.289 204.249 215.607 211.014 208.842C214.872 204.984 230.305 212.7 234.164 208.842C237.496 205.509 235.707 198.538 235.707 194.438C235.707 193.197 237.627 188.967 237.25 188.779C230.43 185.369 215.334 192.482 207.928 188.779C206.402 188.017 204.185 185.817 202.269 185.178C194.017 182.428 184.697 182.444 180.663 174.375C176.867 166.784 187.014 168.538 189.923 165.63C192.118 163.434 187.351 160.345 200.726 157.913C207.81 156.625 211.315 160.096 213.586 153.283C213.925 152.268 215.036 150.429 214.615 149.168C214.347 148.363 214.016 145.882 213.072 145.567C209.907 144.512 199.296 147.738 197.125 145.567C196.707 145.15 188.879 142.862 187.35 142.48C185.749 142.08 183.477 142.722 182.206 141.451C181.224 140.469 176.839 129.467 176.033 127.047C170.409 110.176 200.211 130.009 200.211 118.302C200.211 117.211 200.803 114.046 200.211 113.158C194.223 104.175 181.409 115.447 175.004 109.042C171.969 106.007 169.423 101.404 166.259 98.2392C163.149 95.1297 170.237 96.3184 170.889 95.6671C173.424 93.132 165.562 89.162 169.345 85.3785C170.216 84.5081 174.464 88.716 175.518 88.9795C178.014 89.6035 194.262 91.8422 196.61 89.4939C197.348 88.7564 196.562 87.3403 196.096 86.4073C195.778 85.772 196.578 83.803 196.096 83.3207C195.02 82.2449 189.279 80.4895 188.894 79.7197C188.664 79.2596 189.305 78.4851 188.894 78.1764C186.454 76.3469 181.707 78.9556 179.119 77.662C177.235 76.7198 174.26 74.1731 173.461 70.9744C173.36 70.5712 171.457 68.863 171.917 68.4022C177.176 63.1438 189.101 69.5384 186.321 61.2002C185.19 57.8049 159.025 53.4201 154.941 45.2528C154.934 45.2383 164.312 42.2219 162.143 41.1374C157.432 38.7818 153.761 37.233 151.34 32.392C149.662 29.0347 150.829 1.5795 144.867 2.99159Z" fill="#1E6F1E"/>
<path d="M142.795 4.40215C140.736 11.8742 150.209 36.3437 147.605 41.5502C147.127 42.5076 147.032 43.7667 146.536 44.7572C145.683 46.4639 140.281 49.3499 141.459 51.7058C141.863 52.5134 143.46 51.4326 143.864 52.2403C144.911 54.3335 145.784 59.7481 147.873 60.7923C152.097 62.9044 147.825 57.3659 148.942 56.249C149.75 55.4413 156.75 62.0709 159.632 59.1888C160.262 58.5581 160.369 57.5131 160.701 56.5163C160.776 56.2903 161.771 55.0472 161.503 54.9128C159.13 53.7264 155.145 52.8317 153.485 51.1713C151.621 49.307 150.342 44.3629 151.614 41.8174C151.903 41.2403 152.951 41.0148 153.218 40.7484C154.808 39.1584 151.969 35.3116 151.614 34.6016C149.492 30.3567 148.766 25.2543 147.338 20.9718C145.694 16.0397 148.514 7.71643 144.933 4.1349C144.665 3.86725 142.804 4.39981 142.795 4.40215Z" fill="#2DA82D"/>
<path d="M136.915 57.8525C136.567 59.8135 135.513 60.1571 134.243 60.7923C133.413 61.207 132.413 61.8407 131.838 62.1286C130.33 62.8826 126.511 62.9117 125.424 63.9993C125.1 64.3225 126.166 64.5142 126.225 64.5338C126.747 64.7078 127.576 65.35 127.829 65.6028C128.631 66.4046 131.838 64.8011 132.639 65.6028C134.23 67.1937 136.762 69.0602 135.579 72.0169C134.3 75.2151 132.792 75.3386 131.036 77.0947C130.646 77.4841 132.818 77.2732 132.907 77.3619C133.27 77.7252 133.72 78.9299 133.441 79.7672C132.775 81.7661 129.967 85.1121 131.838 86.983C135.672 90.8176 139.414 74.8631 140.39 73.8877C141.747 72.5303 142.848 76.6665 143.062 77.0947C143.212 77.3946 142.794 80.7467 143.062 80.8362C145.007 81.4844 144.132 80.1683 145.467 80.8362C146.095 81.1498 146.366 82.9742 147.071 82.9742C149.354 82.9742 147.453 76.8274 148.14 76.8274C148.662 76.8274 152.17 81.659 153.485 82.9742C154.582 84.071 157.968 81.518 157.227 80.0345C156.948 79.4778 154.251 75.7941 154.554 75.4912C154.754 75.2912 157.293 77.3168 157.761 77.6292C160.39 79.3815 167.575 82.2465 170.322 79.5C173.238 76.5837 158.145 71.7833 159.899 68.2754C162.447 63.1797 174.063 69.6257 174.063 64.2666C174.063 63.5387 174.599 62.6648 174.331 62.1286C172.075 57.6174 162.905 64.2666 160.701 64.2666C151.691 64.2666 153.857 69.1586 151.882 70.1461C148 72.0871 148.053 65.0247 146.537 64.2666C146.287 64.142 144.303 66.8819 143.329 67.2064C142.331 67.5391 141.41 66.9227 140.657 66.6719C136.069 65.1426 138.672 61.3651 136.915 57.8525Z" fill="#2DA82D"/>
<path d="M120.079 86.4485C118.863 91.6561 110.99 88.8587 109.121 92.5953C108.822 93.1939 113.687 95.2679 114.199 95.2679C115.481 95.2679 116.821 95.3737 117.94 95.0006C120.722 94.0734 118.702 96.0296 119.811 97.1386C121.694 99.0217 123.219 95.6019 124.355 99.0094C124.969 100.852 117.832 110.02 120.079 110.768C124.239 112.155 126.102 106.349 128.096 104.354C129.212 103.238 128.44 109.623 131.57 106.492C132.19 105.873 134.696 97.8589 136.381 99.5439C140.783 103.946 137.947 111.819 143.864 114.777C147.268 116.48 143.986 104.209 144.933 105.156C145.777 106 148.428 107.822 150.011 107.294C151.246 106.882 152.605 104.315 153.218 104.622C154.676 105.351 157.46 109.449 159.632 108.363C165.025 105.667 156.992 97.5031 155.89 94.1989C154.921 91.2899 164.693 94.1649 162.839 90.4573C162.496 89.7716 161.926 88.6646 161.235 88.3193C159.807 87.6051 150.099 86.3599 148.675 87.7848C147.812 88.6471 146.566 90.1601 145.735 90.9918C144.45 92.2767 149.279 97.0263 146.536 97.9404C144.845 98.5041 141.145 98.4281 139.855 97.1386C139.491 96.7748 139.539 88.8538 139.855 88.8538C140.746 88.8538 138.583 90.1647 138.252 90.9918C137.351 93.243 134.973 95.0006 132.372 95.0006C131.345 95.0006 128.933 95.837 128.096 95.0006C127.038 93.9423 126.719 91.4851 125.424 90.1901C123.752 88.5181 120.656 88.7589 120.079 86.4485Z" fill="#2DA82D"/>
<path d="M110.19 116.915C109.862 118.83 108.014 120.058 106.716 120.924C106.439 121.109 95.2197 122.523 97.6293 124.933C101.354 128.658 108.714 122.458 111.526 123.864C112.246 124.224 113.207 125.888 113.664 126.804C114.259 127.992 115.522 127.579 116.07 128.674C116.876 130.286 115.458 133.446 117.673 134.554C121.331 136.383 123.152 127.205 124.622 125.735C124.674 125.682 129.662 136.232 131.303 132.95C132.131 131.294 131.45 127.926 131.036 126.269C130.167 122.794 131.317 120.136 128.631 117.45C126.107 114.927 121.171 120.146 119.277 118.252C116.644 115.618 112.775 117.777 110.19 116.915Z" fill="#2DA82D"/>
<path d="M144.933 121.191C147.984 124.682 145.26 129.387 146.537 133.218C147.038 134.723 148.494 134.741 147.873 137.226C147.256 139.692 145.548 142.236 144.666 144.442C143.759 146.71 143.848 149.301 143.062 151.658C141.966 154.947 146.119 156.962 147.873 154.331C150.774 149.979 149.296 146.585 150.813 142.037C150.824 142.002 150.984 140.968 151.08 140.968C151.323 140.968 152.095 142.504 152.149 142.571C152.772 143.351 153.688 143.911 154.287 144.709C155.915 146.881 154.882 151.727 159.097 150.322C159.558 150.168 162.572 145.442 162.572 144.977C162.572 143.904 161.287 141.43 162.304 141.77C163.822 142.276 164.931 143.595 166.046 144.709C168.634 147.297 175.143 148.312 178.607 146.58C179.204 146.282 179.678 145.421 180.21 145.244C180.806 145.045 182.004 145.13 182.348 144.442C183.372 142.395 175.074 139.951 173.796 139.632C172.702 139.358 169.469 133.994 167.917 133.218C167.266 132.892 169.787 127.283 169.787 126.269C169.787 124.866 166.392 119.147 168.718 117.984C168.774 117.957 178.761 119.63 177.538 117.183C176.879 115.866 173.677 116.188 172.46 115.579C170.791 114.744 169.427 113.395 167.917 112.639C157.405 107.384 163.574 121.525 162.839 122.26C160.882 124.217 155.109 121.171 155.089 121.191C153.65 122.63 156.859 128.457 154.821 129.476C150.548 131.613 150.68 123.531 148.675 122.528C147.278 121.829 146.416 122.303 144.933 121.191Z" fill="#2DA82D"/>
<path d="M126.76 139.632C128.541 142.413 129.974 147.497 128.631 150.856C127.372 154.003 123.222 156.239 125.691 159.943C127.595 162.8 131.256 161.5 132.372 162.615C132.795 163.039 133.076 165.471 133.976 165.021C138.041 162.988 136.502 156.711 135.045 153.796C134.368 152.443 135.127 148.966 134.51 147.115C133.956 145.453 136.906 141.532 137.45 139.899C137.926 138.469 137.045 136.701 137.717 135.356C138.802 133.186 138.252 128.745 138.252 126.269C138.252 125.142 137.183 121.935 137.183 123.062C137.183 125.965 136.707 129.952 134.777 131.881C132.96 133.699 137.227 146.609 126.76 139.632Z" fill="#2DA82D"/>
<path d="M112.863 174.374C110.045 177.557 103.911 177.714 101.104 180.521C100.289 181.336 98.3464 183.503 97.3621 183.996C93.1032 186.125 87.5869 187.608 82.9305 188.539C78.638 189.397 73.2188 188.539 68.7662 188.539C66.989 188.539 60.9745 187.82 60.2141 189.341C59.8295 190.11 60.6871 191.356 61.0158 192.013C63.7915 197.564 67.9678 195.807 72.775 193.884C73.8813 193.441 75.9143 192.882 76.5165 192.28C76.9085 191.888 76.757 192.788 76.7837 192.815C77.011 193.042 78.329 193.508 78.6545 193.617C80.1742 194.123 83.4236 194.295 85.0685 193.884C87.1278 193.369 98.3493 186.319 99.2329 187.203C101.337 189.307 96.5198 199.99 99.5001 202.97C100.388 203.859 102.962 199.789 103.242 199.229C103.685 198.343 103.537 196.979 103.776 196.022C104.692 192.36 106.403 191.902 109.388 190.41C112.833 188.687 110.805 198.774 111.259 199.229C112.473 200.443 117.915 195.513 118.475 194.953C119.406 194.022 119.408 191.282 120.346 189.875C120.929 189.001 121.636 187.828 121.949 187.203C121.975 187.151 121.86 184.975 122.217 185.332C126.391 189.506 123.169 192.315 124.889 195.755C125.992 197.961 128.46 202.546 132.105 201.634C134.336 201.076 136.063 197.726 136.915 196.022C137.582 194.688 136.402 192.28 136.648 192.28C136.737 192.28 142.26 203.52 142.26 193.884C142.26 191.318 144.511 188.581 145.467 186.668C145.817 185.969 146.096 181.37 146.537 181.59C151.936 184.29 153.667 189.504 151.882 195.755C151.576 196.823 150.263 200.676 151.08 201.901C152.315 203.755 154.073 207.332 156.158 208.583C159.43 210.546 168.257 215.361 171.658 213.661C173.595 212.692 172.357 210.461 171.391 208.85C168.36 203.798 163.201 201.711 166.046 196.022C166.462 195.189 166.168 193.908 166.58 193.082C168.148 189.946 174.816 199.982 175.4 200.565C175.82 200.986 177.43 201.238 178.072 201.367C183.1 202.372 178.492 189.608 179.141 189.608C182.89 189.608 184.821 194.185 187.426 195.487C191.283 197.416 192.996 191.415 191.435 189.073C189.016 185.445 176.428 187.616 174.598 182.125C173.341 178.355 173.183 168.841 175.934 166.09C177.373 164.651 180.551 166.016 181.814 164.753C184.079 162.488 184.528 159.634 187.159 157.003C187.375 156.787 187.13 155.786 186.892 155.667C184.873 154.658 180.896 155.696 178.874 156.201C174.053 157.406 166.186 154.585 163.641 159.676C162.123 162.711 166.039 167.145 167.115 169.297C167.485 170.036 166.913 171.43 167.115 172.236C167.97 175.657 170.203 177.231 164.442 178.383C163.284 178.615 162.715 177.677 161.77 177.047C160.859 176.44 157.501 174.931 157.227 174.107C156.144 170.86 156.299 168.369 154.287 166.357C153.695 165.765 149.425 166.357 148.407 166.357C147.186 166.357 145.23 164.476 144.398 164.753C137.667 166.997 141.557 176.998 135.579 179.987C127.552 184 133.375 175.945 129.7 174.107C122.132 170.324 125.584 175.898 121.682 177.849C121.053 178.164 118.556 177.743 118.208 177.047C117.691 176.013 120.441 173.668 120.079 173.305C118.7 171.927 114.285 173.663 112.863 174.374Z" fill="#2DA82D"/>
<path d="M101.371 213.66C98.6694 215.159 101.465 220.247 99.7674 221.945C98.8886 222.824 98.6369 224.962 97.6293 226.221C93.7138 231.116 90.7249 233.451 84.534 235.308C84.2411 235.396 72.7722 238.245 74.3784 239.851C77.1378 242.611 80.154 245.986 84.8012 244.127C84.9628 244.063 88.4805 242.461 88.5428 242.524C91.6804 245.661 91.2132 248.537 96.8276 247.601C97.7139 247.454 98.7162 247.388 99.5001 246.8C100.773 245.845 103.487 244.728 104.043 243.058C104.669 241.181 109.387 227.289 112.595 230.497C114.16 232.061 112.286 243.016 112.863 243.593C114.011 244.741 117.427 244.683 118.742 245.998C121.606 248.862 125.476 234.879 127.562 239.049C129.311 242.549 128.344 246.701 129.165 250.808C129.58 252.882 134.152 262.346 136.915 260.964C145.005 256.919 137.442 241.997 139.855 239.584C141.844 237.596 146.039 237.787 147.338 240.386C147.837 241.384 147.141 242.931 147.605 243.86C148.067 244.784 149.804 244.763 150.545 245.998C151.904 248.262 152.789 255.619 155.623 255.619C165.674 255.619 156.226 241.518 157.761 236.911C159.187 232.635 162.538 234.439 163.908 237.179C164.493 238.35 166.016 240.891 166.848 241.722C168.188 243.063 170.422 243.209 171.391 244.662C174.661 249.567 175.835 259.149 182.081 261.231C184.9 262.171 194.989 264.092 197.047 262.033C197.741 261.34 197.59 254.826 198.383 255.619C199.64 256.876 202.325 258.792 203.996 259.628C206.322 260.791 216.893 262.093 218.16 258.292C219.76 253.493 210.392 254.596 208.272 253.748C205.492 252.636 200.753 250.582 198.918 248.136C197.111 245.727 196.289 242.568 194.107 240.386C191.814 238.092 190.138 236.991 188.762 234.239C187.175 231.064 190.631 225.154 192.504 223.282C193.877 221.908 197.268 221.504 198.116 219.807C199.337 217.365 188.338 215.689 196.513 207.514C197.244 206.782 198.297 206.264 198.918 205.643C199.635 204.925 203.77 207.102 205.332 206.712C206.586 206.398 209.685 204.117 208.272 202.703C205.916 200.347 184.587 206.344 182.348 208.583C181.925 209.006 179.199 222.653 179.408 223.282C179.782 224.402 180.457 225.336 180.745 226.489C180.898 227.103 181.575 230.884 180.745 231.299C174.458 234.443 172.468 225.756 167.917 224.618C165.985 224.135 162.167 223.195 160.434 224.351C159.465 224.996 156.003 228.932 155.089 228.627C153.889 228.227 153.775 225.988 153.218 225.152C152.555 224.158 151.609 221.406 150.813 220.609C150.181 219.977 149.454 219.775 148.942 219.006C148.323 218.078 142.26 216.127 142.26 217.402C142.26 221.589 139.642 226.328 136.114 228.092C134.607 228.845 133.48 225.954 132.639 225.954C131.085 225.954 132.466 230.324 129.967 227.825C124.626 222.484 139.731 218.543 126.76 212.057C124.463 210.909 124.619 216.334 123.553 216.867C122.34 217.474 117.582 216.424 117.406 216.6C116.279 217.727 115.719 223.106 112.863 221.678C109.628 220.06 110.779 215.051 108.587 212.859C106.578 210.85 101.371 210.33 101.371 213.66Z" fill="#2DA82D"/>
<path d="M69.0334 260.162C61.0527 274.886 60.4155 278.994 42.5755 281.543C40.0918 281.897 37.7444 281.008 35.3597 281.008C35.1605 281.008 35.7284 281.165 35.8942 281.275C37.048 282.044 38.1405 282.979 39.3684 283.681C40.8532 284.529 44.5166 284.82 45.5153 285.819C48.4516 288.755 40.559 302.095 50.5931 296.241C51.9589 295.445 53.1687 294.82 54.6018 294.103C55.436 293.686 56.2054 296.132 56.2054 297.043C56.2054 302.524 52.0174 306.752 57.0071 311.742C57.4343 312.169 59.714 311.067 59.9469 310.94C61.9485 309.848 64.2627 308.762 65.8264 307.199C66.066 306.959 66.3226 301.205 68.7662 299.983C69.1431 299.794 69.9082 300.906 70.1025 301.052C70.8602 301.62 71.8416 302.257 72.5077 302.923C73.6275 304.042 73.8042 311.972 78.3873 308.535C85.4647 303.227 74.9454 295.909 78.12 289.56C78.7846 288.231 85.4014 286.42 87.2066 285.819C88.7299 285.311 90.761 286.326 92.2844 285.819C93.6899 285.35 94.7765 283.861 95.7586 282.879C99.8669 278.771 100.519 263.244 91.7498 264.706C87.0052 265.496 87.9638 271.699 85.6031 274.059C84.8817 274.781 74.4279 278.36 73.3095 277.801C71.0906 276.692 75.3764 268.518 76.5165 267.378C76.8869 267.008 76.3472 265.534 76.2492 265.24C74.8538 261.054 72.3239 262.63 69.0334 260.162Z" fill="#2DA82D"/>
<path d="M114.199 263.102C113.106 264.861 111.419 266.849 110.992 268.982C110.277 272.555 114.061 275.412 113.13 279.137C112.754 280.643 106.991 290.139 105.914 291.431C105.295 292.174 103.975 292.637 103.509 293.569C100.409 299.768 101.905 301.973 101.905 308.535C101.905 311.331 100.773 314.886 102.707 316.82C103.501 317.614 105.296 317.678 106.181 317.087C112.413 312.932 111.308 312.617 112.863 306.397C113.069 305.574 112.595 304.527 112.863 303.724C113.429 302.024 114.436 300.075 115.001 298.379C115.175 297.856 117.056 294.021 117.941 294.905C120.977 297.941 117.116 316.945 124.622 310.94C130.23 306.454 127.627 293.836 135.846 293.836C136.704 293.836 138.8 293.442 139.588 293.836C141.366 294.725 141.677 303.43 141.993 305.328C142.886 310.683 150.37 328.224 154.821 330.45C155.15 330.614 157.569 325.607 157.761 324.837C159.28 318.761 151.776 312.274 154.02 306.664C158.258 296.068 165.118 313.163 171.658 308.802C178.39 304.314 172.672 304.416 169.253 297.578C169.104 297.279 167.66 295.963 168.184 295.44C168.896 294.727 172.266 295.161 172.994 295.707C179.531 300.61 180.23 310.145 189.03 313.078C190.796 313.667 193.814 316.588 195.444 314.415C197.448 311.741 193.126 307.111 194.909 305.328C195.48 304.757 197.077 306.1 197.582 305.595C199.025 304.152 198.383 300.491 198.383 298.647C198.383 298.32 198.104 294.243 198.383 294.103C198.837 293.876 199.63 294.424 199.987 294.638C205.824 298.14 203.378 301.77 206.134 304.526C207.401 305.794 208.686 307.175 210.143 308.268C213.958 311.129 219.257 306.609 221.1 302.923C222.207 300.709 219.079 298.546 217.626 297.578C216.838 297.052 214.808 295.44 215.755 295.44C220.62 295.44 228.71 304.431 233.928 300.517C234.899 299.789 237.709 293.684 237.135 293.302C234.392 291.473 222.576 292.825 218.427 292.233C216.414 291.945 215.037 290.671 213.35 289.827C209.923 288.114 208.754 278.648 209.341 275.128C209.84 272.135 214.251 267.233 209.875 265.775C207.638 265.029 204.478 264.79 202.392 266.042C197.203 269.155 201.997 271.248 199.185 274.059C196.946 276.299 193.142 271.404 192.771 273.258C191.308 280.572 194.597 288.836 185.288 291.164C183.072 291.718 182.576 288.144 181.814 286.62C181.109 285.211 179.883 284.034 179.409 282.612C178.489 279.854 180.427 275.295 179.141 272.723C178.282 271.004 177.129 268.557 176.469 266.576C175.82 264.63 174.644 261.923 172.727 260.964C170.604 259.903 168.341 262.125 166.848 263.369C164.53 265.301 168.681 265.391 167.917 268.447C167.339 270.759 165.877 270.219 164.71 271.387C161.956 274.141 170.17 282.619 162.839 285.551C162.43 285.715 161.141 286.888 160.968 286.888C154.651 286.888 156.281 278.264 153.752 276.999C151.968 276.107 150.334 277.961 149.209 278.335C147.675 278.847 143.053 277.276 141.993 278.335C141.578 278.751 141.312 280.353 140.657 281.008C138.442 283.223 132.554 282.241 129.967 281.81C123.804 280.783 132.26 276.887 130.501 275.128C129.221 273.848 127.109 273.339 125.958 272.189C124.577 270.808 126.755 266.842 124.355 266.042C121.193 264.988 117.736 264.281 114.199 263.102Z" fill="#2DA82D"/>
<path d="M38.0321 308.802C37.4274 317.224 36.288 316.447 29.7473 321.898C27.5477 323.731 25.1395 324.773 25.2041 324.837C28.3359 327.969 32.6677 322.954 37.4976 326.174C39.433 327.464 38.9562 328.968 40.4374 330.45C41.666 331.678 43.0694 332.28 43.9117 333.122C44.9996 334.21 44.2705 338.826 45.7825 340.338C47.0131 341.569 50.573 332.855 52.4637 332.855C53.4155 332.855 53.5048 333.915 54.3345 334.191C58.0159 335.418 55.1336 346.887 58.0761 345.416C58.2451 345.331 62.802 340.155 63.4211 339.536C63.4322 339.525 67.8103 341.345 70.3696 337.933C72.7472 334.763 71.0981 329.478 71.9732 329.915C74.2855 331.071 77.2175 332.61 79.189 333.924C80.1779 334.583 80.4276 335.879 81.327 336.329C82.7309 337.031 86.1205 335.778 87.2065 336.864C87.9297 337.587 88.2755 339.918 88.2755 341.14C88.2755 345.106 90.7769 350.852 94.6896 351.83C94.8193 351.862 95.2287 352.36 95.4913 352.097C98.0981 349.49 96.3488 345.249 97.3621 342.209C99.3221 336.329 105.601 336.09 99.7673 328.312C97.3772 325.125 92.3561 325.926 91.2153 321.363C90.5945 318.88 90.36 313.987 91.4826 311.742C91.5159 311.675 91.5159 310.69 91.4826 310.673C90.7944 310.329 88.9094 310.729 88.2755 310.94C82.1613 312.978 84.3896 316.471 79.4562 319.76C76.8418 321.502 72.4967 318.372 69.5679 318.958C64.9324 319.885 56.9117 327.061 51.9292 324.57C44.4614 320.836 50.6512 313.009 38.0321 308.802Z" fill="#2DA82D"/>
<path d="M121.949 324.837C122.775 326.199 123.246 327.519 123.018 329.113C122.57 332.251 119.498 334.268 117.941 336.864C117.34 337.864 117.581 338.919 117.139 339.803C115.697 342.688 112.492 345.805 113.397 349.425C113.769 350.913 114.693 352.164 115.001 353.701C115.346 355.427 115.85 357.988 117.941 358.511C123.844 359.987 124.946 355.921 127.562 351.563C128.148 350.585 129.143 349.782 129.432 348.623C129.586 348.007 129.495 346.69 129.967 346.217C130.478 345.707 135.968 354.891 137.183 356.106C140.903 359.827 140.623 349.842 143.062 348.623C143.175 348.566 144.626 349.815 145.2 349.959C149.152 350.947 149.328 357.838 155.356 359.847C157.188 360.458 161.829 355.631 163.373 357.175C165.312 359.114 178.659 362.233 175.667 358.244C173.365 355.175 167.746 353.188 166.58 349.692C165.567 346.652 169.526 335.798 171.925 337.398C174.644 339.211 180.505 351.083 182.348 354.77C182.898 355.87 184.356 356.597 185.288 356.908C190.773 358.736 188.366 350.761 191.435 350.761C193.149 350.761 194.003 353.933 195.711 354.502C202.277 356.691 203.388 357.912 211.211 355.304C214.512 354.204 214.252 364.023 219.229 359.046C224.589 353.685 206.282 344.05 209.608 337.398C210.093 336.427 213.473 336.473 214.151 335.795C216.156 333.79 218.581 331.899 220.298 330.182C220.557 329.923 223.947 333.029 224.307 333.389C226.104 335.187 231.864 334.419 234.73 336.329C237.304 338.045 239.479 341.477 241.144 342.476C244.951 344.76 249.299 349.088 253.972 346.752C255.647 345.915 257.702 345.95 259.317 345.95C259.495 345.95 260.074 346.217 259.851 346.217C256.609 346.217 253.392 338.155 251.567 336.329C248.163 332.926 236.621 332.361 234.195 327.51C231.38 321.88 244.252 324.603 245.152 324.303C245.989 324.024 243.905 323.056 243.282 322.432C241.659 320.81 238.794 321.263 237.937 318.691C236.317 313.832 242.971 307.199 232.592 307.199C220.775 307.199 227.579 308.405 225.109 313.345C224.254 315.056 222.703 315.363 222.703 317.622C222.703 318.964 224.614 321.591 223.505 322.699C221.684 324.52 217.446 325.342 215.488 324.036C214.559 323.416 211.432 322.432 212.548 322.432C212.946 322.432 212.218 323.159 212.013 323.501C211.473 324.402 210.683 325.904 209.875 326.174C203.747 328.216 207.418 312.436 201.323 315.484C199.691 316.299 197.91 319.043 197.314 320.829C195.914 325.029 198.445 327.962 199.72 331.786C200.192 333.202 198.918 335.742 198.918 337.398C198.918 338.242 199.482 342.179 198.918 342.743C197.701 343.96 192.542 341.713 191.702 340.872C191.346 340.516 192.058 339.091 191.702 338.734C189.745 336.777 185.592 337.472 183.685 333.657C181.072 328.432 186.731 323.153 178.874 319.225C172.921 316.248 172.694 322.465 170.055 325.105C169.547 325.612 167.878 325.983 167.382 326.975C167.097 327.545 167.667 328.543 167.382 329.113C166.694 330.49 165.64 332.149 164.71 333.389C163.625 334.835 161.61 335.153 160.434 336.329C159.918 336.845 160.542 339.318 160.166 340.071C159.508 341.388 152.582 344.162 151.347 343.545C147.204 341.474 149.219 335.276 147.071 332.053C145.012 328.965 140.672 330.175 137.984 331.519C137.374 331.824 136.593 334.136 136.114 333.657C135.251 332.794 136.691 329.734 136.114 328.579C134.046 324.443 125.751 319.769 121.949 324.837Z" fill="#2DA82D"/>
</svg>
