<svg width="58" height="99" viewBox="0 0 231 396" fill="none" xmlns="http://www.w3.org/2000/svg">
<path d="M119.256 395.924C180.077 395.924 229.382 387.103 229.382 376.221C229.382 365.34 180.077 356.519 119.256 356.519C58.4354 356.519 9.13037 365.34 9.13037 376.221C9.13037 387.103 58.4354 395.924 119.256 395.924Z" fill="url(#paint0_radial_2_596)"/>
<path d="M106.958 291.874H134.414V374.77C125.818 383.669 116.66 383.568 106.958 374.77V291.874Z" fill="#784421"/>
<path opacity="0.403" d="M106.958 297.261V331.585L134.414 332.411V298.093L106.958 297.261Z" fill="black" stroke="black" stroke-width="0.0923992"/>
<path d="M83.1979 170.963C83.1979 170.963 59.9661 231.155 0.830597 261.779C-0.225356 262.307 119.63 388.498 230.509 257.555C229.453 257.555 229.453 257.555 229.453 257.555C229.453 257.555 160.285 220.595 149.725 163.572C155.005 174.131 155.005 173.603 155.005 173.603L83.1979 170.963Z" fill="#144914"/>
<path d="M152.763 169.565L151.111 169.738C151.445 171.003 151.807 172.257 152.196 173.5L154.992 173.603C154.935 173.564 154.611 173.138 152.763 169.565ZM154.992 173.603C155.004 173.611 155.005 173.604 155.005 173.604L154.992 173.603ZM152.196 173.5L124.781 172.492L80.4705 177.127C75.5348 187.513 63.6726 209.422 43.1026 230.298C59.2614 242.321 110.696 271.208 198.724 236.351C180.956 221.712 160.513 200.109 152.196 173.5Z" fill="url(#paint1_linear_2_596)"/>
<path d="M100.094 82.7882C100.094 82.7882 101.15 127.668 55.7423 163.044C47.8224 170.963 47.8223 170.963 47.8223 170.963C47.8223 170.963 130.718 233.795 185.629 167.268C186.157 165.684 186.157 165.684 186.157 165.684C186.157 165.684 135.47 136.644 138.638 81.2042C137.054 81.2042 137.054 81.2042 137.054 81.2042L100.094 82.7882Z" fill="#1A5F1A"/>
<path d="M138.498 86.8242L99.866 87.4524C98.9924 97.2078 94.8266 120.831 75.167 144.37C85.4368 152.176 116.945 170.531 164.584 147.959C152.065 134.746 138.707 114.25 138.498 86.8242Z" fill="url(#paint2_linear_2_596)"/>
<path d="M118.574 0.420898C118.574 0.420898 112.766 61.6684 69.9981 91.2361C72.6381 89.6522 123.326 132.42 165.565 89.1242C164.509 88.5962 117.518 56.3884 118.574 0.420898Z" fill="#1E6F1E"/>
<path d="M81.998 192.81C81.998 192.81 46.5369 244.572 24.7742 255.918C18.2636 261.399 18.2636 261.399 18.2636 261.399C18.2636 261.399 18.88 265.584 24.6158 267.123C30.3515 268.663 78.3999 222.529 86.4388 203.42C90.0285 198.205 90.0285 198.205 90.0285 198.205L81.998 192.81Z" fill="url(#paint3_linear_2_596)"/>
<path d="M96.6504 110.55C96.6504 110.55 93.747 142.904 61.8083 166.547C60.564 168.206 60.9788 174.428 68.0302 171.939C75.0815 169.45 104.531 142.904 103.287 113.869C104.531 113.454 96.6504 110.55 96.6504 110.55Z" fill="url(#paint4_linear_2_596)"/>
<path d="M116.243 37.1657C116.243 37.1657 98.9328 74.3935 89.2674 82.0306C79.6019 89.6677 86.8014 95.9409 89.9266 94.2191C93.0518 92.4973 111.073 74.1461 112.885 62.2474C114.698 50.3486 116.243 37.1657 116.243 37.1657Z" fill="url(#paint5_linear_2_596)"/>
<defs>
<radialGradient id="paint0_radial_2_596" cx="0" cy="0" r="1" gradientUnits="userSpaceOnUse" gradientTransform="translate(119.256 376.222) scale(110.126 19.7024)">
<stop/>
<stop offset="1" stop-opacity="0"/>
</radialGradient>
<linearGradient id="paint1_linear_2_596" x1="115.19" y1="176.749" x2="115.19" y2="243.579" gradientUnits="userSpaceOnUse">
<stop/>
<stop offset="1" stop-opacity="0"/>
</linearGradient>
<linearGradient id="paint2_linear_2_596" x1="118.176" y1="91.6258" x2="118.176" y2="154.722" gradientUnits="userSpaceOnUse">
<stop/>
<stop offset="1" stop-opacity="0"/>
</linearGradient>
<linearGradient id="paint3_linear_2_596" x1="22.6506" y1="264.946" x2="79.046" y2="201.796" gradientUnits="userSpaceOnUse">
<stop stop-color="#2DA82D"/>
<stop offset="1" stop-color="#2DA82D" stop-opacity="0"/>
</linearGradient>
<linearGradient id="paint4_linear_2_596" x1="66.7858" y1="169.865" x2="98.7244" y2="123.823" gradientUnits="userSpaceOnUse">
<stop stop-color="#2DA82D"/>
<stop offset="1" stop-color="#2DA82D" stop-opacity="0"/>
</linearGradient>
<linearGradient id="paint5_linear_2_596" x1="90.3614" y1="90.5114" x2="113.584" y2="52.7238" gradientUnits="userSpaceOnUse">
<stop stop-color="#2DA82D"/>
<stop offset="1" stop-color="#2DA82D" stop-opacity="0"/>
</linearGradient>
</defs>
</svg>
