<svg width="51" height="98" viewBox="0 0 302 397" fill="none" xmlns="http://www.w3.org/2000/svg">
<path opacity="0.432" d="M132.041 317.237C132.041 317.237 127.599 310.574 106.869 324.641C86.1385 338.708 65.4083 339.448 73.5523 347.592C81.6963 355.736 85.3982 348.332 105.388 354.996C125.378 361.659 120.936 360.178 136.483 372.024C152.031 383.87 136.483 395.716 169.06 394.975C201.636 394.235 200.155 402.379 213.482 386.831C226.808 371.284 209.039 374.245 233.471 364.62C257.903 354.996 258.644 363.14 258.644 352.034C258.644 340.929 263.826 338.708 254.942 333.525C246.058 328.342 200.895 317.977 188.309 318.718C175.723 319.458 132.041 317.237 132.041 317.237Z" fill="black" stroke="black" stroke-width="0.183231"/>
<path d="M130.561 321.679C130.561 321.679 117.234 325.381 110.571 332.044C103.907 338.708 89.8404 346.111 105.388 345.371C120.936 344.631 123.897 335.006 140.926 351.294C157.954 367.582 192.011 394.975 205.337 378.687C218.664 362.399 214.222 360.178 230.51 357.957C246.798 355.736 250.5 357.217 249.759 346.111C249.019 335.006 206.078 318.718 189.049 320.939C172.021 323.16 130.561 321.679 130.561 321.679Z" fill="#268B26"/>
<path d="M42.4569 209.144C42.4569 209.144 66.1486 281.699 116.494 240.979C129.08 243.2 157.214 240.239 162.396 236.537C167.579 232.835 177.204 233.576 177.204 233.576C177.204 233.576 192.751 266.892 223.847 249.864C230.51 249.864 275.672 252.085 257.163 195.077C238.654 138.068 238.654 138.068 238.654 138.068L106.869 128.444L65.4083 161.76L42.4569 209.144Z" fill="#195B19"/>
<path d="M115.007 338.748C115.007 338.748 130.213 327.887 133.11 311.594C136.006 295.301 139.989 275.025 136.731 263.439C133.472 251.853 111.024 242.077 101.972 236.284C92.9208 230.491 78.0762 202.25 78.0762 202.25L84.2313 199.354C84.2313 199.354 117.903 234.112 121.162 234.112C124.42 234.112 136.006 235.56 138.541 231.215C141.075 226.871 139.265 205.871 131.662 193.561C124.058 181.251 124.058 181.251 124.058 181.251L130.213 176.544C130.213 176.544 145.058 209.854 150.851 211.664C156.644 213.474 170.04 206.595 173.299 183.061C176.558 159.527 176.558 159.527 176.558 159.527L183.437 160.251C183.437 160.251 172.213 210.94 175.471 217.457C178.73 223.974 201.902 223.974 214.936 194.285C220.367 188.492 220.367 188.854 220.367 188.854L226.522 196.819C226.522 196.819 185.971 250.767 189.592 273.215C193.213 295.663 191.402 318.111 210.23 330.059C229.057 342.007 229.057 342.007 229.057 342.007C229.057 342.007 229.781 348.162 213.85 343.817C197.919 339.473 187.782 340.921 187.057 343.093C186.333 345.266 185.609 349.248 189.23 354.679C192.85 360.11 193.213 360.11 193.213 360.11C193.213 360.11 189.954 362.283 183.437 359.386C176.92 356.49 168.954 344.179 161.713 342.007C154.472 339.835 146.144 324.266 115.007 338.748Z" fill="#784421"/>
<path opacity="0.256" d="M176.558 185.233C176.558 185.233 172.213 192.475 171.489 206.595C170.765 220.716 168.954 227.595 174.385 226.509C179.648 225.456 182.531 223.383 183.693 220.95C179.577 220.948 176.511 219.535 175.471 217.457C173.926 214.366 175.639 201.341 177.866 188.499C177.566 187.749 176.558 185.233 176.558 185.233ZM134.558 191.388C134.558 191.388 137.817 207.319 146.144 212.026C154.472 216.733 155.558 217.819 157.006 215.285C158.172 213.245 158.867 211.907 159.095 209.953C155.918 211.853 152.906 212.306 150.851 211.664C147.77 210.701 142.13 200.83 137.523 191.797L134.558 191.388ZM224.245 193.873C219.907 199.159 211.178 209.852 205.885 216.733C198.644 226.147 196.109 225.422 185.247 235.198C174.385 244.974 176.92 244.974 173.299 249.681C169.678 254.388 175.471 259.456 174.023 265.974C172.575 272.491 175.109 280.818 178.006 288.784C180.902 296.749 182.351 306.525 181.989 323.18C181.626 339.835 176.92 334.404 171.489 335.128C166.058 335.852 165.334 334.766 164.972 340.921C164.914 341.901 165.455 343.157 166.402 344.575C172.271 348.983 178.303 357.104 183.437 359.386C189.954 362.283 193.213 360.11 193.213 360.11C193.213 360.11 192.85 360.11 189.23 354.679C185.609 349.248 186.333 345.266 187.057 343.093C187.782 340.921 197.919 339.472 213.85 343.817C229.781 348.162 229.057 342.007 229.057 342.007L210.23 330.059C191.402 318.111 193.213 295.663 189.592 273.215C185.971 250.767 226.523 196.819 226.523 196.819L224.245 193.873ZM95.8648 211.158L93.2828 212.388C93.2828 212.388 97.2656 223.612 106.679 228.681C116.093 233.75 111.386 235.922 121.886 237.371C132.386 238.819 132.024 243.888 136.368 237.732C140.713 231.577 141.437 230.853 139.989 229.043C139.864 228.886 139.644 228.672 139.355 228.416C139.175 229.638 138.902 230.596 138.541 231.215C136.006 235.56 124.42 234.112 121.162 234.112C119.177 234.112 105.934 221.239 95.8648 211.158Z" fill="black"/>
<path d="M70.1713 71.6704C70.1713 71.6704 67.7322 24.8406 99.9277 37.0359C97.4887 36.0602 105.294 -7.3549 138.465 1.9135C138.953 2.40131 175.051 -8.81833 180.416 26.7918C180.904 25.3284 202.856 5.81599 214.563 21.4259C215.539 22.8894 257.491 25.3284 237.49 62.8898C222.856 88.256 222.856 88.256 222.856 88.256L132.611 147.769C132.611 147.769 83.3422 129.72 78.9519 117.525C74.5616 105.329 70.1713 71.6704 70.1713 71.6704Z" fill="#3CD93C"/>
<path d="M75.0494 68.7435C75.0494 68.7435 88.2203 40.4505 109.196 50.6946C105.781 49.7189 105.781 49.7189 105.781 49.7189C105.781 49.7189 114.074 -5.89147 158.465 21.4259C160.904 24.3528 173.587 4.35255 180.416 35.0846C177.49 31.1821 177.49 31.1821 177.49 31.1821C177.49 31.1821 199.441 20.9381 205.783 36.0602C208.222 39.9627 225.783 30.6943 226.271 49.7189C229.198 57.0361 242.856 61.9142 247.247 78.0119C251.637 94.1097 251.637 94.1097 251.637 94.1097L143.343 131.183C143.343 131.183 76.5128 106.793 77.0006 103.866C77.4884 100.939 75.0494 68.7435 75.0494 68.7435Z" fill="#2DA42D"/>
<path d="M100.903 78.9876C100.903 78.9876 135.538 83.3779 136.514 59.4752C138.953 56.5483 138.953 56.5483 138.953 56.5483C138.953 56.5483 171.148 82.4023 186.27 51.1824C187.246 47.7677 187.246 47.7677 187.246 47.7677C187.246 47.7677 199.929 72.646 217.002 63.8655C229.685 64.3533 229.685 64.3533 229.685 64.3533L211.636 124.842L142.855 149.232C142.855 149.232 97.0009 126.793 97.4887 119.964C97.9765 113.134 100.903 78.9876 100.903 78.9876Z" fill="#238123"/>
<path d="M147.733 98.5C147.733 98.5 149.197 60.9386 180.416 79.9632C178.465 77.5241 228.71 31.1821 262.856 75.0851C264.32 79.4754 295.052 73.6216 295.052 108.256C294.076 109.72 317.491 143.866 283.344 157.525C285.784 157.037 277.979 217.526 241.881 203.379C205.783 189.233 206.758 188.257 206.758 188.257C206.758 188.257 178.465 203.379 171.636 165.33C170.66 161.915 129.196 137.525 147.733 98.5Z" fill="#31B431"/>
<path d="M227.333 56.2659C201.877 56.3656 179.09 78.3054 180.417 79.9632C149.197 60.9386 147.733 98.4998 147.733 98.4998C146.942 100.166 146.262 101.805 145.682 103.418L146.27 103.866C146.27 103.866 166.758 78.9876 186.758 94.1098C184.319 91.6707 211.149 56.5482 248.222 75.5728C247.734 79.4753 285.296 80.4508 294.076 108.744C294.533 108.961 294.851 109.11 295.287 109.317C295.066 108.749 294.969 108.381 295.052 108.256C295.052 73.6218 264.32 79.4753 262.856 75.085C251.919 61.0223 239.33 56.2189 227.333 56.2659Z" fill="#3FE43F"/>
<path d="M298.545 116.96L297.491 118.5C289.686 157.037 258.954 154.11 259.929 150.696C235.051 198.989 202.368 158.013 202.856 158.013C186.27 175.086 170.66 162.891 170.66 162.891C170.66 162.891 170.199 163.571 170.162 163.624C170.998 164.403 171.536 164.982 171.636 165.33C178.465 203.379 206.758 188.257 206.758 188.257C206.758 188.257 205.783 189.233 241.881 203.379C277.979 217.526 285.783 157.037 283.344 157.525C307.25 147.963 302.944 128.361 298.545 116.96Z" fill="#2DA52D"/>
<path d="M283.959 155.53C283.549 155.525 283.177 155.688 282.857 156.062C282.857 167.281 273.588 169.233 269.198 165.818C279.442 190.208 261.881 188.257 261.881 188.257V186.794C242.856 203.379 207.246 179.964 207.246 179.964C193.726 185.24 181.105 179.595 174.342 175.382C183.941 200.452 206.758 188.257 206.758 188.257C206.758 188.257 205.783 189.233 241.881 203.379C277.979 217.526 285.783 157.037 283.344 157.525C284.221 157.174 285.056 156.808 285.859 156.431C285.181 155.876 284.533 155.537 283.959 155.53Z" fill="#268C26"/>
<path d="M14.0731 143.379C14.0731 143.379 25.2927 4.35252 133.099 91.6706C135.538 93.1341 135.538 92.6462 135.538 92.6462C135.538 92.6462 212.612 108.744 171.148 163.867C169.685 166.793 155.538 214.599 124.318 205.33C115.05 201.428 89.1959 238.502 70.1713 226.794C51.1467 215.087 51.1467 215.087 51.1467 215.087C51.1467 215.087 -32.2689 204.843 14.0731 143.379Z" fill="#37C837"/>
<path d="M71.3314 62.8628C20.5829 62.7135 14.0729 143.379 14.0729 143.379C14.0729 143.379 43.3418 41.4262 133.099 91.6707C107.411 70.8645 87.2065 62.9094 71.3314 62.8628Z" fill="#3FE43F"/>
<path d="M101.391 158.501C99.4399 197.038 51.1465 180.94 52.1222 178.501C27.7316 196.55 0.902049 170.696 0.902049 170.696L0.580256 170.832C-5.96313 208.072 51.1468 215.087 51.1468 215.087L70.1712 226.794C89.1958 238.502 115.05 201.428 124.318 205.33C155.538 214.599 169.684 166.794 171.148 163.867C140.904 191.184 101.391 163.379 101.391 158.501Z" fill="#30B030"/>
<path d="M162.367 178.989C153.587 194.111 118.952 201.428 117.977 199.965C103.64 222.488 50.5633 216.837 51.1468 215.087L70.1713 226.794C89.1959 238.502 115.05 201.428 124.318 205.33C144.366 211.282 157.373 193.7 164.502 179.579C163.839 179.393 163.138 179.199 162.367 178.989Z" fill="#268C26"/>
<path opacity="0.386" d="M153.023 285.887C158.822 285.887 163.523 279.079 163.523 270.68C163.523 262.282 158.822 255.474 153.023 255.474C147.225 255.474 142.524 262.282 142.524 270.68C142.524 279.079 147.225 285.887 153.023 285.887Z" fill="black"/>
</svg>
