<svg width="120" height="96" viewBox="0 0 480 385" fill="none" xmlns="http://www.w3.org/2000/svg">
<path opacity="0.779" d="M239.857 384.524C372.091 384.524 479.287 375.388 479.287 364.118C479.287 352.848 372.091 343.712 239.857 343.712C107.624 343.712 0.426941 352.848 0.426941 364.118C0.426941 375.388 107.624 384.524 239.857 384.524Z" fill="url(#paint0_radial_2_626)"/>
<path d="M236.093 349.661C234.169 349.661 232.245 350.142 224.068 353.99C215.892 357.837 207.715 358.799 211.082 361.204C214.449 363.609 216.854 362.166 220.702 362.166C224.549 362.166 219.259 363.128 225.992 364.09C232.726 365.052 233.688 362.166 237.055 362.166C240.422 362.166 242.826 364.571 248.117 366.976C253.408 369.381 252.927 371.305 261.584 369.381C270.242 367.457 273.128 364.571 273.609 361.685C274.09 358.799 271.204 353.509 271.204 353.509C271.204 353.509 271.204 353.028 263.027 351.585C254.851 350.142 245.712 347.737 245.712 347.737L236.093 349.661Z" fill="#164E16"/>
<path d="M186.553 61.0766C186.553 61.0766 183.667 65.8863 192.324 97.6306C200.982 129.375 193.286 111.098 191.362 125.527C189.438 139.956 189.438 135.147 191.362 142.842C193.286 150.538 216.373 160.157 220.221 164.005C224.068 167.853 228.036 179.997 237.656 201.16C247.275 222.323 245.352 213.906 259.781 228.335C274.21 242.764 273.128 237.113 286.595 249.618C294.273 256.748 291.368 265.031 289.83 268.768C289.34 268.84 288.826 268.925 288.272 269.035C283.373 270.015 287.119 267.12 272.913 272.998C258.708 278.876 264.586 283.285 252.34 297.98C240.094 312.675 245.483 298.96 242.054 298.47C238.625 297.98 235.686 301.409 229.808 304.348C223.93 307.287 227.849 303.368 221.97 300.919C216.092 298.47 216.582 296.021 202.867 286.224C189.152 276.427 188.172 281.815 181.314 278.387C174.457 274.958 174.946 272.019 171.028 266.141C167.109 260.263 168.089 261.732 168.089 258.793C168.089 255.854 168.579 252.915 170.048 248.017C171.518 243.118 176.906 238.71 178.865 236.261C180.824 233.812 182.294 232.832 187.192 229.403C192.091 225.974 191.601 225.974 194.54 221.076C197.479 216.177 196.499 215.198 197.479 212.749C198.458 210.299 202.377 208.34 207.276 202.462C212.174 196.584 207.276 195.115 206.786 189.726C206.296 184.338 203.357 168.663 203.357 168.663L198.948 169.153C198.948 169.153 201.397 180.909 201.887 190.216C202.377 199.523 198.458 199.033 191.601 206.87C184.743 214.708 188.172 216.177 184.743 222.545C181.314 228.913 175.436 227.444 167.599 232.342C159.761 237.24 161.721 256.834 161.721 256.834C161.721 256.834 157.312 251.446 148.005 244.588C138.699 237.73 131.841 222.055 132.331 217.157C132.82 212.259 134.29 213.238 142.127 207.36C149.965 201.482 149.475 196.094 150.944 191.196C152.414 186.297 151.924 184.828 151.434 178.95C150.944 173.072 148.495 162.785 148.495 162.785C148.495 162.785 145.066 162.785 144.087 165.724C143.107 168.663 148.495 179.93 148.005 184.338C147.516 188.747 147.026 187.767 145.556 192.175C144.087 196.584 142.127 200.503 139.678 202.462C137.229 204.421 134.78 204.911 129.881 205.891C124.983 206.87 124.493 213.728 124.003 211.769C123.514 209.81 123.514 207.36 123.024 200.992C122.534 194.625 123.024 192.665 122.044 187.767C121.064 182.869 117.636 172.582 117.636 172.582C117.636 172.582 113.717 174.541 113.717 176.501C113.717 178.46 118.125 186.297 119.105 191.686C120.085 197.074 119.105 195.604 119.105 199.523C119.105 203.442 118.125 206.871 118.125 210.299C118.125 213.728 119.105 214.218 124.493 227.933C129.881 241.649 131.351 240.179 141.637 249.486C151.924 258.793 149.965 258.303 155.843 263.202C161.721 268.1 161.721 269.57 161.721 273.488C161.721 277.407 158.782 280.346 151.434 280.836C144.087 281.326 145.066 279.366 136.739 277.407C128.412 275.448 133.8 274.958 130.371 272.998C126.942 271.039 124.493 268.59 120.575 263.691C116.656 258.793 119.595 262.222 118.615 256.834C117.635 251.446 118.615 254.385 117.146 249.976C115.676 245.568 113.227 243.608 109.308 238.71C105.39 233.812 105.879 232.832 102.451 226.954C99.0218 221.076 97.0624 212.259 94.6133 205.891C92.1641 199.523 91.1843 196.584 91.1843 196.584C91.1843 196.584 79.9181 188.747 76.9791 185.808C74.04 182.869 75.0198 172.582 75.0198 172.582L72.0807 170.623C72.0807 170.623 73.0605 177.48 73.5503 186.297C74.0401 195.114 75.9994 190.216 83.3469 197.074C90.6945 203.932 90.6946 205.891 93.1437 212.259C95.5929 218.627 95.103 221.076 96.5725 225.974C98.042 230.873 99.5116 232.342 107.839 244.588C116.166 256.834 115.676 252.915 115.186 256.834C114.697 260.752 113.227 260.752 110.778 260.263C108.329 259.773 108.329 259.283 100.491 253.895C92.6538 248.507 97.5523 245.568 93.1437 243.608C88.7352 241.649 88.7352 236.261 86.286 229.893C83.8368 223.525 78.9385 204.911 78.9385 204.911L75.0198 206.381C75.0198 206.381 80.408 223.525 85.7963 238.22C91.1845 252.915 98.0421 256.834 109.798 272.509C121.554 288.183 127.922 283.775 143.107 292.592C158.292 301.409 163.19 294.061 176.906 295.041C190.621 296.021 202.377 305.817 213.643 310.716C224.91 315.614 232.747 320.512 234.216 322.962C235.686 325.411 235.686 328.35 235.196 340.106C234.706 351.862 231.277 357.25 231.277 357.25C261.157 353.331 261.157 363.128 261.157 363.128C261.157 363.128 261.647 359.209 261.647 351.862C261.647 344.514 259.198 344.514 256.259 339.616C253.32 334.718 254.3 329.819 253.32 325.411C252.34 321.002 254.79 318.063 258.218 309.246C261.647 300.429 264.096 299.45 266.546 293.082C268.995 286.714 272.914 286.714 286.139 279.856C299.365 272.998 301.324 272.998 312.59 266.63C323.857 260.263 321.407 259.773 324.346 256.834C327.285 253.895 329.734 250.956 329.734 250.956C329.734 250.956 339.041 246.057 344.43 242.629C349.818 239.2 347.858 239.689 352.757 234.301C357.655 228.913 357.165 222.545 360.104 213.728C363.043 204.911 364.513 189.236 364.513 189.236C364.513 189.236 358.635 188.747 358.145 191.686C357.655 194.625 356.186 213.728 353.247 221.566C350.308 229.403 349.818 227.444 344.43 232.342C339.041 237.24 337.572 234.791 335.613 235.281C333.653 235.771 329.245 240.669 326.796 242.139C324.346 243.608 324.836 241.649 318.468 239.69C312.1 237.73 311.61 237.73 309.161 236.261C306.712 234.791 302.304 231.362 298.875 225.974C295.446 220.586 297.405 219.116 296.916 206.381C296.426 193.645 293.487 193.155 292.997 187.277C292.507 181.399 286.629 165.724 286.629 165.724L282.71 166.704C282.71 166.704 285.649 176.501 287.119 179.44C288.588 182.379 289.078 185.318 290.058 191.196C291.037 197.074 291.037 200.503 291.037 208.83C291.037 217.157 292.507 220.586 292.507 224.015C292.507 227.444 294.466 227.933 299.365 235.281C304.263 242.628 305.243 240.669 310.631 243.608C316.019 246.547 321.407 248.996 321.407 248.996C321.407 248.996 310.631 256.834 304.263 261.732C293.574 268.844 289.033 269.579 303.67 264.288C303.67 264.288 301.866 257.434 298.98 253.586C296.094 249.739 290.443 245.771 285.633 239.999C280.823 234.227 278.899 233.265 278.899 233.265C275.67 230.442 273.073 228.604 273.128 220.76C273.128 220.76 281.785 194.787 282.747 190.94C283.709 187.092 279.861 187.092 279.861 187.092L265.432 218.836C265.432 218.836 262.546 219.798 258.699 216.912C254.851 214.026 243.307 198.635 234.65 180.358C225.992 162.081 229.84 162.081 230.802 156.31C231.764 150.538 234.65 151.5 246.193 138.032C257.737 124.565 261.584 123.603 266.394 114.946C271.204 106.288 270.242 104.364 274.09 97.6306C277.938 90.8969 272.166 61.0766 272.166 61.0766H266.394C266.394 61.0766 267.356 76.4678 263.508 101.478C259.66 126.489 256.775 113.022 251.003 120.717C245.231 128.413 239.46 128.413 233.688 132.261C227.916 136.109 222.145 154.386 222.145 154.386L199.058 132.261C199.058 132.261 202.906 123.603 202.906 111.098C202.906 98.5925 198.096 91.8589 196.172 88.0112C194.248 84.1634 186.553 61.0766 186.553 61.0766Z" fill="#784421"/>
<path opacity="0.357" d="M274.956 80.5053C274.395 80.8079 273.804 81.0973 273.187 81.3245C269.956 82.5149 270.466 83.1952 269.786 85.4058C269.106 87.6164 269.956 87.9566 269.956 91.3576C269.956 94.7585 269.956 96.629 269.106 99.3498C268.256 102.071 267.575 103.601 266.555 107.172C265.535 110.743 264.174 113.804 262.474 116.355C260.773 118.906 261.113 119.246 257.713 122.647C254.312 126.048 253.631 125.878 248.87 130.299C244.108 134.72 243.768 136.761 242.238 137.951C240.708 139.141 233.225 146.624 231.355 148.324L233.879 150.686C236.109 148.487 239.837 145.448 246.193 138.032C257.737 124.565 261.584 123.603 266.394 114.946C271.204 106.288 270.242 104.364 274.09 97.6306C275.732 94.7566 275.622 87.677 274.956 80.5053ZM194.868 84.8804C193.202 85.1522 191.903 85.5758 191.903 85.5758C191.903 85.5758 197.685 97.4793 198.705 100.54C199.725 103.601 199.556 109.213 200.066 111.934C200.576 114.654 200.746 118.055 199.896 121.286C199.045 124.517 197.515 127.238 197.005 130.129C196.494 133.02 195.984 134.38 197.855 135.571C199.529 136.636 200.931 138.107 202.67 135.722L199.058 132.261C199.058 132.261 202.906 123.603 202.906 111.098C202.906 98.5925 198.096 91.8589 196.172 88.0111C195.866 87.3989 195.413 86.2964 194.868 84.8804ZM230.024 168.923C228.57 169.076 227.444 169.24 227.444 169.24C227.954 170.091 236.456 188.456 238.327 191.517C240.197 194.578 244.959 203.931 246.489 205.971C248.02 208.012 249.89 211.413 251.931 213.113C253.971 214.814 255.672 215.834 258.053 217.535C260.433 219.235 261.283 220.255 262.644 220.595C263.78 220.88 265.389 219.977 265.592 218.483L265.432 218.836C265.432 218.836 262.546 219.798 258.699 216.912C254.851 214.026 243.307 198.635 234.65 180.358C232.268 175.329 230.834 171.686 230.024 168.923ZM205.712 182.079L204.827 182.334C204.657 183.355 204.317 191.347 204.827 193.728C205.337 196.108 207.548 197.129 205.167 200.7C202.786 204.271 201.936 203.08 197.685 208.692C193.434 214.304 194.624 211.923 192.754 215.494C190.883 219.065 190.543 221.276 187.822 223.826C185.101 226.377 181.7 229.098 178.299 232.329C174.898 235.56 173.028 236.92 171.327 240.321C169.627 243.722 167.076 246.613 166.056 249.674C165.035 252.735 164.015 259.197 164.185 260.557C164.355 261.918 169.967 271.1 174.218 276.542C178.469 281.983 179.32 283.854 184.251 285.725C189.182 287.595 198.705 290.656 202.446 292.867C206.187 295.077 209.758 296.268 214.35 299.499C218.941 302.73 220.812 303.24 223.022 305.45C225.233 307.661 225.063 308.341 227.784 309.191C230.504 310.042 234.246 308.171 235.606 308.511C236.966 308.851 238.157 310.212 239.857 307.491C241.221 305.309 242.585 303.563 243.422 300.94C243.261 299.699 242.979 298.602 242.054 298.47C238.625 297.98 235.686 301.409 229.808 304.348C223.93 307.287 227.849 303.368 221.971 300.919C216.092 298.47 216.582 296.021 202.867 286.224C189.152 276.427 188.172 281.815 181.314 278.387C174.457 274.958 174.946 272.019 171.028 266.141C167.109 260.263 168.089 261.732 168.089 258.793C168.089 255.854 168.579 252.915 170.048 248.017C171.518 243.118 176.906 238.71 178.865 236.261C180.824 233.812 182.294 232.832 187.192 229.403C192.091 225.974 191.601 225.974 194.54 221.076C197.479 216.177 196.499 215.198 197.479 212.749C198.458 210.299 202.377 208.34 207.276 202.462C212.174 196.584 207.276 195.115 206.786 189.726C206.626 187.971 206.205 185.12 205.712 182.079ZM121.011 183.582C120.586 183.842 120.312 184.035 120.312 184.035C120.312 184.035 121.162 191.517 121.162 193.898C121.162 196.278 120.992 201.21 121.503 203.08C122.013 204.951 122.863 213.963 122.863 213.963C122.863 213.963 123.372 212.91 123.975 211.648C123.515 209.708 123.504 207.232 123.024 200.992C122.534 194.625 123.024 192.665 122.044 187.767C121.812 186.606 121.44 185.139 121.011 183.582ZM151.385 189.594C150.719 189.914 150.241 190.157 150.241 190.157C150.241 190.157 146.84 197.469 145.82 199.169C144.799 200.87 143.779 202.4 141.739 204.101C139.698 205.801 139.698 205.801 136.297 208.182C132.896 210.563 132.216 210.733 131.535 211.583C130.855 212.433 129.835 214.644 130.175 217.364C130.515 220.085 131.195 224.847 132.386 227.567C133.576 230.288 135.106 233.859 136.807 236.07C138.507 238.281 139.528 240.491 141.739 242.362C143.949 244.232 143.609 244.062 146.67 246.953C149.731 249.844 160.954 259.537 160.954 259.537C160.954 259.537 160.448 257.213 159.931 254.868C157.847 252.702 153.919 248.945 148.005 244.588C138.699 237.73 131.841 222.055 132.331 217.157C132.821 212.259 134.29 213.238 142.127 207.36C149.965 201.482 149.475 196.094 150.944 191.196C151.118 190.618 151.263 190.089 151.385 189.594ZM295.705 196.733L294.783 196.959C294.783 196.959 294.953 208.522 295.123 211.073C295.294 213.623 294.783 221.616 297.164 225.187C299.545 228.758 298.865 230.628 302.946 233.349C307.027 236.07 309.748 237.26 312.809 239.131C315.87 241.001 316.55 241.341 319.781 242.702C323.012 244.062 324.712 244.573 324.712 244.573C324.712 244.573 326.44 243.276 327.055 241.975C326.966 242.033 326.88 242.088 326.796 242.139C324.346 243.608 324.836 241.649 318.468 239.69C312.1 237.73 311.611 237.73 309.161 236.261C306.712 234.791 302.304 231.362 298.875 225.974C295.446 220.586 297.405 219.116 296.916 206.381C296.744 201.908 296.269 198.949 295.705 196.733ZM91.7515 198.208L90.8935 199.339C90.8935 199.339 92.424 208.182 94.2945 210.562C96.1651 212.943 97.6955 220.936 99.0559 223.656C100.416 226.377 101.437 230.288 103.307 232.329C105.178 234.369 108.069 238.621 108.919 240.321C109.769 242.022 110.959 243.722 111.98 245.763C113 247.803 116.911 251.374 117.081 252.565C117.251 253.755 116.571 258.346 116.911 259.027C117.127 259.457 117.547 260.229 118.517 260.866C118.242 260.116 119.25 260.323 118.615 256.834C117.635 251.446 118.615 254.385 117.146 249.976C115.676 245.568 113.227 243.608 109.308 238.71C105.39 233.812 105.88 232.832 102.451 226.954C99.0218 221.076 97.0625 212.259 94.6133 205.891C93.1924 202.196 92.2789 199.69 91.7515 198.208ZM361.613 200.87C361.613 200.87 358.212 216.514 356.511 221.956C354.811 227.397 354.471 227.057 353.11 229.438C351.75 231.819 348.689 234.54 346.649 236.58C344.608 238.621 343.588 238.961 338.486 241.342C333.385 243.722 331.684 246.103 323.862 253.585C316.04 261.067 316.72 259.027 309.578 263.788C302.436 268.55 296.314 269.57 283.73 274.671C271.146 279.773 271.827 282.494 262.644 291.676C253.461 300.859 256.182 304.26 252.781 312.082C249.38 319.905 249.04 324.666 248.02 331.128C246.999 337.59 249.04 339.971 246.999 349.833C246.389 352.785 246.296 354.852 246.502 356.383C261.153 357.038 261.157 363.128 261.157 363.128C261.157 363.128 261.647 359.209 261.647 351.862C261.647 344.514 259.198 344.514 256.259 339.616C253.32 334.718 254.3 329.819 253.32 325.411C252.34 321.002 254.79 318.063 258.218 309.246C261.647 300.429 264.096 299.45 266.546 293.082C268.995 286.714 272.914 286.714 286.139 279.856C299.365 272.998 301.324 272.998 312.59 266.63C323.857 260.263 321.407 259.773 324.346 256.834C327.285 253.895 329.734 250.956 329.734 250.956C329.734 250.956 339.041 246.057 344.43 242.629C349.818 239.2 347.859 239.689 352.757 234.301C357.655 228.913 357.165 222.545 360.104 213.728C361.278 210.209 362.216 205.597 362.921 201.325C362.171 201.063 361.613 200.87 361.613 200.87ZM276.078 201.89C276.078 201.89 272.847 208.012 271.487 212.093C270.126 216.174 270.466 215.154 269.276 218.385C268.086 221.616 269.616 221.956 270.296 224.847C270.976 227.738 272.167 228.588 274.037 232.329C275.908 236.07 278.799 237.26 282.03 240.661C285.261 244.062 288.322 245.763 290.192 247.803C292.063 249.844 294.613 252.735 295.294 255.116C295.974 257.496 297.844 260.897 298.694 262.938C299.545 264.979 300.055 263.278 301.925 262.768C302.406 262.637 302.763 262.438 303.039 262.201C302.278 259.869 300.861 256.094 298.98 253.586C296.094 249.739 290.443 245.771 285.633 239.999C280.823 234.227 278.899 233.265 278.899 233.265C275.67 230.442 273.073 228.604 273.128 220.76C273.128 220.76 276.242 211.417 278.943 203.105L276.078 201.89ZM80.0844 209.177L79.3301 214.134C80.5205 215.664 83.7514 228.588 84.7718 230.458C85.792 232.329 87.1524 238.111 89.193 241.342C91.2336 244.572 92.424 246.783 93.7844 248.484C95.1448 250.184 96.1651 253.075 98.5458 255.286C100.926 257.496 102.287 259.367 106.538 261.577C110.789 263.788 109.769 264.979 112.15 264.298C114.531 263.618 114.871 262.258 114.02 260.047C114.014 260.03 114.006 260.014 113.999 259.997C113.24 260.66 112.167 260.54 110.778 260.263C108.329 259.773 108.329 259.283 100.491 253.895C92.6539 248.507 97.5523 245.568 93.1438 243.608C88.7352 241.649 88.7352 236.261 86.286 229.893C84.5688 225.428 81.6771 215.045 80.0844 209.177ZM120.349 263.408C120.026 264.214 119.344 266.521 120.992 268.72C123.033 271.44 122.523 272.461 125.244 275.351C127.964 278.242 131.195 279.773 133.406 280.793C135.617 281.813 139.018 284.024 142.929 284.194C146.84 284.364 146.5 283.344 150.751 284.364C155.002 285.384 155.172 285.725 157.383 284.194C159.594 282.664 159.594 283.684 160.614 281.133C161.634 278.582 162.995 278.923 161.804 275.862C161.689 275.565 161.609 275.288 161.554 275.027C160.84 278.16 157.783 280.412 151.434 280.836C144.087 281.326 145.066 279.366 136.739 277.407C128.412 275.448 133.8 274.958 130.371 272.998C126.942 271.039 124.493 268.59 120.575 263.691C120.49 263.586 120.427 263.506 120.349 263.408Z" fill="black"/>
<path d="M59.5754 160.157C28.7931 187.092 2.82052 193.825 10.5161 212.102C18.2117 230.379 -0.0653082 255.39 33.6028 245.771C67.271 236.151 70.1568 233.265 78.8144 220.76C87.4719 208.255 85.548 203.445 97.0914 196.711C108.635 189.978 96.1294 194.787 113.444 189.978C130.76 185.168 127.874 176.51 135.569 181.32C143.265 186.13 132.683 197.673 149.999 191.902C167.314 186.13 169.237 176.51 177.895 174.586C186.553 172.663 183.667 171.701 193.286 176.51C202.906 181.32 188.476 189.978 209.639 183.244C230.802 176.51 225.992 174.586 235.612 169.777C245.231 164.967 251.965 165.929 245.231 156.309C238.498 146.69 243.307 147.652 204.83 134.185C166.352 120.717 166.352 112.06 141.341 120.717C116.33 129.375 93.2436 97.6306 59.5754 160.157Z" fill="#268C26"/>
<path d="M252.927 148.614C264.47 167.853 270.242 163.043 266.394 181.32C262.546 199.597 249.079 201.521 264.47 206.331C279.861 211.14 283.709 203.445 295.253 200.559C306.796 197.673 313.53 191.902 327.959 197.673C342.388 203.445 335.654 202.483 352.007 204.407C368.361 206.331 355.855 207.293 378.942 210.179C402.029 213.064 402.029 215.95 415.496 208.255C428.963 200.559 428.001 200.559 438.583 197.673C449.164 194.787 453.012 189.016 449.164 183.244C445.316 177.472 456.86 176.51 437.621 169.777C418.382 163.043 423.192 173.624 408.762 158.233C394.333 142.842 393.371 137.07 377.018 132.261C360.665 127.451 342.388 131.299 336.616 134.185C330.845 137.071 319.301 143.804 312.568 140.918C305.834 138.032 296.214 125.527 286.595 127.451C276.976 129.375 265.432 133.223 265.432 133.223C265.432 133.223 250.041 140.918 252.927 148.614Z" fill="#268C26"/>
<path d="M164.428 24.5226C136.531 37.9899 124.988 21.6368 124.988 46.6474C124.988 71.6581 129.798 64.9244 134.607 78.3917C139.417 91.859 143.265 96.6687 149.998 98.5926C156.732 100.517 167.314 101.478 182.705 95.7068C198.096 89.9351 197.134 82.2395 219.259 87.0492C241.383 91.859 244.269 93.7829 254.851 91.859C265.432 89.9351 251.965 90.897 280.823 83.2015C309.682 75.5059 308.72 78.3917 315.453 78.3917C322.187 78.3917 322.187 84.1634 339.502 77.4298C356.817 70.6962 357.779 57.2289 355.855 52.4191C353.931 47.6094 359.703 37.9899 326.035 32.2182C292.367 26.4465 297.176 27.4085 275.052 15.8651C252.927 4.32175 258.699 -1.44994 232.726 0.473953C206.753 2.39785 164.428 20.6748 164.428 20.6748C164.428 20.6748 175.009 13.9412 164.428 24.5226Z" fill="#268C26"/>
<path d="M215.436 137.928C209.942 139.543 210.114 143.562 212.649 150.535C214.805 156.463 217.812 154.28 218.97 153.116C217.326 154.909 211.595 160.633 205.847 160.058C199.045 159.378 199.725 160.738 191.563 160.738C183.401 160.738 185.441 158.017 181.36 155.976C177.279 153.936 167.076 159.378 158.913 166.86C150.751 174.342 150.751 175.022 150.751 175.022C150.751 175.022 141.909 175.702 139.188 170.261C136.467 164.819 144.629 160.738 144.629 160.738C144.629 160.738 143.949 160.058 132.386 165.499C120.822 170.941 111.98 164.819 107.218 166.86C102.457 168.9 100.416 175.022 101.096 178.423C101.777 181.824 108.579 179.784 101.096 187.946C93.6143 196.108 76.6093 200.87 74.5687 196.108C73.2507 193.033 75.0533 191.662 76.4957 191.075C73.1037 192.095 64.4982 195.149 57.5638 201.55C48.7212 209.712 48.7211 216.514 43.2795 226.037C37.8379 235.56 35.7974 234.199 26.2746 234.88C18.6032 235.428 15.3465 228.472 12.5919 222.19C13.375 238.135 5.8819 253.691 33.6028 245.771C67.271 236.151 70.1568 233.265 78.8143 220.76C87.4718 208.255 86.9083 208.206 98.4517 201.473C109.995 194.739 98.1699 200.909 115.485 196.099C132.8 191.29 127.874 176.51 135.569 181.32C143.265 186.13 132.683 197.673 149.998 191.902C167.314 186.13 169.237 176.51 177.895 174.587C186.552 172.663 183.667 171.701 193.286 176.51C202.906 181.32 188.476 189.978 209.639 183.244C230.802 176.51 225.992 174.586 235.612 169.777C245.231 164.967 251.965 165.929 245.231 156.31C239.195 147.687 242.411 147.559 215.436 137.928ZM76.4957 191.075C77.429 190.794 77.9697 190.667 77.9697 190.667C77.9697 190.667 77.2866 190.753 76.4957 191.075Z" fill="#1E6E1E"/>
<path d="M410.177 159.722C408.894 162.022 408.042 164.099 407.866 165.499C407.186 170.941 409.907 172.301 403.785 176.383C397.663 180.464 395.623 179.103 389.501 181.144C383.379 183.185 380.658 181.824 380.658 181.824C380.658 181.824 382.019 190.667 374.537 193.387C367.054 196.108 359.572 189.986 348.689 183.865C337.806 177.743 357.532 172.982 357.532 172.982C357.532 172.982 354.811 166.86 342.567 168.22C330.324 169.581 337.806 174.342 334.405 177.743C331.004 181.144 326.243 176.383 322.842 172.982C319.441 169.581 311.958 169.581 304.476 170.941C296.994 172.301 299.715 178.423 303.116 181.144C306.517 183.865 301.755 188.626 285.43 190.667C269.106 192.707 275.908 182.504 277.948 174.342C279.438 168.383 272.598 169.673 267.469 170.54C267.778 173.049 267.447 176.32 266.394 181.32C262.546 199.597 249.079 201.521 264.47 206.331C279.861 211.141 283.709 203.445 295.252 200.559C306.796 197.673 313.529 191.902 327.959 197.673C342.388 203.445 335.654 202.483 352.007 204.407C368.361 206.331 355.855 207.293 378.942 210.178C402.029 213.064 402.029 215.95 415.496 208.255C428.963 200.559 428.001 200.559 438.583 197.673C449.164 194.787 453.012 189.016 449.164 183.244C445.316 177.472 456.86 176.51 437.621 169.777C419.041 163.274 422.888 172.917 410.177 159.722Z" fill="#1E6E1E"/>
<path d="M342.644 38.481C336.033 38.4778 328.825 41.9368 324.882 43.0634C320.121 44.4238 322.842 42.3831 302.436 49.1851C282.03 55.9871 301.755 58.0278 294.953 64.1495C288.151 70.2713 285.431 68.2308 275.228 68.2308C265.025 68.2308 264.344 64.1496 253.461 55.9872C242.578 47.8248 237.136 60.0684 233.055 60.7485C228.974 61.4287 230.334 62.1091 222.172 66.8705C214.01 71.6319 219.451 66.8704 213.329 64.8298C207.208 62.7892 220.131 56.6674 218.771 53.2664C217.411 49.8654 209.248 51.2258 194.284 55.307C179.319 59.3882 184.081 58.0278 179.319 60.0684C174.558 62.109 184.081 68.2307 180.68 72.3119C177.279 76.3931 165.715 77.7536 150.751 76.3932C135.787 75.0328 141.908 70.9516 140.548 62.7892C139.648 57.3887 132.497 62.4088 127.76 66.4251C129.586 69.835 132.097 71.3616 134.607 78.3918C139.417 91.859 143.265 96.6688 149.998 98.5927C156.732 100.517 167.313 101.479 182.705 95.7069C198.096 89.9352 197.134 82.2396 219.259 87.0493C241.384 91.8591 244.269 93.7829 254.851 91.859C265.432 89.9351 251.965 90.8971 280.823 83.2015C309.682 75.5059 308.72 78.3918 315.453 78.3918C322.187 78.3918 322.187 84.1634 339.502 77.4297C356.817 70.6961 357.779 57.2289 355.855 52.4191C354.646 49.3959 356.476 44.4725 349.642 39.7988C348.632 39.5232 347.397 39.1864 346.649 38.9823C345.363 38.6315 344.016 38.4817 342.644 38.481Z" fill="#1E6E1E"/>
<path d="M19.4726 198.829C18.7924 206.311 13.3508 218.555 26.9548 212.433C40.5588 206.311 37.838 202.91 47.3608 197.469C56.8836 192.027 53.4826 201.55 61.645 188.626C69.8074 175.702 72.5282 170.941 67.0866 170.261C61.645 169.58 66.4064 166.86 58.244 170.261C50.0816 173.662 37.838 179.784 35.1172 183.865C32.3964 187.946 19.4726 198.829 19.4726 198.829Z" fill="url(#paint1_linear_2_626)"/>
<path d="M98.3757 129.449C84.0915 136.931 76.6093 136.251 79.3301 149.175C82.0509 162.098 72.5281 170.261 83.4113 169.581C94.2945 168.9 92.9341 160.058 97.6955 158.017C102.457 155.977 107.899 155.296 115.381 154.616C122.863 153.936 134.426 149.175 139.188 143.733C143.949 138.291 144.629 138.972 151.431 136.931C158.233 134.89 163.675 134.21 160.954 131.489C158.233 128.769 166.396 121.967 150.751 126.728C135.106 131.489 125.584 132.17 119.462 130.809C113.34 129.449 98.3757 129.449 98.3757 129.449Z" fill="url(#paint2_linear_2_626)"/>
<path d="M133.066 39.6623C126.944 47.8247 134.426 53.9465 137.147 54.6267C139.868 55.3069 139.188 57.3475 144.629 60.7485C150.071 64.1495 153.472 64.1495 156.873 60.0683C160.274 55.9871 161.634 46.4643 169.117 46.4643C176.599 46.4643 182.04 51.9059 191.563 43.7435C201.086 35.5811 197.005 42.3831 203.126 32.1802C209.248 21.9772 211.289 15.8553 205.847 15.8553C200.406 15.8553 206.528 9.73355 191.563 17.2157C176.599 24.6979 177.959 28.0989 170.477 30.8197C162.995 33.5405 156.873 36.2613 156.873 36.2613L133.066 39.6623Z" fill="url(#paint3_linear_2_626)"/>
<path d="M224.893 15.8554C227.614 20.6168 238.497 20.6168 235.776 26.7386C233.055 32.8604 207.208 33.5406 219.451 40.3426C231.695 47.1446 241.898 43.0634 242.578 40.3426C243.258 37.6218 243.258 34.901 250.06 34.901C256.862 34.901 249.38 36.9416 264.344 37.6218C279.309 38.302 289.512 36.2614 292.233 34.2208C294.953 32.1802 304.476 33.5406 287.471 28.7792C270.466 24.0178 264.344 21.297 257.542 15.8554C250.74 10.4138 258.223 5.65244 244.619 7.69304C231.015 9.73364 224.893 15.8554 224.893 15.8554Z" fill="url(#paint4_linear_2_626)"/>
<path d="M284.75 138.971C274.547 140.332 257.542 141.012 266.385 147.814C275.228 154.616 271.146 155.296 277.948 164.139C284.75 172.981 301.075 175.702 297.674 162.778C294.273 149.855 297.674 149.855 301.755 148.494C305.837 147.134 308.557 145.093 302.436 141.012C296.314 136.931 284.75 138.971 284.75 138.971Z" fill="url(#paint5_linear_2_626)"/>
<path d="M355.491 138.971C343.928 140.332 337.126 140.332 328.283 147.814C319.441 155.296 311.958 154.616 316.04 159.377C320.121 164.139 325.562 164.819 328.283 164.819C331.004 164.819 326.923 163.459 333.725 160.058C340.527 156.657 348.009 148.494 352.09 151.895C356.171 155.296 355.491 155.976 357.532 159.377C359.572 162.778 348.689 161.418 363.654 166.179C378.618 170.941 382.699 172.301 387.461 171.621C392.222 170.941 399.704 163.459 391.542 161.418C383.379 159.377 383.379 155.976 384.74 152.575C386.1 149.175 388.141 150.535 383.379 145.774C378.618 141.012 355.491 138.971 355.491 138.971Z" fill="url(#paint6_linear_2_626)"/>
<path d="M356.117 53.192C350.63 55.0557 344.567 57.0677 341.207 58.0278C334.065 60.0684 335.765 65.8502 324.542 70.2715C313.319 74.6928 305.836 71.9718 296.994 75.3728C288.151 78.7738 283.05 76.3933 275.908 78.4339C268.766 80.4745 267.405 81.8349 249.38 80.1344C231.355 78.4339 242.918 71.972 235.776 71.972C228.634 71.972 226.593 82.515 218.091 81.1546C209.588 79.7942 209.248 70.2714 190.883 83.8754C172.517 97.4794 158.914 87.9566 155.853 87.6165C152.792 87.2764 149.391 89.6571 142.929 88.9769C141.228 88.7979 139.528 87.8886 137.946 86.6462C141.423 93.9933 144.875 97.1289 149.998 98.5927C156.732 100.517 167.313 101.479 182.705 95.7069C198.096 89.9352 197.134 82.2396 219.259 87.0493C241.384 91.8591 244.269 93.7829 254.851 91.8591C265.432 89.9352 251.965 90.8971 280.823 83.2015C309.682 75.5059 308.72 78.3918 315.453 78.3918C322.187 78.3918 322.187 84.1634 339.502 77.4297C355.964 71.0279 357.644 58.5402 356.117 53.192Z" fill="#164E16"/>
<path d="M226.187 158.472C220.726 158.459 226.253 161.758 217.411 166.179C206.527 171.621 213.669 168.9 212.309 171.961C210.949 175.022 210.268 174.342 202.786 177.743C195.304 181.144 199.725 174.342 194.284 170.261C188.842 166.18 182.38 170.601 176.939 170.941C171.497 171.281 165.375 175.702 156.193 182.504C147.01 189.306 147.69 185.905 142.248 178.763C136.807 171.621 137.147 175.362 132.726 173.662C128.304 171.961 130.005 180.124 125.924 180.464C121.843 180.804 124.223 180.464 121.502 180.804C118.782 181.144 115.041 183.185 115.041 187.946C115.041 192.707 114.7 188.626 102.117 196.448C89.533 204.271 91.2334 202.57 82.3908 206.651C73.5483 210.733 79.33 211.073 74.9087 216.174C70.4874 221.276 71.8479 216.174 57.5637 226.377C43.2795 236.58 55.1829 234.54 53.4824 235.9C51.7819 237.26 41.5789 239.301 21.8531 242.702C18.0014 243.366 15.2168 243.575 13.2056 243.478C15.0863 247.959 20.2732 249.579 33.6028 245.77C67.2709 236.151 70.1567 233.265 78.8143 220.76C87.4718 208.255 86.9082 208.206 98.4516 201.473C109.995 194.739 98.1699 200.909 115.485 196.099C132.8 191.29 127.874 176.51 135.569 181.32C143.265 186.13 132.683 197.673 149.998 191.902C167.313 186.13 169.237 176.51 177.895 174.586C186.552 172.663 183.667 171.701 193.286 176.51C202.905 181.32 188.476 189.978 209.639 183.244C230.802 176.51 225.992 174.586 235.612 169.777C241.863 166.651 246.894 165.962 247.804 163.223C244.733 161.826 239.691 160.106 232.035 159.037C229.293 158.655 227.447 158.475 226.187 158.472Z" fill="#164E16"/>
<path d="M447.218 175.886C443.087 175.884 441.945 182.85 434.734 186.926C426.912 191.347 426.912 189.306 419.43 185.565C411.948 181.824 414.328 187.606 403.785 197.809C393.242 208.012 380.658 203.59 380.658 203.59C380.658 203.59 378.618 199.169 373.856 199.169C369.095 199.169 372.496 200.19 367.735 202.91C362.973 205.631 358.892 203.59 351.41 198.829C343.928 194.068 340.187 191.687 340.187 191.687C340.187 191.687 340.186 192.027 341.547 195.088C342.907 198.149 338.146 195.088 325.902 192.367C313.659 189.646 322.841 188.966 317.06 184.545C311.278 180.124 311.618 185.225 313.319 186.586C315.019 187.946 311.618 190.667 303.796 193.047C295.973 195.428 295.293 193.728 291.552 194.408C287.811 195.088 277.608 199.509 269.786 198.829C262.946 198.234 263.647 195.04 262.34 192.2C257.639 200.729 252.899 202.715 264.47 206.331C279.861 211.141 283.709 203.445 295.252 200.559C306.796 197.673 313.529 191.902 327.959 197.673C342.388 203.445 335.654 202.483 352.007 204.407C368.36 206.331 355.855 207.293 378.942 210.178C402.029 213.064 402.029 215.95 415.496 208.255C428.963 200.559 428.001 200.559 438.583 197.673C449.164 194.787 453.012 189.016 449.164 183.244C447.015 180.02 449.666 178.297 449.074 176.23C448.827 176.169 448.581 176.107 448.338 176.042C447.94 175.936 447.568 175.886 447.218 175.886Z" fill="#164E16"/>
<defs>
<radialGradient id="paint0_radial_2_626" cx="0" cy="0" r="1" gradientUnits="userSpaceOnUse" gradientTransform="translate(239.857 364.118) scale(239.43 20.406)">
<stop/>
<stop offset="1" stop-opacity="0"/>
</radialGradient>
<linearGradient id="paint1_linear_2_626" x1="39.8786" y1="180.464" x2="50.7618" y2="200.87" gradientUnits="userSpaceOnUse">
<stop stop-color="#36C536"/>
<stop offset="1" stop-color="#36C536" stop-opacity="0"/>
</linearGradient>
<linearGradient id="paint2_linear_2_626" x1="99.7361" y1="132.17" x2="112.66" y2="166.18" gradientUnits="userSpaceOnUse">
<stop stop-color="#36C536"/>
<stop offset="1" stop-color="#36C536" stop-opacity="0"/>
</linearGradient>
<linearGradient id="paint3_linear_2_626" x1="174.558" y1="28.7791" x2="183.401" y2="58.0277" gradientUnits="userSpaceOnUse">
<stop stop-color="#36C536"/>
<stop offset="1" stop-color="#36C536" stop-opacity="0"/>
</linearGradient>
<linearGradient id="paint4_linear_2_626" x1="238.497" y1="11.7742" x2="273.187" y2="47.1446" gradientUnits="userSpaceOnUse">
<stop stop-color="#36C536"/>
<stop offset="1" stop-color="#36C536" stop-opacity="0"/>
</linearGradient>
<linearGradient id="paint5_linear_2_626" x1="290.192" y1="141.012" x2="285.431" y2="172.981" gradientUnits="userSpaceOnUse">
<stop stop-color="#36C536"/>
<stop offset="1" stop-color="#36C536" stop-opacity="0"/>
</linearGradient>
<linearGradient id="paint6_linear_2_626" x1="359.572" y1="138.291" x2="386.1" y2="182.504" gradientUnits="userSpaceOnUse">
<stop stop-color="#36C536"/>
<stop offset="1" stop-color="#36C536" stop-opacity="0"/>
</linearGradient>
</defs>
</svg>
