<svg width="1000" height="667" viewBox="0 0 1000 667" fill="none" xmlns="http://www.w3.org/2000/svg">
<style  type="text/css">
#cloud1, #cloud2 {
    animation: move-clouds 50s linear infinite;
}

#bird1, #bird2, #bird4, #bird7 {
    animation: fly 15s linear infinite forwards;
}

#bird3, #bird5, #bird6, #bird8 {
    animation: fly2 25s linear infinite forwards;
}

@keyframes move-clouds {
    from {
        transform: translate3d(-50vw, 0px, 0px);
    }
    to {
        transform: translate3d(100vw, 0px, 0px);
    }
}

@keyframes fly {
    0% {
        transform: translateX(-30vw) translateY(0);
    }
    25% {
        transform: translateX(15vw) translateY(-15%);
    }
    50% {
        transform: translateX(50vw) translateY(0);
    }
    75% {
        transform: translateX(75vw) translateY(20%);
    }
    100% {
        transform: translateX(100vw) translateY(0);
    }
}

@keyframes fly2 {
    0% {
        transform: translateX(-40vw) translateY(-15%);
    }
    25% {
        transform: translateX(10vw) translateY(0);
    }
    50% {
        transform: translateX(30vw) translateY(25%);
    }
    75% {
        transform: translateX(50vw) translateY(0);
    }
    100% {
        transform: translateX(100vw) translateY(0);
    }
}
</style>
<g id="background">
<g id="g10">
<g id="g12">
<g id="g18">
<g id="g20">
<path id="path30" d="M0 666.667H1000V6.00815e-05H0V666.667Z" fill="url(#paint0_linear_1_3)"/>
</g>
</g>
</g>
</g>
<g id="g32">
<g id="Clip path group">
<mask id="mask0_1_3" style="mask-type:luminance" maskUnits="userSpaceOnUse" x="0" y="0" width="1000" height="667">
<g id="clipPath38">
<path id="path36" d="M0 6.00815e-05H1000V666.667H0V6.00815e-05Z" fill="white"/>
</g>
</mask>
<g mask="url(#mask0_1_3)">
<g id="g34">
<g id="g40">
<g id="g54">
<g id="Clip path group_2">
<mask id="mask1_1_3" style="mask-type:luminance" maskUnits="userSpaceOnUse" x="392" y="212" width="216" height="217">
<g id="clipPath46">
<path id="path44" d="M392.312 212.771H607.688V428.147H392.312V212.771Z" fill="white"/>
</g>
</mask>
<g mask="url(#mask1_1_3)">
<g id="g52" opacity="0.850006">
<g id="g50">
<path id="path48" d="M607.687 320.459C607.687 379.934 559.474 428.147 499.999 428.147C440.525 428.147 392.311 379.934 392.311 320.459C392.311 260.984 440.525 212.771 499.999 212.771C559.474 212.771 607.687 260.984 607.687 320.459Z" fill="#FFEFC8"/>
</g>
</g>
</g>
</g>
</g>
</g>
</g>
</g>
</g>
</g>
<g id="brume2">
<g id="Clip path group_3">
<mask id="mask2_1_3" style="mask-type:luminance" maskUnits="userSpaceOnUse" x="0" y="60" width="692" height="38">
<g id="clipPath62">
<path id="path60" d="M0 88.2547C36.9253 88.9387 691.588 97.536 691.588 97.536C691.588 97.536 58.6973 63.7253 0 60.236V88.2547Z" fill="white"/>
</g>
</mask>
<g mask="url(#mask2_1_3)">
<g id="g58">
<g id="g64">
<g id="Mask group">
<mask id="mask3_1_3" style="mask-type:luminance" maskUnits="userSpaceOnUse" x="-43691" y="-43023" width="87381" height="87381">
<g id="Group">
<g id="g90">
<g id="g88">
<g id="g86">
<g id="g84">
<path id="path82" d="M-43690.7 -43022.7H43689.3V44357.3H-43690.7V-43022.7Z" fill="url(#paint1_linear_1_3)"/>
</g>
</g>
</g>
</g>
</g>
</mask>
<g mask="url(#mask3_1_3)">
<g id="g92">
<g id="g94">
<path id="path104" d="M0 88.2538C36.9253 88.9378 691.588 97.5352 691.588 97.5352C691.588 97.5352 58.6973 63.7245 0 60.2352V88.2538Z" fill="url(#paint2_linear_1_3)"/>
</g>
</g>
</g>
</g>
</g>
</g>
</g>
</g>
</g>
<g id="brume1">
<g id="Clip path group_4">
<mask id="mask4_1_3" style="mask-type:luminance" maskUnits="userSpaceOnUse" x="391" y="106" width="609" height="34">
<g id="clipPath112">
<path id="path110" d="M391.657 139.279C391.657 139.279 814.971 133.719 1000 131.187V106.587C812.999 116.769 391.657 139.279 391.657 139.279Z" fill="white"/>
</g>
</mask>
<g mask="url(#mask4_1_3)">
<g id="g108">
<g id="g114">
<g id="Mask group_2">
<mask id="mask5_1_3" style="mask-type:luminance" maskUnits="userSpaceOnUse" x="-43691" y="-43023" width="87381" height="87381">
<g id="Group_2">
<g id="g140">
<g id="g138">
<g id="g136">
<g id="g134">
<path id="path132" d="M-43690.7 -43022.7H43689.3V44357.3H-43690.7V-43022.7Z" fill="url(#paint3_linear_1_3)"/>
</g>
</g>
</g>
</g>
</g>
</mask>
<g mask="url(#mask5_1_3)">
<g id="g142">
<g id="g144">
<path id="path154" d="M391.656 139.277C391.656 139.277 814.97 133.717 999.999 131.185V106.585C812.998 116.768 391.656 139.277 391.656 139.277Z" fill="url(#paint4_linear_1_3)"/>
</g>
</g>
</g>
</g>
</g>
</g>
</g>
</g>
</g>
<g id="cloud4">
<g id="Clip path group_5">
<mask id="mask6_1_3" style="mask-type:luminance" maskUnits="userSpaceOnUse" x="0" y="200" width="393" height="154">
<g id="clipPath162">
<path id="path160" d="M0 201.049V353.368H352.195C355.949 351.439 484.388 300.508 260.951 285.388C252.948 284.847 245.141 285.573 237.688 285.916C242.668 283.093 245.513 279.847 245.513 276.389C245.513 265.525 217.504 256.717 182.953 256.717C175.175 256.717 167.733 257.168 160.863 257.984C160.22 257.669 159.577 257.365 158.933 257.059C168.504 252.704 174.345 246.904 174.345 240.537C174.345 227.012 148.009 216.048 115.52 216.048C94.4987 216.048 76.0627 220.644 65.66 227.547C61.388 212.403 36.9787 200.796 7.50133 200.796C4.95867 200.796 2.45733 200.881 0 201.049Z" fill="white"/>
</g>
</mask>
<g mask="url(#mask6_1_3)">
<g id="g158">
<g id="g164">
<g id="Mask group_3">
<mask id="mask7_1_3" style="mask-type:luminance" maskUnits="userSpaceOnUse" x="-43691" y="-43023" width="87381" height="87381">
<g id="Group_3">
<g id="g190">
<g id="g188">
<g id="g186">
<g id="g184">
<path id="path182" d="M-43690.7 -43022.7H43689.3V44357.3H-43690.7V-43022.7Z" fill="url(#paint5_linear_1_3)"/>
</g>
</g>
</g>
</g>
</g>
</mask>
<g mask="url(#mask7_1_3)">
<g id="g192">
<g id="g194">
<path id="path204" d="M0 201.048V353.367H352.195C355.949 351.438 484.388 300.507 260.951 285.387C252.948 284.846 245.141 285.573 237.688 285.915C242.668 283.093 245.513 279.846 245.513 276.389C245.513 265.525 217.504 256.717 182.953 256.717C175.175 256.717 167.733 257.167 160.863 257.983C160.22 257.669 159.577 257.365 158.933 257.058C168.504 252.703 174.345 246.903 174.345 240.537C174.345 227.011 148.009 216.047 115.52 216.047C94.4987 216.047 76.0627 220.643 65.66 227.546C61.388 212.402 36.9787 200.795 7.50133 200.795C4.95867 200.795 2.45733 200.88 0 201.048Z" fill="url(#paint6_linear_1_3)"/>
</g>
</g>
</g>
</g>
</g>
</g>
</g>
</g>
</g>
<g id="cloud3">
<g id="Clip path group_6">
<mask id="mask8_1_3" style="mask-type:luminance" maskUnits="userSpaceOnUse" x="579" y="195" width="421" height="194">
<g id="clipPath212">
<path id="path210" d="M977.731 216.165C967.329 209.26 948.893 204.665 927.871 204.665C895.383 204.665 869.047 215.628 869.047 229.153C869.047 235.521 874.888 241.321 884.46 245.676C883.817 245.983 883.172 246.288 882.531 246.601C875.659 245.785 868.219 245.335 860.439 245.335C825.889 245.335 797.88 254.141 797.88 265.007C797.88 268.464 800.725 271.711 805.704 274.533C740.277 260.665 667.241 303.132 701.312 327.565C627.561 309.264 532.747 339.24 606.377 388.836L1000 360.783V195.953C988.268 200.799 980.045 207.964 977.731 216.165Z" fill="white"/>
</g>
</mask>
<g mask="url(#mask8_1_3)">
<g id="g208">
<g id="g214">
<g id="Mask group_4">
<mask id="mask9_1_3" style="mask-type:luminance" maskUnits="userSpaceOnUse" x="-43691" y="-43023" width="87381" height="87381">
<g id="Group_4">
<g id="g240">
<g id="g238">
<g id="g236">
<g id="g234">
<path id="path232" d="M-43690.7 -43022.7H43689.3V44357.3H-43690.7V-43022.7Z" fill="url(#paint7_linear_1_3)"/>
</g>
</g>
</g>
</g>
</g>
</mask>
<g mask="url(#mask9_1_3)">
<g id="g242">
<g id="g244">
<path id="path254" d="M977.729 216.165C967.328 209.26 948.892 204.665 927.869 204.665C895.381 204.665 869.045 215.628 869.045 229.153C869.045 235.521 874.887 241.321 884.459 245.676C883.816 245.983 883.171 246.288 882.529 246.601C875.657 245.785 868.217 245.335 860.437 245.335C825.888 245.335 797.879 254.141 797.879 265.007C797.879 268.464 800.724 271.711 805.703 274.533C740.276 260.665 667.24 303.132 701.311 327.565C627.56 309.264 532.745 339.24 606.376 388.836L999.999 360.783V195.953C988.267 200.799 980.044 207.964 977.729 216.165Z" fill="url(#paint8_linear_1_3)"/>
</g>
</g>
</g>
</g>
</g>
</g>
</g>
</g>
</g>
<g id="cloud1">
<g id="Clip path group_7">
<mask id="mask10_1_3" style="mask-type:luminance" maskUnits="userSpaceOnUse" x="87" y="134" width="371" height="42">
<g id="clipPath262">
<path id="path260" d="M198.435 146.337C198.435 146.447 198.469 146.553 198.488 146.663C165.191 147.881 140.453 152.421 140.453 157.836C140.453 159.197 142.025 160.503 144.893 161.715C142.708 161.671 140.481 161.647 138.217 161.647C110.167 161.647 87.4267 165.089 87.4267 169.336C87.4267 171.84 95.3467 174.065 107.597 175.469H457.757C457.764 175.407 457.788 175.345 457.788 175.283C457.788 169.571 430.26 164.832 394.193 163.937C401.521 162.168 405.775 160.079 405.775 157.836C405.775 152.559 382.285 148.116 350.279 146.761C350.313 146.621 350.351 146.48 350.351 146.337C350.351 139.985 316.343 134.837 274.392 134.837C232.443 134.837 198.435 139.985 198.435 146.337Z" fill="white"/>
</g>
</mask>
<g mask="url(#mask10_1_3)">
<g id="g258">
<g id="g264">
<g id="Mask group_5">
<mask id="mask11_1_3" style="mask-type:luminance" maskUnits="userSpaceOnUse" x="-43691" y="-43023" width="87381" height="87381">
<g id="Group_5">
<g id="g290">
<g id="g288">
<g id="g286">
<g id="g284">
<path id="path282" d="M-43690.7 -43022.7H43689.3V44357.3H-43690.7V-43022.7Z" fill="url(#paint9_linear_1_3)"/>
</g>
</g>
</g>
</g>
</g>
</mask>
<g mask="url(#mask11_1_3)">
<g id="g292">
<g id="g294">
<path id="path304" d="M198.434 146.337C198.434 146.446 198.468 146.553 198.487 146.662C165.19 147.881 140.452 152.421 140.452 157.835C140.452 159.197 142.024 160.502 144.892 161.714C142.707 161.67 140.48 161.646 138.216 161.646C110.166 161.646 87.4258 165.089 87.4258 169.335C87.4258 171.839 95.3458 174.065 107.596 175.469H457.756C457.763 175.406 457.787 175.345 457.787 175.282C457.787 169.57 430.259 164.831 394.192 163.937C401.52 162.167 405.774 160.078 405.774 157.835C405.774 152.558 382.284 148.115 350.278 146.761C350.312 146.621 350.35 146.479 350.35 146.337C350.35 139.985 316.342 134.837 274.391 134.837C232.442 134.837 198.434 139.985 198.434 146.337Z" fill="url(#paint10_linear_1_3)"/>
</g>
</g>
</g>
</g>
</g>
</g>
</g>
</g>
</g>
<g id="cloud2">
<g id="Clip path group_8">
<mask id="mask12_1_3" style="mask-type:luminance" maskUnits="userSpaceOnUse" x="441" y="194" width="333" height="37">
<g id="clipPath312">
<path id="path310" d="M548.588 205.849C548.588 207.189 549.68 208.473 551.676 209.665C518.317 211.153 494.253 215.375 494.253 220.352C494.253 222.819 500.179 225.099 510.2 226.955C508.695 226.944 507.179 226.937 505.651 226.937C479.864 226.937 456.804 228.5 441.409 230.956H768.449C772.005 229.708 773.968 228.353 773.968 226.937C773.968 220.717 736.392 215.673 690.041 215.673C678.4 215.673 667.315 215.992 657.236 216.567C653.695 215.233 648.331 214.02 641.556 212.972C648.933 211.032 653.363 208.552 653.363 205.849C653.363 199.629 629.909 194.585 600.977 194.585C572.043 194.585 548.588 199.629 548.588 205.849Z" fill="white"/>
</g>
</mask>
<g mask="url(#mask12_1_3)">
<g id="g308">
<g id="g314">
<g id="Mask group_6">
<mask id="mask13_1_3" style="mask-type:luminance" maskUnits="userSpaceOnUse" x="-43691" y="-43023" width="87381" height="87381">
<g id="Group_6">
<g id="g340">
<g id="g338">
<g id="g336">
<g id="g334">
<path id="path332" d="M-43690.7 -43022.7H43689.3V44357.3H-43690.7V-43022.7Z" fill="url(#paint11_linear_1_3)"/>
</g>
</g>
</g>
</g>
</g>
</mask>
<g mask="url(#mask13_1_3)">
<g id="g342">
<g id="g344">
<path id="path354" d="M548.589 205.85C548.589 207.19 549.681 208.474 551.677 209.666C518.318 211.154 494.254 215.376 494.254 220.353C494.254 222.82 500.179 225.1 510.201 226.956C508.695 226.945 507.179 226.938 505.651 226.938C479.865 226.938 456.805 228.501 441.41 230.957H768.45C772.006 229.709 773.969 228.354 773.969 226.938C773.969 220.718 736.393 215.674 690.042 215.674C678.401 215.674 667.315 215.993 657.237 216.568C653.695 215.234 648.331 214.021 641.557 212.973C648.934 211.033 653.363 208.553 653.363 205.85C653.363 199.63 629.91 194.586 600.978 194.586C572.043 194.586 548.589 199.63 548.589 205.85Z" fill="url(#paint12_linear_1_3)"/>
</g>
</g>
</g>
</g>
</g>
</g>
</g>
</g>
</g>
<g id="g356">
<g id="Clip path group_9">
<mask id="mask14_1_3" style="mask-type:luminance" maskUnits="userSpaceOnUse" x="0" y="0" width="1000" height="667">
<g id="clipPath362">
<path id="path360" d="M0 666.667H1000V6.00815e-05H0V666.667Z" fill="white"/>
</g>
</mask>
<g mask="url(#mask14_1_3)">
<g id="g358">
<g id="g364">
<path id="path366" d="M792.625 475.862C793.18 471.231 793.808 467.778 793.808 467.778L763.593 444.679L727.338 423.89L694.069 385.234L664.684 367.959C664.684 367.959 644.404 341.186 640.486 342.702C625.678 348.429 597.666 367.965 597.666 367.965L557.681 407.145L511.937 431.975L478.71 467.449C478.71 467.449 473.62 470.673 465.085 475.862H792.625Z" fill="#38B5B1"/>
</g>
<g id="g368">
<path id="path370" d="M513.311 414.885C514.013 410.037 514.807 406.42 514.807 406.42L476.587 382.237L430.729 360.471L388.645 319.997L351.474 301.909L320.865 275.464L276.578 308.967L216.121 342.937L158.259 368.935L116.229 406.079C116.229 406.079 109.789 409.453 98.9939 414.885H513.311Z" fill="#38B5B1"/>
</g>
<g id="g372">
<path id="path374" d="M287.305 361.219L250.946 350.097L259.627 349.027L327.993 343.039L296.627 332.879V328.215L338.313 323.005L293.159 312.067L292.582 307.645L316.274 292.964L311.917 285.527C311.917 285.527 312.05 282.893 312.633 281.691L276.578 308.967L216.121 342.937L169.499 363.884C208.774 363.253 287.305 361.219 287.305 361.219Z" fill="#41CDC8"/>
</g>
<g id="g376">
<path id="path378" d="M1113.48 376.163C1110.14 373.663 1107.07 370.775 1104.04 367.804C1085.65 357.401 1067.34 346.636 1048.51 337.833C1047.26 337.377 1046.01 336.915 1044.76 336.432C1036.44 333.216 1030.35 328.564 1023.94 320.355C1013.29 306.7 995.106 275.167 995.106 275.167L947.955 238.664L930.227 200.732L922.967 203.756C922.967 203.756 891.975 238.387 883.188 245.924C871.638 255.831 852.455 289.219 841.36 300.205C836.715 304.804 827.351 311.297 817.59 318.304C813.083 325.432 808.728 332.756 804.088 339.729C800.067 345.775 795.816 351.559 791.063 356.517C786.248 361.537 780.39 364.591 775.908 370.18C771.756 375.357 768.772 382.413 765.234 388.367C760.502 396.325 754.646 403.081 749.027 409.823C745.234 414.375 741.372 418.823 737.452 423.172C761.568 420.2 785.692 417.579 809.83 415.579C878.383 409.897 946.692 411.153 1015.02 413.437C1041.17 414.311 1133.83 411.027 1154.97 409.117C1153.67 408.107 1152.37 407.087 1151.08 406.053C1138.53 395.992 1126.25 385.705 1113.48 376.163Z" fill="#38B5B1"/>
</g>
<g id="g380">
<path id="path382" d="M777.091 385.245C785.65 382.383 802.918 377.39 802.918 377.39L815.753 362.57L812.847 347.761L823.675 338.685L837.254 332.766L850.097 322.515L855.394 295.617V291.441L870.702 277.671L890.859 267.798L881.063 256.433L890.859 248.849L904.646 234.171L919.854 229.502L916.135 219.443C916.135 219.443 926.489 205.134 930.741 201.834L930.227 200.731L922.967 203.755C922.967 203.755 891.975 238.386 883.189 245.923C871.638 255.831 852.455 289.218 841.361 300.205C836.715 304.805 827.351 311.297 817.589 318.303C813.083 325.431 808.729 332.757 804.089 339.729C800.067 345.774 795.817 351.558 791.063 356.517C786.249 361.538 780.39 364.591 775.909 370.179C771.757 375.358 768.773 382.414 765.233 388.367C765.017 388.73 764.786 389.079 764.565 389.439C768.739 388.039 772.915 386.639 777.091 385.245Z" fill="#41CDC8"/>
</g>
<g id="g384">
<path id="path386" d="M989.299 380.641L959.529 348.795L899.885 327.549L853.253 295.453L820.126 277.671L794.861 304.934L672.329 388.697L570.579 434.546L513.771 467.663C513.771 467.663 497.289 474.389 486.411 483.61L820.348 541.977L1036.15 523.603C1036.15 492.958 1036.11 391.675 1036.11 391.675L989.299 380.641Z" fill="#61CAC8"/>
</g>
</g>
</g>
</g>
</g>
<g id="g388">
<g id="g390">
<g id="g396">
<g id="g398">
<path id="path406" d="M794.861 304.933L672.329 388.696L570.58 434.545L513.771 464.041C513.771 464.041 505.963 464.085 500.963 469.364C514.215 467.972 527.305 465.42 540.272 462.436C558.013 458.353 575.379 453.467 593.584 451.116C610.541 448.927 644.585 445.365 644.585 445.365L605.713 430.665L699.552 422.76L680.172 403.675L724.901 394.431L761.281 373.451L741.188 360.433L870.701 343.068L806.057 331.332L790.067 324.932L802.421 318.259L804.275 304.855L809.731 288.888L794.861 304.933Z" fill="url(#paint13_linear_1_3)"/>
</g>
</g>
</g>
</g>
<g id="g408">
<g id="Clip path group_10">
<mask id="mask15_1_3" style="mask-type:luminance" maskUnits="userSpaceOnUse" x="0" y="0" width="1000" height="667">
<g id="clipPath414">
<path id="path412" d="M0 666.667H1000V6.00815e-05H0V666.667Z" fill="white"/>
</g>
</mask>
<g mask="url(#mask15_1_3)">
<g id="g410">
<g id="g416">
<path id="path418" d="M114.771 380.641L85.0001 348.795L25.3561 327.549L-21.2759 295.453L-54.4012 277.671L-79.6679 304.934L-202.199 388.697L-303.949 434.546L-360.757 467.663C-360.757 467.663 -377.24 474.389 -388.117 483.61L-54.1799 541.977L161.621 523.603C161.621 492.958 161.585 391.675 161.585 391.675L114.771 380.641Z" fill="#61CAC8"/>
</g>
<g id="g420">
<path id="path422" d="M713.686 469.363C702.835 464.938 569.585 400.783 569.585 400.783L489.558 373.657L431.719 329.774L363.083 372.123L311.225 412.314L259.801 434.197L149.753 513.142L942.83 568.003L713.686 469.363Z" fill="#61CAC8"/>
</g>
</g>
</g>
</g>
</g>
<g id="g424">
<g id="g426">
<g id="g432">
<g id="g434">
<path id="path442" d="M363.083 372.124L311.225 412.313L259.801 434.197L165.98 501.501L221.596 469.364L267.64 447.385L316.757 428.379L368.585 411.967L337.328 403.239L372.999 387.948L378.56 370.009L395.34 362.439L426.484 355.197L416.079 343.816L435.645 341.797L426.108 337.517C426.121 337.461 426.137 337.401 426.161 337.327C426.608 336.005 426.857 334.395 426.964 332.708L363.083 372.124Z" fill="url(#paint14_linear_1_3)"/>
</g>
</g>
</g>
</g>
<g id="g444">
<g id="Clip path group_11">
<mask id="mask16_1_3" style="mask-type:luminance" maskUnits="userSpaceOnUse" x="0" y="0" width="1000" height="667">
<g id="clipPath450">
<path id="path448" d="M0 666.667H1000V6.00815e-05H0V666.667Z" fill="white"/>
</g>
</mask>
<g mask="url(#mask16_1_3)">
<g id="g446">
<g id="g452">
<path id="path454" d="M417.861 457.533L379.977 439.198L300.813 404.691L263.924 357.834L195.007 312.278L157.835 269.058L110.124 323.39L72.5613 356.666L-16.9133 378.881L20.768 501.502L488.377 513.142L417.861 457.533Z" fill="#61CAC8"/>
</g>
</g>
</g>
</g>
</g>
<g id="g456">
<g id="g458">
<g id="g464">
<g id="g466">
<path id="path474" d="M110.124 323.389L72.5613 356.665L0 374.681V416.777C20.1733 417.343 51.7667 414.052 51.7667 414.052L6.892 400.804V396.629L114.917 372.417L94.5547 356.14L100.457 345.745L134.064 337.728L120.775 333.299L119.707 329.257L146.233 309.115L141.901 303.475V300.055L159.631 271.145L157.835 269.057L110.124 323.389Z" fill="url(#paint15_linear_1_3)"/>
</g>
</g>
</g>
</g>
<g id="g476">
<g id="Clip path group_12">
<mask id="mask17_1_3" style="mask-type:luminance" maskUnits="userSpaceOnUse" x="383" y="367" width="429" height="26">
<g id="clipPath482">
<path id="path480" d="M546.149 379.361L383.887 390.709L500.627 392.259L629.573 390.52L811.895 385.104L597.892 370.94L467.856 367.333L546.149 379.361Z" fill="white"/>
</g>
</mask>
<g mask="url(#mask17_1_3)">
<g id="g478">
<g id="g484">
<g id="Mask group_7">
<mask id="mask18_1_3" style="mask-type:luminance" maskUnits="userSpaceOnUse" x="-43691" y="-43023" width="87381" height="87381">
<g id="Group_7">
<g id="g508">
<g id="g506">
<g id="g504">
<g id="g502">
<path id="path500" d="M-43690.7 -43022.7H43689.3V44357.3H-43690.7V-43022.7Z" fill="url(#paint16_linear_1_3)"/>
</g>
</g>
</g>
</g>
</g>
</mask>
<g mask="url(#mask18_1_3)">
<g id="g510">
<g id="g512">
<path id="path520" d="M546.149 379.36L383.887 390.708L500.627 392.258L629.573 390.519L811.895 385.103L597.892 370.939L467.856 367.332L546.149 379.36Z" fill="url(#paint17_linear_1_3)"/>
</g>
</g>
</g>
</g>
</g>
</g>
</g>
</g>
</g>
<g id="g522">
<g id="Clip path group_13">
<mask id="mask19_1_3" style="mask-type:luminance" maskUnits="userSpaceOnUse" x="101" y="314" width="436" height="32">
<g id="clipPath528">
<path id="path526" d="M332.857 315.823L217.579 314.992L269.276 327.557L101.553 338.341H369.296L536.949 345.175L395.167 320.88L427.06 314.373L332.857 315.823Z" fill="white"/>
</g>
</mask>
<g mask="url(#mask19_1_3)">
<g id="g524">
<g id="g530">
<g id="Mask group_8">
<mask id="mask20_1_3" style="mask-type:luminance" maskUnits="userSpaceOnUse" x="-43691" y="-43023" width="87381" height="87381">
<g id="Group_8">
<g id="g554">
<g id="g552">
<g id="g550">
<g id="g548">
<path id="path546" d="M-43690.7 -43022.7H43689.3V44357.3H-43690.7V-43022.7Z" fill="url(#paint18_linear_1_3)"/>
</g>
</g>
</g>
</g>
</g>
</mask>
<g mask="url(#mask20_1_3)">
<g id="g556">
<g id="g558">
<path id="path566" d="M332.859 315.824L217.58 314.993L269.277 327.558L101.555 338.342H369.297L536.951 345.176L395.168 320.881L427.061 314.374L332.859 315.824Z" fill="url(#paint19_linear_1_3)"/>
</g>
</g>
</g>
</g>
</g>
</g>
</g>
</g>
</g>
<g id="g568">
<g id="Clip path group_14">
<mask id="mask21_1_3" style="mask-type:luminance" maskUnits="userSpaceOnUse" x="0" y="0" width="1000" height="667">
<g id="clipPath574">
<path id="path572" d="M0 666.667H1000V6.00815e-05H0V666.667Z" fill="white"/>
</g>
</mask>
<g mask="url(#mask21_1_3)">
<g id="g570">
<g id="g576">
<path id="path578" d="M210.439 410.233C207.107 409.266 203.877 408.662 200.916 408.378C200.944 408.164 200.964 407.946 200.964 407.726C200.964 403.865 196.395 400.733 190.759 400.733C190.184 400.733 189.624 400.773 189.075 400.836C189.265 400.281 189.367 399.708 189.367 399.12C189.367 394.368 182.825 390.513 174.755 390.513C169.268 390.513 164.493 392.298 161.995 394.932C161.241 389.456 154.52 385.17 146.333 385.17C143.639 385.17 141.104 385.637 138.887 386.454C139 386.038 139.067 385.609 139.067 385.17C139.067 381.308 134.497 378.176 128.861 378.176C126.883 378.176 125.044 378.568 123.48 379.236C121.061 375.41 115.509 372.733 109.04 372.733C103.984 372.733 99.4961 374.373 96.6175 376.914C93.0535 375.224 87.4148 374.126 81.0468 374.126C71.7868 374.126 64.0495 376.438 62.0455 379.538C60.2015 377.717 57.1361 376.525 53.6601 376.525C48.8561 376.525 44.8401 378.801 43.7535 381.864C42.3815 381.393 40.8375 381.121 39.1975 381.121C33.5615 381.121 28.9921 384.253 28.9921 388.116C28.9921 388.69 29.1041 389.245 29.2948 389.778L21.7708 392.966L-1.27454 400.486C-1.27454 400.486 15.9601 409.873 16.8055 411.236C17.6521 412.596 62.0895 421.221 62.0895 421.221C62.0895 421.221 107.172 411.236 115.928 417.194C121.416 420.929 164.393 422.288 195.715 422.781C198.561 424.31 201.937 425.69 205.644 426.765C217.391 430.172 227.988 429.233 229.311 424.666C230.635 420.101 222.185 413.64 210.439 410.233Z" fill="#008F92"/>
</g>
<g id="g580">
<path id="path582" d="M976.074 407.676C972.64 407.185 969.357 407.037 966.385 407.169C966.384 406.953 966.373 406.736 966.341 406.517C965.802 402.693 960.841 400.229 955.261 401.016C954.69 401.096 954.142 401.214 953.606 401.353C953.718 400.777 953.738 400.196 953.657 399.614C952.993 394.908 945.978 392.005 937.986 393.132C932.552 393.897 928.074 396.33 925.968 399.289C924.458 393.972 917.205 390.665 909.098 391.809C906.43 392.185 903.985 393 901.904 394.12C901.957 393.692 901.962 393.258 901.901 392.822C901.362 388.998 896.401 386.536 890.821 387.321C888.862 387.597 887.094 388.244 885.64 389.122C882.71 385.673 876.838 383.797 870.434 384.7C865.426 385.406 861.213 387.657 858.716 390.574C854.95 389.398 849.214 389.098 842.909 389.988C833.738 391.28 826.401 394.649 824.848 397.998C822.769 396.454 819.566 395.701 816.124 396.186C811.369 396.857 807.709 399.672 807.06 402.856C805.636 402.581 804.069 402.528 802.445 402.757C796.865 403.542 792.777 407.282 793.317 411.106C793.397 411.676 793.585 412.209 793.848 412.712L786.842 416.918L765.073 427.584C765.073 427.584 783.449 434.473 784.477 435.702C785.504 436.932 830.713 439.268 830.713 439.268C830.713 439.268 873.958 423.086 883.461 427.764C889.416 430.697 932.162 426.041 963.245 422.157C966.277 423.273 969.814 424.169 973.634 424.716C985.742 426.449 996.102 424.038 996.776 419.333C997.45 414.629 988.181 409.409 976.074 407.676Z" fill="#008F92"/>
</g>
<g id="g584">
<path id="path586" d="M1002.41 397.352C1002 397.352 1001.6 397.384 1001.2 397.426C1000.34 388.604 998.623 379.821 995.203 379.821C992.738 379.821 989.963 385.114 987.417 391.893C985.038 389.601 982.018 388.221 978.726 388.221C978.029 388.221 977.347 388.304 976.678 388.422C975.313 379.545 973.17 372.65 969.815 373.952C961.237 377.277 959.807 415.257 959.807 415.257C959.807 415.257 958.738 343.588 945.269 343.588C933.957 343.588 929.441 385.733 929.441 385.733C929.441 385.733 929.306 359.948 917.215 358.34C903.606 356.53 905.293 412.264 905.293 412.264C905.293 412.264 874.026 442.109 942.299 442.466C975.726 442.641 990.745 436.121 997.373 429.422C998.937 430.153 1000.63 430.568 1002.41 430.568C1010.07 430.568 1016.28 423.133 1016.28 413.96C1016.28 404.788 1010.07 397.352 1002.41 397.352Z" fill="#008F92"/>
</g>
<g id="g588">
<path id="path590" d="M297.24 416.085C296.832 416.085 296.43 416.117 296.032 416.158C295.169 407.337 293.452 398.554 290.032 398.554C287.568 398.554 284.792 403.847 282.245 410.626C279.866 408.334 276.848 406.954 273.556 406.954C272.857 406.954 272.177 407.035 271.506 407.155C270.141 398.278 268 391.383 264.645 392.683C256.066 396.01 254.637 433.99 254.637 433.99C254.637 433.99 253.566 362.319 240.097 362.319C228.785 362.319 224.27 404.466 224.27 404.466C224.27 404.466 224.134 378.681 212.045 377.073C198.436 375.263 200.122 430.995 200.122 430.995C200.122 430.995 168.854 460.842 237.129 461.199C270.556 461.374 285.573 454.854 292.201 448.154C293.765 448.886 295.46 449.301 297.24 449.301C304.901 449.301 311.11 441.866 311.11 432.693C311.11 423.521 304.901 416.085 297.24 416.085Z" fill="#008F92"/>
</g>
<g id="g592">
<path id="path594" d="M70.2701 378.085C67.7221 378.085 65.3861 378.986 63.5608 380.487C62.0635 378.269 59.7421 376.654 57.0395 376.067C57.0408 375.986 57.0515 375.905 57.0515 375.823C57.0515 369.983 52.3181 365.249 46.4781 365.249C43.3915 365.249 40.6235 366.579 38.6901 368.689C37.1341 364.786 33.3288 362.025 28.8728 362.025C26.9315 362.025 25.1181 362.557 23.5541 363.47C22.7075 358.479 18.3741 354.675 13.1421 354.675C8.91813 354.675 5.28213 357.159 3.58879 360.741C1.79679 359.343 -0.451203 358.503 -2.8992 358.503C-7.62454 358.503 -11.6232 361.605 -12.9792 365.882C-14.7592 365.301 -16.6565 364.977 -18.6312 364.977C-23.7779 364.977 -28.4165 367.115 -31.7325 370.543C-33.2512 369.683 -35.0032 369.187 -36.8725 369.187C-42.6499 369.187 -47.3352 373.873 -47.3352 379.651C-47.3352 385.429 -42.6499 390.113 -36.8725 390.113C-36.4232 390.113 -35.9819 390.075 -35.5472 390.021C-32.8499 396.722 -26.2992 401.458 -18.6312 401.458C-13.2899 401.458 -8.50054 399.149 -5.16454 395.49C-2.01254 400.951 3.8728 404.637 10.6315 404.637C18.8728 404.637 25.8301 399.169 28.0928 391.666C29.9181 394.834 33.3315 396.97 37.2501 396.97C40.9021 396.97 44.1221 395.118 46.0208 392.302C47.9208 395.118 51.1395 396.97 54.7928 396.97C57.3395 396.97 59.6755 396.067 61.5008 394.567C63.4008 397.382 66.6195 399.231 70.2701 399.231C76.1101 399.231 80.8435 394.498 80.8435 388.658C80.8435 382.819 76.1101 378.085 70.2701 378.085Z" fill="#008F92"/>
</g>
<g id="g596">
<path id="path598" d="M453.732 440.909C451.184 440.909 448.848 441.811 447.022 443.311C445.524 441.093 443.204 439.478 440.501 438.891C440.502 438.81 440.513 438.73 440.513 438.647C440.513 432.809 435.778 428.074 429.94 428.074C426.853 428.074 424.085 429.405 422.152 431.513C420.596 427.61 416.79 424.85 412.334 424.85C410.393 424.85 408.58 425.381 407.016 426.294C406.169 421.305 401.836 417.499 396.604 417.499C392.38 417.499 388.744 419.985 387.05 423.565C385.258 422.167 383.01 421.327 380.562 421.327C375.837 421.327 371.838 424.429 370.482 428.706C368.702 428.125 366.805 427.802 364.829 427.802C359.684 427.802 355.045 429.939 351.729 433.367C350.209 432.509 348.458 432.013 346.589 432.013C340.81 432.013 336.126 436.697 336.126 442.475C336.126 448.254 340.81 452.938 346.589 452.938C347.038 452.938 347.48 452.901 347.914 452.845C350.612 459.547 357.162 464.282 364.829 464.282C370.172 464.282 374.961 461.973 378.297 458.314C381.448 463.775 387.334 467.461 394.093 467.461C402.334 467.461 409.292 461.993 411.553 454.491C413.38 457.658 416.793 459.794 420.712 459.794C424.364 459.794 427.582 457.942 429.482 455.127C431.382 457.942 434.601 459.794 438.253 459.794C440.801 459.794 443.137 458.893 444.962 457.391C446.862 460.206 450.081 462.055 453.732 462.055C459.57 462.055 464.305 457.323 464.305 451.483C464.305 445.643 459.57 440.909 453.732 440.909Z" fill="#008F92"/>
</g>
<g id="g600">
<path id="path602" d="M693.624 441.073C691.076 441.073 688.74 441.974 686.914 443.476C685.417 441.257 683.096 439.642 680.392 439.056C680.394 438.974 680.405 438.893 680.405 438.812C680.405 432.972 675.67 428.237 669.83 428.237C666.745 428.237 663.977 429.568 662.042 431.677C660.488 427.774 656.682 425.013 652.225 425.013C650.285 425.013 648.472 425.545 646.908 426.458C646.06 421.468 641.728 417.664 636.496 417.664C632.27 417.664 628.636 420.148 626.942 423.729C625.15 422.332 622.902 421.492 620.454 421.492C615.729 421.492 611.729 424.593 610.374 428.87C608.594 428.289 606.697 427.966 604.721 427.966C599.576 427.966 594.937 430.104 591.621 433.532C590.101 432.672 588.35 432.176 586.481 432.176C580.704 432.176 576.018 436.861 576.018 442.64C576.018 442.918 576.04 443.192 576.06 443.465C572.508 444.768 570.056 447.498 570.056 450.665C570.056 455.096 574.841 458.685 580.745 458.685C584.146 458.685 587.168 457.49 589.126 455.634C592.32 460.912 598.101 464.446 604.721 464.446C610.062 464.446 614.853 462.137 618.189 458.478C621.34 463.94 627.226 467.625 633.985 467.625C642.226 467.625 649.184 462.157 651.445 454.654C653.272 457.822 656.685 459.958 660.602 459.958C664.256 459.958 667.474 458.106 669.374 455.29C671.273 458.106 674.493 459.958 678.146 459.958C680.693 459.958 683.029 459.056 684.854 457.556C686.754 460.37 689.973 462.22 693.624 462.22C699.464 462.22 704.197 457.486 704.197 451.646C704.197 445.808 699.464 441.073 693.624 441.073Z" fill="#008F92"/>
</g>
<g id="g604">
<path id="path606" d="M1000 548.699L0 576.183V384.367L530.241 457.179L1000 395.054V548.699Z" fill="#00DC83"/>
</g>
<g id="g608">
<path id="path610" d="M0.250005 411.76L0.000671387 666.667H999.999V445.018L880.943 448.1L687.831 478.302L622.223 472.999L222.097 438.708L0.250005 411.76Z" fill="#00B95D"/>
</g>
<g id="g612">
<path id="path614" d="M814.717 531.454C812.559 530.049 813.324 526.472 816.063 526.484C825.844 526.534 835.672 527.08 845.368 526.282C802.82 521.22 717.461 513.472 717.461 513.472C717.461 513.472 715.425 511.896 715.649 510.609C667.371 512.773 554.356 514.505 554.356 514.505C554.356 514.505 569.12 505.388 570.523 504.048C537.963 504.604 505.405 505.446 472.843 505.017C434.636 504.513 349.135 497.696 349.135 497.696L301.613 488.709L410.464 485.702L100.657 458.685L237.711 476.969L196.456 480.313C196.456 480.313 170.332 480.801 158.592 485.865C219.597 512.392 287.276 517.933 348.691 543.366C352.412 543.544 356.133 543.68 359.849 543.78C383.223 544.412 406.467 544.582 429.799 546.358C475.263 549.82 520.56 555.108 565.833 560.438C610.672 565.718 655.189 572.265 700.443 569.782C744.475 567.366 788.037 559.836 832.048 557.168C868.312 554.97 904.682 557.728 941.004 559.041C923.327 556.446 905.391 555.224 887.717 553.021C862.589 549.889 836.32 545.522 814.717 531.454Z" fill="#009248"/>
</g>
<g id="g616">
<path id="path618" d="M941.345 608.983C960.582 617.715 980.061 625.964 1000 632.951V522.686L932.59 530.738L960.461 535.038L959.753 540.276L794.496 543.282C794.496 543.282 807.352 549.698 813.956 552.566C837.901 555.034 860.273 566.308 881.23 577.478C901.242 588.144 920.673 599.6 941.345 608.983Z" fill="#007149"/>
</g>
<g id="g620">
<path id="path622" d="M188.273 666.667H999.999V465.901C897.729 497.451 306.603 621.061 188.273 666.667Z" fill="#009248"/>
</g>
<g id="g624">
<path id="path626" d="M816.629 501.078L824.526 521.721L843.796 511.713L842.397 507.481L816.629 501.078Z" fill="#009248"/>
</g>
<g id="g628">
<path id="path630" d="M915.789 494.38L929.661 491.703L890.982 480.956L893.549 488.183L866.161 480.276L874.572 495.794L856.422 489.755C856.422 489.755 860.257 494.983 854.873 501.582C849.568 494.38 838.66 491.614 838.66 491.614C838.66 491.614 839.57 503.467 831.612 509.98C823.652 516.495 836.624 516.495 836.624 516.495L915.789 494.38Z" fill="#009248"/>
</g>
<g id="g632">
<path id="path634" d="M723.947 616.878H-87.78V416.112C14.4907 447.662 605.616 571.272 723.947 616.878Z" fill="#009248"/>
</g>
<g id="g636">
<path id="path638" d="M95.5905 451.29L87.6932 471.932L68.4239 461.924L69.8225 457.692L95.5905 451.29Z" fill="#009248"/>
</g>
<g id="g640">
<path id="path642" d="M-3.56959 444.591L-17.4416 441.914L21.2384 431.169L18.6704 438.395L46.0597 430.487L37.6491 446.006L55.7984 439.966C55.7984 439.966 51.9637 445.195 57.3464 451.794C62.6531 444.591 73.5597 441.826 73.5597 441.826C73.5597 441.826 72.6504 453.678 80.6091 460.193C88.5677 466.707 75.5971 466.707 75.5971 466.707L-3.56959 444.591Z" fill="#009248"/>
</g>
</g>
</g>
</g>
</g>
<g id="g644">
<g id="Clip path group_15">
<mask id="mask22_1_3" style="mask-type:luminance" maskUnits="userSpaceOnUse" x="0" y="384" width="1000" height="283">
<g id="clipPath650">
<path id="path648" d="M0 576.183L0.0893333 576.18L0 666.667H1000V395.053L530.24 457.18L0 384.367V576.183Z" fill="white"/>
</g>
</mask>
<g mask="url(#mask22_1_3)">
<g id="g646">
<g id="g652">
<g id="Mask group_9">
<mask id="mask23_1_3" style="mask-type:luminance" maskUnits="userSpaceOnUse" x="-43691" y="-43023" width="87381" height="87381">
<g id="Group_9">
<g id="g680">
<g id="g678">
<g id="g676">
<g id="g674">
<path id="path672" d="M-43690.7 -43022.7H43689.3V44357.3H-43690.7V-43022.7Z" fill="url(#paint20_radial_1_3)"/>
</g>
</g>
</g>
</g>
</g>
</mask>
<g mask="url(#mask23_1_3)">
<g id="g682">
<g id="g684">
<path id="path696" d="M0 576.184L0.0893333 576.181L0 666.668H1000V395.055L530.24 457.181L0 384.368V576.184Z" fill="url(#paint21_radial_1_3)"/>
</g>
</g>
</g>
</g>
</g>
</g>
</g>
</g>
</g>
<g id="g698">
<g id="Clip path group_16">
<mask id="mask24_1_3" style="mask-type:luminance" maskUnits="userSpaceOnUse" x="0" y="0" width="1000" height="667">
<g id="clipPath704">
<path id="path702" d="M0 666.667H1000V6.00815e-05H0V666.667Z" fill="white"/>
</g>
</mask>
<g mask="url(#mask24_1_3)">
<g id="g700">
<g id="g706">
<path id="path708" d="M999.289 599.918L294.03 543.941L-0.000244141 522.823V703.787H1000V600.141L999.289 599.918Z" fill="#00C84E"/>
</g>
<g id="g710">
<g id="g724">
<g id="Clip path group_17">
<mask id="mask25_1_3" style="mask-type:luminance" maskUnits="userSpaceOnUse" x="485" y="610" width="1" height="1">
<g id="clipPath716">
<path id="path714" d="M485.048 610.441H485.677V610.664H485.048V610.441Z" fill="white"/>
</g>
</mask>
<g mask="url(#mask25_1_3)">
<g id="g722" opacity="0.789993">
<g id="g720">
<path id="path718" d="M485.199 610.471C485.153 610.539 485.098 610.599 485.049 610.665C485.258 610.59 485.467 610.513 485.678 610.442C485.518 610.453 485.359 610.458 485.199 610.471Z" fill="#00DC5E"/>
</g>
</g>
</g>
</g>
</g>
</g>
<g id="g726">
<g id="g740">
<g id="Clip path group_18">
<mask id="mask26_1_3" style="mask-type:luminance" maskUnits="userSpaceOnUse" x="272" y="567" width="10" height="4">
<g id="clipPath732">
<path id="path730" d="M272.608 567.985H281.945V570.821H272.608V567.985Z" fill="white"/>
</g>
</mask>
<g mask="url(#mask26_1_3)">
<g id="g738" opacity="0.679993">
<g id="g736">
<path id="path734" d="M281.946 569.404C281.946 570.186 279.855 570.82 277.277 570.82C274.698 570.82 272.609 570.186 272.609 569.404C272.609 568.62 274.698 567.986 277.277 567.986C279.855 567.986 281.946 568.62 281.946 569.404Z" fill="#00DC5E"/>
</g>
</g>
</g>
</g>
</g>
</g>
<g id="g742">
<g id="g756">
<g id="Clip path group_19">
<mask id="mask27_1_3" style="mask-type:luminance" maskUnits="userSpaceOnUse" x="599" y="621" width="10" height="4">
<g id="clipPath748">
<path id="path746" d="M599.525 621.474H608.864V624.309H599.525V621.474Z" fill="white"/>
</g>
</mask>
<g mask="url(#mask27_1_3)">
<g id="g754" opacity="0.679993">
<g id="g752">
<path id="path750" d="M608.863 622.892C608.863 623.675 606.774 624.309 604.194 624.309C601.615 624.309 599.526 623.675 599.526 622.892C599.526 622.109 601.615 621.475 604.194 621.475C606.774 621.475 608.863 622.109 608.863 622.892Z" fill="#00DC5E"/>
</g>
</g>
</g>
</g>
</g>
</g>
<g id="g758">
<g id="g772">
<g id="Clip path group_20">
<mask id="mask28_1_3" style="mask-type:luminance" maskUnits="userSpaceOnUse" x="211" y="571" width="10" height="4">
<g id="clipPath764">
<path id="path762" d="M211.377 571.455H220.716V574.29H211.377V571.455Z" fill="white"/>
</g>
</mask>
<g mask="url(#mask28_1_3)">
<g id="g770" opacity="0.679993">
<g id="g768">
<path id="path766" d="M220.715 572.872C220.715 573.655 218.625 574.29 216.047 574.29C213.467 574.29 211.378 573.655 211.378 572.872C211.378 572.09 213.467 571.455 216.047 571.455C218.625 571.455 220.715 572.09 220.715 572.872Z" fill="#00DC5E"/>
</g>
</g>
</g>
</g>
</g>
</g>
<g id="g774">
<g id="g788">
<g id="Clip path group_21">
<mask id="mask29_1_3" style="mask-type:luminance" maskUnits="userSpaceOnUse" x="751" y="617" width="10" height="4">
<g id="clipPath780">
<path id="path778" d="M751.219 617.217H760.557V620.053H751.219V617.217Z" fill="white"/>
</g>
</mask>
<g mask="url(#mask29_1_3)">
<g id="g786" opacity="0.679993">
<g id="g784">
<path id="path782" d="M760.557 618.635C760.557 619.418 758.467 620.051 755.888 620.051C753.309 620.051 751.219 619.418 751.219 618.635C751.219 617.851 753.309 617.218 755.888 617.218C758.467 617.218 760.557 617.851 760.557 618.635Z" fill="#00DC5E"/>
</g>
</g>
</g>
</g>
</g>
</g>
<g id="g790">
<g id="g804">
<g id="Clip path group_22">
<mask id="mask30_1_3" style="mask-type:luminance" maskUnits="userSpaceOnUse" x="350" y="591" width="10" height="4">
<g id="clipPath796">
<path id="path794" d="M350.28 591.8H359.619V594.636H350.28V591.8Z" fill="white"/>
</g>
</mask>
<g mask="url(#mask30_1_3)">
<g id="g802" opacity="0.679993">
<g id="g800">
<path id="path798" d="M359.618 593.217C359.618 594.001 357.527 594.635 354.95 594.635C352.37 594.635 350.281 594.001 350.281 593.217C350.281 592.435 352.37 591.801 354.95 591.801C357.527 591.801 359.618 592.435 359.618 593.217Z" fill="#00DC5E"/>
</g>
</g>
</g>
</g>
</g>
</g>
<g id="g806">
<g id="g820">
<g id="Clip path group_23">
<mask id="mask31_1_3" style="mask-type:luminance" maskUnits="userSpaceOnUse" x="416" y="583" width="11" height="4">
<g id="clipPath812">
<path id="path810" d="M416.985 583.33H426.324V586.165H416.985V583.33Z" fill="white"/>
</g>
</mask>
<g mask="url(#mask31_1_3)">
<g id="g818" opacity="0.679993">
<g id="g816">
<path id="path814" d="M426.324 584.747C426.324 585.531 424.234 586.165 421.655 586.165C419.076 586.165 416.986 585.531 416.986 584.747C416.986 583.965 419.076 583.33 421.655 583.33C424.234 583.33 426.324 583.965 426.324 584.747Z" fill="#00DC5E"/>
</g>
</g>
</g>
</g>
</g>
</g>
<g id="g822">
<g id="g836">
<g id="Clip path group_24">
<mask id="mask32_1_3" style="mask-type:luminance" maskUnits="userSpaceOnUse" x="303" y="558" width="10" height="4">
<g id="clipPath828">
<path id="path826" d="M303.081 558.652H312.42V561.488H303.081V558.652Z" fill="white"/>
</g>
</mask>
<g mask="url(#mask32_1_3)">
<g id="g834" opacity="0.679993">
<g id="g832">
<path id="path830" d="M312.42 560.07C312.42 560.853 310.329 561.486 307.751 561.486C305.172 561.486 303.081 560.853 303.081 560.07C303.081 559.286 305.172 558.653 307.751 558.653C310.329 558.653 312.42 559.286 312.42 560.07Z" fill="#00DC5E"/>
</g>
</g>
</g>
</g>
</g>
</g>
<g id="g838">
<g id="g852">
<g id="Clip path group_25">
<mask id="mask33_1_3" style="mask-type:luminance" maskUnits="userSpaceOnUse" x="83" y="607" width="11" height="4">
<g id="clipPath844">
<path id="path842" d="M83.8688 607.435H93.2068V610.27H83.8688V607.435Z" fill="white"/>
</g>
</mask>
<g mask="url(#mask33_1_3)">
<g id="g850" opacity="0.679993">
<g id="g848">
<path id="path846" d="M93.2071 608.853C93.2071 609.635 91.1164 610.269 88.5378 610.269C85.9591 610.269 83.8698 609.635 83.8698 608.853C83.8698 608.069 85.9591 607.435 88.5378 607.435C91.1164 607.435 93.2071 608.069 93.2071 608.853Z" fill="#00DC5E"/>
</g>
</g>
</g>
</g>
</g>
</g>
<g id="g854">
<g id="g868">
<g id="Clip path group_26">
<mask id="mask34_1_3" style="mask-type:luminance" maskUnits="userSpaceOnUse" x="848" y="607" width="11" height="4">
<g id="clipPath860">
<path id="path858" d="M848.729 607.482H858.067V610.317H848.729V607.482Z" fill="white"/>
</g>
</mask>
<g mask="url(#mask34_1_3)">
<g id="g866" opacity="0.679993">
<g id="g864">
<path id="path862" d="M858.066 608.9C858.066 609.682 855.977 610.317 853.398 610.317C850.818 610.317 848.729 609.682 848.729 608.9C848.729 608.117 850.818 607.482 853.398 607.482C855.977 607.482 858.066 608.117 858.066 608.9Z" fill="#00DC5E"/>
</g>
</g>
</g>
</g>
</g>
</g>
<g id="g870">
<g id="g884">
<g id="Clip path group_27">
<mask id="mask35_1_3" style="mask-type:luminance" maskUnits="userSpaceOnUse" x="301" y="564" width="7" height="3">
<g id="clipPath876">
<path id="path874" d="M301.316 564.045H307.751V566.097H301.316V564.045Z" fill="white"/>
</g>
</mask>
<g mask="url(#mask35_1_3)">
<g id="g882" opacity="0.679993">
<g id="g880">
<path id="path878" d="M307.751 565.072C307.751 565.638 306.309 566.097 304.533 566.097C302.756 566.097 301.315 565.638 301.315 565.072C301.315 564.505 302.756 564.045 304.533 564.045C306.309 564.045 307.751 564.505 307.751 565.072Z" fill="#00DC5E"/>
</g>
</g>
</g>
</g>
</g>
</g>
<g id="g886">
<g id="g900">
<g id="Clip path group_28">
<mask id="mask36_1_3" style="mask-type:luminance" maskUnits="userSpaceOnUse" x="789" y="610" width="8" height="3">
<g id="clipPath892">
<path id="path890" d="M789.695 610.938H796.129V612.99H789.695V610.938Z" fill="white"/>
</g>
</mask>
<g mask="url(#mask36_1_3)">
<g id="g898" opacity="0.679993">
<g id="g896">
<path id="path894" d="M796.13 611.964C796.13 612.53 794.689 612.99 792.913 612.99C791.136 612.99 789.696 612.53 789.696 611.964C789.696 611.397 791.136 610.937 792.913 610.937C794.689 610.937 796.13 611.397 796.13 611.964Z" fill="#00DC5E"/>
</g>
</g>
</g>
</g>
</g>
</g>
<g id="g902">
<g id="g916">
<g id="Clip path group_29">
<mask id="mask37_1_3" style="mask-type:luminance" maskUnits="userSpaceOnUse" x="662" y="620" width="7" height="3">
<g id="clipPath908">
<path id="path906" d="M662.551 620.81H668.985V622.861H662.551V620.81Z" fill="white"/>
</g>
</mask>
<g mask="url(#mask37_1_3)">
<g id="g914" opacity="0.679993">
<g id="g912">
<path id="path910" d="M668.986 621.836C668.986 622.403 667.546 622.861 665.768 622.861C663.991 622.861 662.551 622.403 662.551 621.836C662.551 621.269 663.991 620.809 665.768 620.809C667.546 620.809 668.986 621.269 668.986 621.836Z" fill="#00DC5E"/>
</g>
</g>
</g>
</g>
</g>
</g>
<g id="g918">
<g id="g932">
<g id="Clip path group_30">
<mask id="mask38_1_3" style="mask-type:luminance" maskUnits="userSpaceOnUse" x="241" y="566" width="7" height="3">
<g id="clipPath924">
<path id="path922" d="M241.476 566.097H247.911V568.148H241.476V566.097Z" fill="white"/>
</g>
</mask>
<g mask="url(#mask38_1_3)">
<g id="g930" opacity="0.679993">
<g id="g928">
<path id="path926" d="M247.911 567.122C247.911 567.689 246.469 568.149 244.693 568.149C242.916 568.149 241.476 567.689 241.476 567.122C241.476 566.556 242.916 566.096 244.693 566.096C246.469 566.096 247.911 566.556 247.911 567.122Z" fill="#00DC5E"/>
</g>
</g>
</g>
</g>
</g>
</g>
<g id="g934">
<g id="g948">
<g id="Clip path group_31">
<mask id="mask39_1_3" style="mask-type:luminance" maskUnits="userSpaceOnUse" x="374" y="590" width="8" height="3">
<g id="clipPath940">
<path id="path938" d="M374.677 590.775H381.112V592.826H374.677V590.775Z" fill="white"/>
</g>
</mask>
<g mask="url(#mask39_1_3)">
<g id="g946" opacity="0.679993">
<g id="g944">
<path id="path942" d="M381.113 591.801C381.113 592.367 379.671 592.826 377.895 592.826C376.118 592.826 374.677 592.367 374.677 591.801C374.677 591.234 376.118 590.774 377.895 590.774C379.671 590.774 381.113 591.234 381.113 591.801Z" fill="#00DC5E"/>
</g>
</g>
</g>
</g>
</g>
</g>
<g id="g950">
<g id="g964">
<g id="Clip path group_32">
<mask id="mask40_1_3" style="mask-type:luminance" maskUnits="userSpaceOnUse" x="311" y="566" width="8" height="3">
<g id="clipPath956">
<path id="path954" d="M311.648 566.097H318.083V568.148H311.648V566.097Z" fill="white"/>
</g>
</mask>
<g mask="url(#mask40_1_3)">
<g id="g962" opacity="0.679993">
<g id="g960">
<path id="path958" d="M318.083 567.122C318.083 567.689 316.642 568.149 314.866 568.149C313.089 568.149 311.647 567.689 311.647 567.122C311.647 566.556 313.089 566.096 314.866 566.096C316.642 566.096 318.083 566.556 318.083 567.122Z" fill="#00DC5E"/>
</g>
</g>
</g>
</g>
</g>
</g>
<g id="g966">
<g id="g980">
<g id="Clip path group_33">
<mask id="mask41_1_3" style="mask-type:luminance" maskUnits="userSpaceOnUse" x="290" y="570" width="7" height="3">
<g id="clipPath972">
<path id="path970" d="M290.092 570.821H296.528V572.872H290.092V570.821Z" fill="white"/>
</g>
</mask>
<g mask="url(#mask41_1_3)">
<g id="g978" opacity="0.679993">
<g id="g976">
<path id="path974" d="M296.527 571.846C296.527 572.413 295.087 572.873 293.31 572.873C291.533 572.873 290.093 572.413 290.093 571.846C290.093 571.28 291.533 570.82 293.31 570.82C295.087 570.82 296.527 571.28 296.527 571.846Z" fill="#00DC5E"/>
</g>
</g>
</g>
</g>
</g>
</g>
<g id="g982">
<g id="g996">
<g id="Clip path group_34">
<mask id="mask42_1_3" style="mask-type:luminance" maskUnits="userSpaceOnUse" x="548" y="622" width="7" height="3">
<g id="clipPath988">
<path id="path986" d="M548.339 622.619H554.773V624.67H548.339V622.619Z" fill="white"/>
</g>
</mask>
<g mask="url(#mask42_1_3)">
<g id="g994" opacity="0.679993">
<g id="g992">
<path id="path990" d="M554.773 623.645C554.773 624.211 553.333 624.671 551.556 624.671C549.779 624.671 548.339 624.211 548.339 623.645C548.339 623.078 549.779 622.618 551.556 622.618C553.333 622.618 554.773 623.078 554.773 623.645Z" fill="#00DC5E"/>
</g>
</g>
</g>
</g>
</g>
</g>
<g id="g998">
<g id="g1012">
<g id="Clip path group_35">
<mask id="mask43_1_3" style="mask-type:luminance" maskUnits="userSpaceOnUse" x="38" y="599" width="7" height="3">
<g id="clipPath1004">
<path id="path1002" d="M38.4619 599.911H44.8971V601.963H38.4619V599.911Z" fill="white"/>
</g>
</mask>
<g mask="url(#mask43_1_3)">
<g id="g1010" opacity="0.679993">
<g id="g1008">
<path id="path1006" d="M44.8972 600.936C44.8972 601.504 43.4558 601.963 41.6798 601.963C39.9025 601.963 38.4612 601.504 38.4612 600.936C38.4612 600.369 39.9025 599.911 41.6798 599.911C43.4558 599.911 44.8972 600.369 44.8972 600.936Z" fill="#00DC5E"/>
</g>
</g>
</g>
</g>
</g>
</g>
<g id="g1014">
<g id="g1028">
<g id="Clip path group_36">
<mask id="mask44_1_3" style="mask-type:luminance" maskUnits="userSpaceOnUse" x="321" y="578" width="7" height="3">
<g id="clipPath1020">
<path id="path1018" d="M321.315 578.652H327.749V580.704H321.315V578.652Z" fill="white"/>
</g>
</mask>
<g mask="url(#mask44_1_3)">
<g id="g1026" opacity="0.679993">
<g id="g1024">
<path id="path1022" d="M327.75 579.678C327.75 580.245 326.309 580.705 324.533 580.705C322.755 580.705 321.314 580.245 321.314 579.678C321.314 579.112 322.755 578.652 324.533 578.652C326.309 578.652 327.75 579.112 327.75 579.678Z" fill="#00DC5E"/>
</g>
</g>
</g>
</g>
</g>
</g>
<g id="g1030">
<g id="g1044">
<g id="Clip path group_37">
<mask id="mask45_1_3" style="mask-type:luminance" maskUnits="userSpaceOnUse" x="698" y="614" width="8" height="3">
<g id="clipPath1036">
<path id="path1034" d="M698.911 614.425H705.345V616.477H698.911V614.425Z" fill="white"/>
</g>
</mask>
<g mask="url(#mask45_1_3)">
<g id="g1042" opacity="0.679993">
<g id="g1040">
<path id="path1038" d="M705.345 615.451C705.345 616.017 703.905 616.477 702.128 616.477C700.35 616.477 698.91 616.017 698.91 615.451C698.91 614.884 700.35 614.425 702.128 614.425C703.905 614.425 705.345 614.884 705.345 615.451Z" fill="#00DC5E"/>
</g>
</g>
</g>
</g>
</g>
</g>
<g id="g1046">
<g id="g1060">
<g id="Clip path group_38">
<mask id="mask46_1_3" style="mask-type:luminance" maskUnits="userSpaceOnUse" x="131" y="609" width="8" height="3">
<g id="clipPath1052">
<path id="path1050" d="M131.844 609.244H138.279V611.296H131.844V609.244Z" fill="white"/>
</g>
</mask>
<g mask="url(#mask46_1_3)">
<g id="g1058" opacity="0.679993">
<g id="g1056">
<path id="path1054" d="M138.279 610.269C138.279 610.837 136.839 611.296 135.061 611.296C133.284 611.296 131.844 610.837 131.844 610.269C131.844 609.703 133.284 609.244 135.061 609.244C136.839 609.244 138.279 609.703 138.279 610.269Z" fill="#00DC5E"/>
</g>
</g>
</g>
</g>
</g>
</g>
<g id="g1062">
<g id="g1076">
<g id="Clip path group_39">
<mask id="mask47_1_3" style="mask-type:luminance" maskUnits="userSpaceOnUse" x="447" y="582" width="8" height="3">
<g id="clipPath1068">
<path id="path1066" d="M447.677 582.696H454.113V584.748H447.677V582.696Z" fill="white"/>
</g>
</mask>
<g mask="url(#mask47_1_3)">
<g id="g1074" opacity="0.679993">
<g id="g1072">
<path id="path1070" d="M454.113 583.721C454.113 584.289 452.672 584.748 450.895 584.748C449.119 584.748 447.677 584.289 447.677 583.721C447.677 583.155 449.119 582.696 450.895 582.696C452.672 582.696 454.113 583.155 454.113 583.721Z" fill="#00DC5E"/>
</g>
</g>
</g>
</g>
</g>
</g>
<g id="g1078">
<g id="g1092">
<g id="Clip path group_40">
<mask id="mask48_1_3" style="mask-type:luminance" maskUnits="userSpaceOnUse" x="294" y="575" width="10" height="4">
<g id="clipPath1084">
<path id="path1082" d="M294.087 575.209H303.424V578.044H294.087V575.209Z" fill="white"/>
</g>
</mask>
<g mask="url(#mask48_1_3)">
<g id="g1090" opacity="0.679993">
<g id="g1088">
<path id="path1086" d="M303.425 576.626C303.425 577.41 301.334 578.044 298.755 578.044C296.177 578.044 294.086 577.41 294.086 576.626C294.086 575.844 296.177 575.209 298.755 575.209C301.334 575.209 303.425 575.844 303.425 576.626Z" fill="#00DC5E"/>
</g>
</g>
</g>
</g>
</g>
</g>
<g id="g1094">
<g id="g1108">
<g id="Clip path group_41">
<mask id="mask49_1_3" style="mask-type:luminance" maskUnits="userSpaceOnUse" x="325" y="556" width="11" height="4">
<g id="clipPath1100">
<path id="path1098" d="M325.861 556.452H335.2V559.287H325.861V556.452Z" fill="white"/>
</g>
</mask>
<g mask="url(#mask49_1_3)">
<g id="g1106" opacity="0.679993">
<g id="g1104">
<path id="path1102" d="M335.199 557.87C335.199 558.652 333.109 559.287 330.531 559.287C327.951 559.287 325.862 558.652 325.862 557.87C325.862 557.086 327.951 556.452 330.531 556.452C333.109 556.452 335.199 557.086 335.199 557.87Z" fill="#00DC5E"/>
</g>
</g>
</g>
</g>
</g>
</g>
<g id="g1110">
<path id="path1112" d="M18.0801 576.336C18.0801 576.336 225.584 596.855 262.657 603.407C324.496 606.969 355.693 612.22 383.427 613.307C376.047 611.971 236.033 596.381 236.033 596.381L151.213 584.488L288.799 589.603L206.728 583.739L158.365 578.288L18.0801 576.336Z" fill="#00DC5E"/>
</g>
<g id="g1114">
<path id="path1116" d="M483.586 574.19C507.147 576.931 523.943 578.719 523.943 578.719L606.962 584.114C606.962 584.114 521.401 585.301 519.787 586.025C561.171 586.325 602.55 587.226 643.926 588.058C654.901 588.279 665.875 588.485 676.85 588.665C612.517 581.486 548.054 573.218 483.586 574.19Z" fill="#00DC5E"/>
</g>
<g id="g1118">
<path id="path1120" d="M999.289 599.918L445.328 555.947C440.542 556.883 435.616 557.358 430.682 557.606C454.064 561.358 477.425 565.277 500.836 568.799C501.402 568.805 501.97 568.797 502.538 568.803C581.15 569.739 659.014 582.739 737.232 589.397C749.994 589.494 762.758 589.558 775.524 589.558C797.553 589.558 819.67 588.931 841.65 590.363C863.232 591.769 884.861 592.646 906.454 593.747C937.861 595.35 968.958 599.799 1000 604.725V600.141L999.289 599.918Z" fill="#00DC5E"/>
</g>
<g id="g1122">
<path id="path1124" d="M888.175 619.823L897.907 624.698L947.325 638.635L846.597 636.438L799.9 632.546L897.101 655.404L926.893 671.59L755.18 654.078L789.504 669.844L657.923 676.922L722.367 693.848L780.463 703.788H1000V625.746L888.175 619.823Z" fill="#009F3C"/>
</g>
<g id="g1126">
<path id="path1128" d="M686.359 695.451L581.613 682.164L475.199 677.027L371.982 664.444L440.449 657.508L355.281 644.083L169.801 637.503L-0.000732422 625.848V703.788H722.366L686.359 695.451Z" fill="#009F3C"/>
</g>
<g id="g1130">
<path id="path1132" d="M163.344 536.173L208.271 511.065L202.802 521.073V530.588L224.222 521.073L237.807 517.699L228.627 527.001L226.434 532.285L246.064 529.473L268.527 521.073C268.527 521.073 258.288 532.692 264.288 538.524L275.187 542.589L293.91 529.473L287.944 549.499C287.944 549.499 281.428 558 277.267 558.547C273.107 559.093 175.335 549.571 175.335 549.571L163.344 536.173Z" fill="#00C84E"/>
</g>
<g id="g1134">
<path id="path1136" d="M46.8249 528.131L91.7516 503.023L86.2823 513.031V522.546L107.701 513.031L121.288 509.655L112.108 518.958L109.914 524.242L129.545 521.43L152.006 513.031L136.081 526.122L158.668 534.547L177.39 521.43L171.424 541.455C171.424 541.455 164.909 549.958 160.748 550.505C156.588 551.051 58.8156 541.529 58.8156 541.529L46.8249 528.131Z" fill="#00C84E"/>
</g>
<g id="g1138">
<path id="path1140" d="M240.549 637.328L234.701 629.056L254.333 640.771L251.615 629.056L265.971 638.229C265.971 638.229 258.199 626.075 250.336 621.892C250.336 621.892 261.553 620.497 274.745 638.54C274.745 638.54 274.101 633.523 287.279 626.275C287.279 626.275 280.689 639.453 282.665 640.771C282.665 640.771 298.345 624.097 308.296 621.892L301.029 639.473L297.82 644.724C297.82 644.724 313.633 635.703 318.245 633.296L312.975 644.724C312.975 644.724 297.82 653.289 262.241 655.265C226.66 657.243 240.549 637.328 240.549 637.328Z" fill="#009F3C"/>
</g>
<g id="g1142">
<path id="path1144" d="M792.398 651.906L788.517 644.764L803.06 655.95L801.997 646.358L812.574 655.024C812.574 655.024 807.526 644.602 801.654 640.528C801.654 640.528 810.726 640.474 819.538 656.101C819.538 656.101 819.498 652.04 830.685 647.506C830.685 647.506 824.19 657.386 825.642 658.624C825.642 658.624 839.71 646.816 847.85 645.996L840.4 659.322L837.346 663.205C837.346 663.205 850.802 657.508 854.704 656.024L849.426 664.634C849.426 664.634 836.538 670.032 807.994 668.25C779.449 666.469 792.398 651.906 792.398 651.906Z" fill="#009F3C"/>
</g>
</g>
</g>
</g>
</g>
<g id="birds">
<g id="Clip path group_42">
<mask id="mask50_1_3" style="mask-type:luminance" maskUnits="userSpaceOnUse" x="0" y="0" width="1000" height="667">
<g id="clipPath1152">
<path id="path1150" d="M0 6.00815e-05H1000V666.667H0V6.00815e-05Z" fill="white"/>
</g>
</mask>
<g mask="url(#mask50_1_3)">
<g id="birds-group">
<g id="bird8">
<path id="path1168" d="M914.853 216.632C916.754 216.748 918.705 217.383 920.27 218.7C921.053 219.349 921.723 220.181 922.177 221.125C922.679 222.059 922.913 223.089 923.095 224.124L921.239 223.759C921.875 222.735 922.599 221.988 923.462 221.303C924.321 220.639 925.317 220.144 926.358 219.901C927.397 219.672 928.47 219.611 929.474 219.841C929.986 219.893 930.459 220.115 930.942 220.243C931.413 220.424 931.862 220.653 932.315 220.855C931.83 220.728 931.358 220.577 930.878 220.479C930.385 220.432 929.911 220.295 929.423 220.327C928.457 220.264 927.51 220.491 926.659 220.829C925.807 221.184 925.057 221.729 924.438 222.395C923.834 223.044 923.297 223.871 923.001 224.603C922.805 225.088 922.251 225.323 921.765 225.127C921.465 225.005 921.261 224.748 921.194 224.456L921.146 224.236C921.137 223.38 921.102 222.499 920.823 221.684C920.591 220.851 920.162 220.072 919.583 219.393C918.435 218.02 916.706 217.063 914.853 216.632Z" fill="#4BA0BA"/>
</g>
<g id="bird7">
<path id="path1176" d="M789.369 181.021C786.841 181.557 784.45 182.806 782.817 184.669C781.994 185.589 781.369 186.659 781.017 187.815C780.599 188.947 780.519 190.173 780.478 191.37C780.459 191.903 780.013 192.321 779.479 192.302C779.155 192.29 778.874 192.121 778.707 191.869L778.623 191.741C778.158 190.694 777.39 189.585 776.518 188.695C775.633 187.794 774.563 187.062 773.37 186.603C772.177 186.166 770.866 185.89 769.545 186.01C768.875 185.981 768.23 186.185 767.563 186.265C766.911 186.417 766.274 186.637 765.619 186.823C766.241 186.562 766.857 186.263 767.498 186.03C768.157 185.867 768.799 185.581 769.491 185.523C770.851 185.237 772.289 185.346 773.67 185.674C775.054 186.022 776.366 186.702 777.493 187.602C778.622 188.526 779.577 189.554 780.383 190.893L778.529 191.263C778.742 189.887 779.021 188.51 779.662 187.261C780.234 185.993 781.102 184.869 782.127 183.977C783.147 183.075 784.321 182.387 785.553 181.905C786.786 181.429 788.071 181.115 789.369 181.021Z" fill="#4BA0BA"/>
</g>
<g id="bird6">
<path id="path1184" d="M708.827 252.428C710.145 251.93 711.647 251.772 713.076 252.176C713.788 252.371 714.476 252.718 715.055 253.204C715.66 253.666 716.12 254.274 716.547 254.898L715.609 255.139C715.685 254.298 715.907 253.567 716.239 252.848C716.573 252.142 717.052 251.498 717.644 250.998C718.241 250.51 718.916 250.112 719.649 249.928C720.371 249.704 721.12 249.656 721.855 249.64C721.124 249.739 720.397 249.871 719.735 250.164C719.056 250.418 718.473 250.863 717.989 251.36C717.509 251.868 717.155 252.482 716.931 253.135C716.711 253.78 716.593 254.507 716.609 255.138L716.601 255.206C716.571 255.478 716.324 255.672 716.052 255.64C715.885 255.62 715.745 255.518 715.672 255.38C715.364 254.802 715.029 254.219 714.553 253.762C714.101 253.279 713.537 252.902 712.912 252.648C711.664 252.126 710.193 252.087 708.827 252.428Z" fill="#4BA0BA"/>
</g>
<g id="bird5">
<path id="path1156" d="M579.766 222.665C581.53 221.945 583.563 221.673 585.544 222.182C586.531 222.427 587.498 222.886 588.314 223.542C589.171 224.165 589.828 224.994 590.442 225.847L588.611 226.322C588.738 225.123 589.068 224.137 589.55 223.145C590.035 222.175 590.719 221.298 591.552 220.627C592.39 219.97 593.33 219.45 594.335 219.223C594.819 219.049 595.342 219.043 595.832 218.949C596.335 218.91 596.839 218.921 597.334 218.906C596.843 219.002 596.351 219.071 595.875 219.19C595.411 219.361 594.924 219.442 594.499 219.683C593.6 220.045 592.846 220.661 592.227 221.333C591.612 222.022 591.171 222.838 590.903 223.706C590.639 224.553 590.514 225.531 590.563 226.318C590.596 226.842 590.199 227.293 589.676 227.327C589.352 227.347 589.058 227.205 588.871 226.97L588.732 226.793C588.352 226.026 587.94 225.246 587.336 224.631C586.766 223.981 586.042 223.465 585.226 223.105C583.596 222.363 581.623 222.25 579.766 222.665Z" fill="#4BA0BA"/>
</g>
<g id="bird4">
<path id="path1172" d="M492.468 277.082C490.584 277.35 488.779 278.151 487.515 279.421C486.879 280.046 486.384 280.783 486.08 281.594C485.731 282.382 485.62 283.257 485.536 284.109L485.469 284.318C485.313 284.818 484.78 285.097 484.279 284.939C483.971 284.843 483.745 284.598 483.656 284.311C483.425 283.558 482.961 282.687 482.415 281.987C481.859 281.27 481.159 280.662 480.34 280.234C479.523 279.823 478.6 279.514 477.631 279.494C477.148 279.417 476.663 279.513 476.169 279.517C475.681 279.574 475.197 279.683 474.704 279.766C475.172 279.606 475.64 279.417 476.124 279.277C476.617 279.191 477.108 279.011 477.623 279.005C478.643 278.862 479.707 279.017 480.721 279.335C481.739 279.669 482.687 280.249 483.484 280.985C484.284 281.743 484.94 282.55 485.484 283.625L483.604 283.829C483.876 282.814 484.197 281.805 484.78 280.919C485.313 280.018 486.055 279.247 486.891 278.669C488.565 277.494 490.564 277.031 492.468 277.082Z" fill="#4BA0BA"/>
</g>
<g id="bird3">
<path id="path1164" d="M422.005 212.771C423.903 212.933 425.838 213.615 427.37 214.968C428.138 215.636 428.789 216.484 429.218 217.44C429.698 218.384 429.906 219.421 430.063 220.46L428.218 220.049C428.878 219.041 429.619 218.312 430.499 217.648C431.373 217.005 432.381 216.535 433.427 216.317C434.471 216.112 435.546 216.077 436.545 216.332C437.055 216.396 437.522 216.629 438.003 216.769C438.469 216.963 438.913 217.201 439.359 217.413C438.878 217.276 438.41 217.115 437.931 217.003C437.442 216.944 436.97 216.796 436.482 216.817C435.517 216.731 434.565 216.935 433.707 217.252C432.846 217.585 432.082 218.113 431.449 218.763C430.83 219.399 430.271 220.212 429.958 220.936C429.75 221.416 429.191 221.637 428.71 221.429C428.413 221.301 428.215 221.04 428.155 220.745L428.113 220.524C428.123 219.668 428.11 218.788 427.851 217.965C427.639 217.127 427.23 216.337 426.667 215.645C425.553 214.244 423.846 213.247 422.005 212.771Z" fill="#4BA0BA"/>
</g>
<g id="bird2">
<path id="path1180" d="M312.859 232.943C311.102 232.215 309.139 231.985 307.406 232.433C306.539 232.646 305.738 233.029 305.063 233.571C304.362 234.073 303.821 234.769 303.315 235.458L303.151 235.605C302.762 235.955 302.161 235.923 301.81 235.533C301.594 235.293 301.525 234.967 301.593 234.674C301.778 233.909 301.823 232.923 301.711 232.043C301.597 231.142 301.303 230.262 300.817 229.477C300.323 228.707 299.687 227.971 298.863 227.459C298.486 227.149 298.021 226.983 297.594 226.735C297.145 226.537 296.674 226.383 296.206 226.203C296.691 226.305 297.19 226.379 297.678 226.506C298.146 226.683 298.659 226.778 299.105 227.035C300.057 227.433 300.893 228.107 301.603 228.898C302.309 229.703 302.83 230.686 303.139 231.725C303.443 232.785 303.597 233.813 303.515 235.015L301.795 234.233V234.231C302.546 233.498 303.337 232.795 304.289 232.33C305.207 231.825 306.237 231.539 307.251 231.469C309.291 231.31 311.246 231.93 312.859 232.943Z" fill="#4BA0BA"/>
</g>
<g id="bird1">
<path id="path1160" d="M121.088 191.344C121.995 190.974 123.039 190.834 124.056 191.096C124.563 191.222 125.06 191.458 125.479 191.794C125.919 192.116 126.256 192.541 126.571 192.98L125.633 193.222C125.7 192.608 125.868 192.1 126.116 191.592C126.365 191.093 126.716 190.642 127.144 190.297C127.573 189.96 128.057 189.693 128.573 189.576C129.081 189.43 129.604 189.41 130.115 189.412C129.608 189.493 129.108 189.597 128.657 189.812C128.196 189.997 127.808 190.313 127.489 190.658C127.173 191.012 126.947 191.432 126.809 191.877C126.673 192.314 126.608 192.816 126.633 193.221C126.651 193.489 126.448 193.72 126.179 193.737C126.013 193.748 125.863 193.674 125.767 193.554L125.696 193.464V193.462C125.333 192.66 124.745 191.932 123.893 191.569C123.056 191.188 122.041 191.13 121.088 191.344Z" fill="#4BA0BA"/>
</g>
</g>
</g>
</g>
</g>
</g>
<defs>
<linearGradient id="paint0_linear_1_3" x1="500" y1="476.562" x2="500" y2="10.4288" gradientUnits="userSpaceOnUse">
<stop stop-color="#FFFED1"/>
<stop offset="0.814392" stop-color="#54CEF6"/>
<stop offset="1" stop-color="#54CEF6"/>
</linearGradient>
<linearGradient id="paint1_linear_1_3" x1="-57.9811" y1="71.441" x2="710.684" y2="108.531" gradientUnits="userSpaceOnUse">
<stop stop-color="white"/>
<stop offset="0.814392" stop-color="white" stop-opacity="0"/>
<stop offset="1" stop-color="white" stop-opacity="0"/>
</linearGradient>
<linearGradient id="paint2_linear_1_3" x1="-57.9836" y1="71.4466" x2="710.681" y2="108.537" gradientUnits="userSpaceOnUse">
<stop stop-color="white"/>
<stop offset="0.814392" stop-color="#99DAF5"/>
<stop offset="1" stop-color="#99DAF5"/>
</linearGradient>
<linearGradient id="paint3_linear_1_3" x1="1141.23" y1="113.183" x2="372.567" y2="150.274" gradientUnits="userSpaceOnUse">
<stop stop-color="white"/>
<stop offset="0.814392" stop-color="white" stop-opacity="0"/>
<stop offset="1" stop-color="white" stop-opacity="0"/>
</linearGradient>
<linearGradient id="paint4_linear_1_3" x1="1141.23" y1="113.188" x2="372.563" y2="150.279" gradientUnits="userSpaceOnUse">
<stop stop-color="white"/>
<stop offset="0.814392" stop-color="#99DAF5"/>
<stop offset="1" stop-color="#99DAF5"/>
</linearGradient>
<linearGradient id="paint5_linear_1_3" x1="165.474" y1="246.84" x2="123.049" y2="444.822" gradientUnits="userSpaceOnUse">
<stop stop-color="white"/>
<stop offset="0.814392" stop-color="white" stop-opacity="0"/>
<stop offset="1" stop-color="white" stop-opacity="0"/>
</linearGradient>
<linearGradient id="paint6_linear_1_3" x1="165.47" y1="246.845" x2="123.046" y2="444.827" gradientUnits="userSpaceOnUse">
<stop stop-color="white"/>
<stop offset="0.814392" stop-color="#99DAF5"/>
<stop offset="1" stop-color="#99DAF5"/>
</linearGradient>
<linearGradient id="paint7_linear_1_3" x1="839.116" y1="243.992" x2="881.935" y2="443.812" gradientUnits="userSpaceOnUse">
<stop stop-color="white"/>
<stop offset="0.814392" stop-color="white" stop-opacity="0"/>
<stop offset="1" stop-color="white" stop-opacity="0"/>
</linearGradient>
<linearGradient id="paint8_linear_1_3" x1="839.113" y1="243.994" x2="881.931" y2="443.814" gradientUnits="userSpaceOnUse">
<stop stop-color="white"/>
<stop offset="0.814392" stop-color="#99DAF5"/>
<stop offset="1" stop-color="#99DAF5"/>
</linearGradient>
<linearGradient id="paint9_linear_1_3" x1="269.341" y1="181.763" x2="307.792" y2="69.9041" gradientUnits="userSpaceOnUse">
<stop stop-color="white"/>
<stop offset="0.814392" stop-color="white" stop-opacity="0"/>
<stop offset="1" stop-color="white" stop-opacity="0"/>
</linearGradient>
<linearGradient id="paint10_linear_1_3" x1="269.339" y1="181.763" x2="307.79" y2="69.9046" gradientUnits="userSpaceOnUse">
<stop stop-color="white"/>
<stop offset="0.814392" stop-color="#99DAF5"/>
<stop offset="1" stop-color="#99DAF5"/>
</linearGradient>
<linearGradient id="paint11_linear_1_3" x1="601.901" y1="245.92" x2="643.785" y2="124.077" gradientUnits="userSpaceOnUse">
<stop stop-color="white"/>
<stop offset="0.814392" stop-color="white" stop-opacity="0"/>
<stop offset="1" stop-color="white" stop-opacity="0"/>
</linearGradient>
<linearGradient id="paint12_linear_1_3" x1="601.898" y1="245.924" x2="643.782" y2="124.081" gradientUnits="userSpaceOnUse">
<stop stop-color="white"/>
<stop offset="0.814392" stop-color="#99DAF5"/>
<stop offset="1" stop-color="#99DAF5"/>
</linearGradient>
<linearGradient id="paint13_linear_1_3" x1="698.855" y1="218.692" x2="684.185" y2="429.945" gradientUnits="userSpaceOnUse">
<stop stop-color="#F3FBFF"/>
<stop offset="1" stop-color="#8DD1EF"/>
</linearGradient>
<linearGradient id="paint14_linear_1_3" x1="292.122" y1="352.704" x2="311.217" y2="504.186" gradientUnits="userSpaceOnUse">
<stop stop-color="#F3FBFF"/>
<stop offset="1" stop-color="#8DD1EF"/>
</linearGradient>
<linearGradient id="paint15_linear_1_3" x1="123.993" y1="252.396" x2="27.5008" y2="410.987" gradientUnits="userSpaceOnUse">
<stop stop-color="#F3FBFF"/>
<stop offset="1" stop-color="#8DD1EF"/>
</linearGradient>
<linearGradient id="paint16_linear_1_3" x1="383.89" y1="379.79" x2="811.898" y2="379.79" gradientUnits="userSpaceOnUse">
<stop stop-color="white"/>
<stop offset="1" stop-color="white" stop-opacity="0"/>
</linearGradient>
<linearGradient id="paint17_linear_1_3" x1="383.888" y1="379.795" x2="811.895" y2="379.795" gradientUnits="userSpaceOnUse">
<stop stop-color="#F2FDFF"/>
<stop offset="1" stop-color="#83E0EE"/>
</linearGradient>
<linearGradient id="paint18_linear_1_3" x1="101.558" y1="329.774" x2="536.953" y2="329.774" gradientUnits="userSpaceOnUse">
<stop stop-color="white"/>
<stop offset="1" stop-color="white" stop-opacity="0"/>
</linearGradient>
<linearGradient id="paint19_linear_1_3" x1="101.555" y1="329.775" x2="536.951" y2="329.775" gradientUnits="userSpaceOnUse">
<stop stop-color="#F2FDFF"/>
<stop offset="1" stop-color="#83E0EE"/>
</linearGradient>
<radialGradient id="paint20_radial_1_3" cx="0" cy="0" r="1" gradientUnits="userSpaceOnUse" gradientTransform="translate(503.709 402.339) rotate(90) scale(144.946 468.408)">
<stop stop-color="white"/>
<stop offset="0.13825" stop-color="white"/>
<stop offset="0.409938" stop-color="white"/>
<stop offset="1" stop-color="white" stop-opacity="0"/>
</radialGradient>
<radialGradient id="paint21_radial_1_3" cx="0" cy="0" r="1" gradientUnits="userSpaceOnUse" gradientTransform="translate(503.706 402.343) rotate(90) scale(144.946 468.408)">
<stop stop-color="#FFEFC8"/>
<stop offset="0.13825" stop-color="#FFEFC8"/>
<stop offset="0.409938" stop-color="#FFEFC8"/>
<stop offset="1" stop-color="#00F4E6"/>
</radialGradient>
</defs>
</svg>
